<svg xmlns="http://www.w3.org/2000/svg" width="70" height="70" fill="none" xmlns:v="https://vecta.io/nano"><rect x=".6" y=".6" width="68.8" height="68.8" rx="1.258" fill="#fff" stroke="#768f9e" stroke-width="1.2"/><rect x="8.388" y="8.286" width="53.139" height="53.326" rx="2.045" stroke="#647580" stroke-width="1.908"/><path d="M47.277 27.495l.047-1.469c-.018-7.142-4.333-11.295-11.142-11.736-5.934-.384-10.403 1.899-12.442 5.702-.686 1.279-1.076 2.88-1.223 4.618a11.41 11.41 0 0 0-.361 2.822h.024c0 .006 0 .011-.006.023-.012 0-.03 0-.041.006-.869.149-1.265 1.945-.881 4.015.349 1.899 1.235 3.373 2.051 3.482 1.04 2.707 2.678 5.34 4.711 7.262 1.147 1.09 2.423 1.95 3.783 2.478a8.15 8.15 0 0 0 2.908.556 8.15 8.15 0 0 0 2.908-.556c1.407-.545 2.725-1.445 3.901-2.593 1.98-1.922 3.582-4.509 4.599-7.17.78-.224 1.602-1.646 1.939-3.459.355-1.979.012-3.694-.774-3.981zm-1.318 4.245c-.183 1.004-.591 1.836-1.017 2.191-.171.138-.349.206-.52.178a.45.45 0 0 1-.26-.132c-.94 2.84-2.731 5.673-4.995 7.388-1.348 1.027-2.867 1.658-4.469 1.658-1.566 0-3.056-.602-4.38-1.589-2.305-1.709-4.132-4.578-5.083-7.457a.48.48 0 0 1-.26.126c-.195.034-.402-.057-.597-.252-.402-.39-.762-1.17-.94-2.111-.012-.063-.018-.12-.03-.183a29.13 29.13 0 0 1 .083-1.927c.089-.241.195-.43.343-.534a.43.43 0 0 1 .201-.08c.16-.029.331.034.497.161v-.04c.059-.533.798-5.226 5.444-4.807 0 0 4.078 1.457 7.79.172.402-.011.786-.011 1.147 0 1.537.057 2.589.832 3.694 1.325-.041-.493-.431-.992-.414-1.325a2.29 2.29 0 0 1 .491.201c.792.82 1.56 2.197 2.175 4.446v.029l.018-.017c.16-.12.325-.178.485-.149a.44.44 0 0 1 .118.035c.502.235.721 1.388.479 2.696zm14.505 29.473H9.454c.112-2.163.443-4.216 1.099-6.367l.142-.459.195-.574c-.006.011-.012.023-.012.034.012-.023.018-.046.03-.069l.012-.029v-.006-.006c2.902-7.526 7.448-7.824 8.482-8.059 2.205-.499 4.871-.287 6.295-.717.166 1.354 4.232 5.817 6.892 8.61l1.135-4.331c-.851-.499-1.034-1.583-1.034-2.49h4.374c0 .912-.183 2.008-1.058 2.501l1.153 4.319c2.666-2.794 6.727-7.256 6.892-8.61 1.425.43 4.096.218 6.295.717 1.034.235 5.574.528 8.476 8.031a13.17 13.17 0 0 1 .23.62v.006c.006.017.012.029.012.046.041.132.089.281.136.459.52 1.818.952 3.729 1.17 5.604a5.87 5.87 0 0 1 .095.769z" fill="#647580"/><rect x="11" y="11.15" width="14.867" height="4.956" rx=".619" fill="#1a74e4"/><path d="M13.478 13.628h9.911" stroke="#fff" stroke-width="1.239" stroke-linecap="round"/></svg>