<svg xmlns="http://www.w3.org/2000/svg" width="100" height="100" fill="none" xmlns:v="https://vecta.io/nano"><rect x=".75" y=".75" width="98.5" height="98.5" rx="1.905" fill="#fff" stroke="#768f9e" stroke-width="1.5"/><rect x="11.982" y="11.838" width="75.913" height="76.18" rx="2.921" stroke="#647580" stroke-width="2.726"/><path d="M67.538 39.278l.068-2.098c-.025-10.202-6.19-16.135-15.917-16.766-8.478-.549-14.862 2.712-17.775 8.145-.98 1.827-1.537 4.114-1.748 6.597a16.3 16.3 0 0 0-.515 4.032h.034c0 .008 0 .016-.008.033-.017 0-.042 0-.059.008-1.241.213-1.807 2.778-1.258 5.736.498 2.712 1.765 4.819 2.93 4.974 1.486 3.868 3.825 7.629 6.73 10.375 1.638 1.557 3.462 2.786 5.404 3.54 1.334.508 2.727.795 4.154.795s2.82-.287 4.154-.795c2.01-.779 3.893-2.065 5.573-3.704 2.829-2.745 5.117-6.441 6.569-10.243 1.115-.32 2.288-2.352 2.77-4.941.507-2.827.017-5.277-1.106-5.687zm-1.883 6.064c-.262 1.434-.844 2.622-1.452 3.13-.245.197-.498.295-.743.254a.65.65 0 0 1-.372-.188c-1.343 4.056-3.901 8.105-7.135 10.555-1.925 1.467-4.095 2.368-6.384 2.368-2.238 0-4.366-.86-6.257-2.27-3.293-2.442-5.902-6.539-7.262-10.653-.11.098-.236.164-.371.18-.279.049-.574-.082-.853-.361-.574-.557-1.089-1.672-1.343-3.016-.017-.09-.025-.172-.042-.262.008-.942.051-1.852.118-2.753.127-.344.279-.615.49-.762.084-.066.186-.098.287-.115.228-.041.473.049.709.229v-.057c.084-.762 1.14-7.465 7.777-6.867 0 0 5.826 2.081 11.129.246.574-.016 1.123-.016 1.638 0 2.196.082 3.699 1.188 5.278 1.893-.059-.705-.616-1.418-.591-1.893.253.066.481.172.701.287 1.132 1.172 2.229 3.139 3.107 6.351v.041l.025-.025c.228-.172.464-.254.692-.213a.66.66 0 0 1 .169.049c.718.336 1.03 1.983.684 3.852zm20.723 42.105H13.506c.16-3.089.633-6.023 1.571-9.096l.203-.656.279-.819c-.008.016-.017.033-.017.049.017-.033.025-.066.042-.098l.017-.041v-.008-.008c4.146-10.751 10.64-11.178 12.117-11.514 3.15-.713 6.958-.41 8.993-1.024.236 1.934 6.046 8.31 9.846 12.3l1.621-6.187c-1.216-.713-1.478-2.262-1.478-3.556h6.249c0 1.303-.262 2.868-1.511 3.573l1.647 6.171c3.808-3.991 9.609-10.366 9.846-12.3 2.035.615 5.852.311 8.993 1.024 1.478.336 7.963.754 12.109 11.473a18.77 18.77 0 0 1 .329.885v.008c.008.025.017.041.017.066.059.189.127.402.194.656.743 2.598 1.359 5.327 1.672 8.006a8.28 8.28 0 0 1 .135 1.098z" fill="#647580"/><g fill="#1a74e4"><path d="M61.062 7.965h19.469v2.655H59.292l1.77-2.655z"/><path d="M61.062 7.965h22.124v10.619c0 .489-.396.885-.885.885H61.947c-.489 0-.885-.396-.885-.885V7.965z"/></g><path d="M65.487 13.428h14.159" stroke="#fff" stroke-width="1.77" stroke-linecap="round"/></svg>