<svg width="174" height="40" viewBox="0 0 174 40" fill="none" xmlns="http://www.w3.org/2000/svg">
<path d="M17.0484 26.5509V26.7824L14.1106 27.6852C13.3241 27.9167 12.3063 30.5093 11.5198 34.3519C13.9949 35.8102 17.0484 36.7361 19.9862 36.7361H21.1196C23.7104 36.5046 26.3244 35.8333 28.4525 34.4676C27.666 30.625 26.7639 28.0324 25.8617 27.8009L22.8083 26.7824V26.5509C22.8083 26.4352 22.6926 26.3194 22.4613 26.2037L22.1143 25.9722L22.3456 25.7407C22.577 25.5093 22.8083 25.1852 22.9008 25.0694C23.2478 24.6065 23.5717 24.0509 23.6873 23.4954C23.803 23.2639 23.9186 23.0324 23.9186 22.8241V22.7083H24.0343C24.2656 22.4769 24.3813 22.2454 24.3813 22.037V21.1343C24.3813 20.9028 24.3813 20.787 24.15 20.5787V19.1204C24.15 17.0833 22.4613 15.5093 20.5413 15.5093H19.2922C17.2566 15.5093 15.6836 17.1991 15.6836 19.1204V20.5787C15.5679 20.6944 15.4523 20.9259 15.4523 21.1343V22.037C15.4523 22.2685 15.5679 22.5926 15.7993 22.7083H15.9149V22.8241C15.9149 23.0556 16.0306 23.287 16.1462 23.4954C16.3776 24.0509 16.6089 24.5139 16.9327 25.0694C17.164 25.3009 17.2797 25.5324 17.4879 25.7407L17.7192 25.9722L17.3722 26.2037C17.2566 26.3194 17.1409 26.4352 17.0253 26.5509H17.0484Z" fill="white"/>
<path d="M9.92369 33.3333C10.0393 32.8704 10.155 32.3148 10.2707 31.875C11.4041 27.2454 12.5376 26.3426 13.5554 26.1111L15.2441 25.6482C15.0128 25.1852 14.6889 24.7454 14.5732 24.1898C14.5732 24.0741 14.4576 23.8426 14.3419 23.7269L12.5376 23.1713V22.9398C12.5376 22.8241 12.422 22.7083 12.1906 22.5926L11.8437 22.3611L12.075 22.1296C12.3063 21.8982 12.422 21.6667 12.6301 21.4583C12.9771 20.9954 13.301 20.4398 13.4166 20C13.5323 19.7685 13.648 19.537 13.648 19.3287V19.213H13.7636C13.9949 18.9815 14.1106 18.75 14.1106 18.5417V17.6389C14.1106 17.4074 14.1106 17.2917 13.8793 17.0833V15.625C13.8793 13.588 12.1906 12.0139 10.2707 12.0139H8.90588C6.87025 12.0139 5.29726 13.7037 5.29726 15.625V17.0833C5.1816 17.1991 5.06594 17.4306 5.06594 17.6389V18.5417C5.06594 18.7732 5.1816 19.0972 5.41292 19.213H5.52858V19.3287C5.52858 19.5602 5.64424 19.7917 5.7599 20C5.99122 20.5556 6.22255 21.0185 6.5464 21.5741C6.77772 21.8056 6.89338 22.037 7.10157 22.2454L7.44855 22.3611L7.10157 22.5926C6.87025 22.7083 6.87025 22.8241 6.75458 22.9398V23.1713L3.8168 24.0741C4.6033 27.6852 6.87025 31.088 9.92369 33.3333Z" fill="white"/>
<path d="M30.8352 11.7593H29.586C27.5504 11.7593 25.9774 13.4491 25.9774 15.3704V16.8287C25.8617 17.0602 25.8617 17.1759 25.8617 17.3843V18.287C25.8617 18.5185 25.9774 18.8426 26.2087 18.9583H26.3244V19.0741C26.44 19.3056 26.44 19.537 26.5557 19.7454C26.787 20.3009 27.0184 20.7639 27.3422 21.3194C27.4579 21.5509 27.6892 21.7824 27.8974 21.9907L28.1287 22.2222L27.7817 22.4537C27.5504 22.5694 27.5504 22.6852 27.4347 22.8009V23.0324L25.6304 23.588C25.6304 23.8194 25.5148 23.9352 25.3991 24.0509C25.1678 24.5139 24.9365 24.9537 24.7283 25.5093L26.4169 25.9722C27.4347 26.2037 28.5682 27.2222 29.7017 31.7361C29.8173 32.2917 29.933 32.7546 30.0487 33.3102C30.9508 32.6389 31.853 31.8519 32.6395 30.9259C34.3281 28.8889 35.6929 26.5278 36.2481 23.912L33.3103 23.0093V22.7778C33.3103 22.662 33.1946 22.5463 32.9633 22.4306L32.4081 22.3148L32.6395 22.0833C32.8708 21.8519 32.9864 21.6204 33.1946 21.412C33.5416 20.9491 33.8655 20.3935 33.9811 19.9537C34.0968 19.7222 34.2125 19.4907 34.2125 19.2824V19.1667H34.3281C34.5594 18.9352 34.6751 18.7037 34.6751 18.4954V17.5926C34.6751 17.3611 34.6751 17.2454 34.4438 17.037V15.5787C34.4438 13.4259 32.8708 11.7361 30.8352 11.7361V11.7593Z" fill="white"/>
<path d="M19.9862 40C8.90588 40 0 30.9491 0 20C0 9.05093 8.90588 0 19.9862 0C31.0665 0 39.9723 9.05093 39.9723 20C39.8567 31.088 30.9277 40 19.9862 40ZM19.9862 2.03704C10.155 2.03704 2.12816 10.1852 2.12816 20C2.12816 29.8148 10.155 37.8704 19.9862 37.8704C29.8173 37.8704 37.8442 29.838 37.8442 20C37.8442 10.162 29.8173 2.03704 19.9862 2.03704Z" fill="white"/>
<path d="M60.9301 13.0093C60.9301 13.7037 60.7913 14.2593 60.4905 14.6759C60.1898 15.0926 59.7734 15.3241 59.1951 15.3241C58.6168 15.3241 58.2467 15.1389 57.8303 14.7454C58.0848 14.5602 58.2699 14.3056 58.4087 13.9583C58.5474 13.6111 58.6168 13.2639 58.6168 12.8935C58.6168 12.338 58.4318 11.875 58.0848 11.5046C57.7147 11.1343 57.1826 10.9722 56.4424 10.9722C55.7022 10.9722 55.0314 11.2037 54.6844 11.6435C54.3143 12.1065 54.1523 12.7083 54.1523 13.4491C54.1523 14.1898 54.3605 15.0695 54.8 15.625C55.2164 16.1806 55.7485 16.6898 56.3962 17.1296C57.0207 17.5695 57.7147 17.9861 58.4318 18.4028C59.172 18.7963 59.8428 19.2824 60.4674 19.8148C61.092 20.3472 61.624 21.0185 62.0635 21.7824C62.503 22.5463 62.7112 23.5417 62.7112 24.7222C62.7112 25.9028 62.5493 26.5972 62.2023 27.338C61.8785 28.0556 61.4158 28.6574 60.8375 29.1204C60.2592 29.5833 59.5653 29.9074 58.7788 30.1158C57.9923 30.3241 57.1133 30.4167 56.1648 30.4167C55.2164 30.4167 54.5225 30.3241 53.7128 30.162C52.9032 30 52.1861 29.6991 51.5615 29.3287C50.937 28.9352 50.4281 28.4259 50.0579 27.7778C49.6878 27.1296 49.4796 26.3426 49.4796 25.4398C49.4796 24.537 49.5722 24.2593 49.7341 23.75C49.896 23.2408 50.1505 22.8241 50.4281 22.4769C50.7056 22.1296 51.0758 21.875 51.469 21.6667C51.8623 21.4583 52.2786 21.3889 52.7181 21.3889C53.1577 21.3889 53.1808 21.412 53.4121 21.4583C53.6434 21.5046 53.921 21.5972 54.1755 21.7361C54.4299 21.875 54.6612 22.0602 54.8694 22.2917C55.0776 22.5232 55.2627 22.8241 55.3783 23.1713C55.0545 23.1713 54.7306 23.2176 54.4068 23.287C54.0829 23.3565 53.7822 23.4954 53.5278 23.6574C53.2733 23.8195 53.042 24.0972 52.8801 24.3982C52.7181 24.6991 52.6256 25.1158 52.6256 25.6019C52.6256 26.5509 52.9032 27.2222 53.5046 27.6157C54.0829 28.0324 54.8 28.2176 55.6791 28.2176C56.5581 28.2176 57.2058 28.0093 57.6916 27.5926C58.1773 27.1759 58.3855 26.4583 58.3855 25.4398C58.3855 24.4213 58.2005 23.7037 57.8072 23.0556C57.414 22.4074 56.9282 21.8287 56.3268 21.3426C55.7253 20.8565 55.1008 20.3935 54.4068 19.9769C53.736 19.5602 53.0883 19.0972 52.4868 18.588C51.8854 18.1019 51.3996 17.5 51.0064 16.8287C50.6131 16.1574 50.4281 15.3472 50.4281 14.3519C50.4281 12.7778 50.9601 11.5741 52.001 10.7639C53.042 9.93057 54.4762 9.53705 56.2805 9.53705C58.0848 9.53705 56.9282 9.5602 57.4371 9.60649C57.946 9.65279 58.478 9.79168 58.987 10.0232C59.4959 10.2546 59.9585 10.6019 60.3286 11.0648C60.6987 11.5278 60.9069 12.1528 60.9069 12.9861L60.9301 13.0093Z" fill="white"/>
<path d="M77.7934 21.7361C77.7934 20.6482 77.6777 19.8843 77.4233 19.4213C77.1688 18.9583 76.8218 18.7269 76.3823 18.7269C75.9428 18.7269 75.4802 18.9815 75.2257 19.4676C74.9944 19.9769 74.8325 20.5556 74.7862 21.2269V29.9306H70.8769V20.5787C70.8769 20.3704 70.8769 20.1389 70.8306 19.9074C70.7843 19.6759 70.7381 19.4908 70.6455 19.3056C70.553 19.1435 70.4374 18.9815 70.2754 18.8657C70.1135 18.75 69.9285 18.6806 69.6971 18.6806C69.2114 18.6806 68.8412 18.9352 68.5637 19.4213C68.3092 19.9306 68.1473 20.5093 68.0779 21.2037V29.9074H64.1685V16.3426H68.0779V17.7546C68.5174 17.1065 69.0032 16.6898 69.5352 16.4815C70.0672 16.2963 70.5762 16.2037 71.0388 16.2037C71.7096 16.2037 72.3342 16.3657 72.9125 16.6898C73.4908 17.0139 73.9535 17.6389 74.3236 18.5417C74.5318 18.0556 74.7862 17.662 75.0638 17.338C75.3414 17.037 75.6421 16.8056 75.9428 16.6435C76.2435 16.4815 76.5443 16.3657 76.845 16.3195C77.1457 16.2732 77.4233 16.25 77.7009 16.25C78.2098 16.25 78.6955 16.3195 79.1582 16.5046C79.6208 16.6667 80.0372 16.9445 80.3842 17.338C80.7312 17.7315 81.0088 18.2407 81.2169 18.8889C81.4251 19.537 81.5177 20.3241 81.5177 21.2732C81.5177 22.2222 81.5177 21.8056 81.5177 22.1528C81.5177 22.5 81.4945 22.8704 81.4714 23.2176C81.4714 23.588 81.4483 23.9352 81.4251 24.2824C81.402 24.6296 81.4251 24.9074 81.4251 25.1389C81.4251 25.9259 81.5177 26.5046 81.7027 26.8982C81.8878 27.2917 82.2579 27.4769 82.8362 27.4769C83.4145 27.4769 83.3914 27.4074 83.5996 27.2917C83.8077 27.1759 83.9697 27.0139 84.0853 26.7824C84.201 26.5741 84.3167 26.3195 84.386 26.0185C84.4554 25.7176 84.548 25.4167 84.6174 25.0695H85.7508C85.6121 26.1343 85.3807 26.9908 85.1031 27.662C84.8256 28.3333 84.4786 28.8426 84.1316 29.1898C83.7615 29.5602 83.3682 29.7917 82.9519 29.9074C82.5355 30.0232 82.096 30.0926 81.7027 30.0926C80.3379 30.0926 79.3432 29.6296 78.7187 28.7037C78.0941 27.7778 77.7703 26.5509 77.7703 25.0232C77.7703 23.4954 77.7703 24.6296 77.7703 24.3287C77.7703 24.0278 77.7703 23.7269 77.7703 23.4028C77.7703 23.0787 77.7703 22.7546 77.7703 22.4537C77.7703 22.1528 77.7703 21.9213 77.7703 21.7593L77.7934 21.7361Z" fill="white"/>
<path d="M95.7439 16.3658V25.6019C95.7439 26.3658 95.8365 26.875 96.0446 27.1065C96.2528 27.3611 96.6229 27.4769 97.1319 27.4769C97.6408 27.4769 98.1034 27.2454 98.4504 26.8056C98.7974 26.3426 99.0056 25.7871 99.0518 25.0926H100.185C100.047 26.2037 99.7921 27.0833 99.4219 27.7315C99.0518 28.3796 98.6586 28.8889 98.1959 29.2593C97.7333 29.6065 97.2938 29.838 96.808 29.9537C96.3222 30.0695 95.929 30.1158 95.5589 30.1158C94.6105 30.1158 93.8702 29.8843 93.3845 29.4445C92.8755 29.0046 92.5286 28.4028 92.3435 27.6158C92.2047 27.9167 92.0197 28.2176 91.8346 28.5185C91.6264 28.8195 91.3951 29.0741 91.1175 29.3287C90.8399 29.5833 90.5161 29.7454 90.146 29.9074C89.7758 30.0695 89.3363 30.1158 88.8506 30.1158C88.3648 30.1158 87.6939 30 87.1388 29.7917C86.5836 29.5833 86.0747 29.213 85.6121 28.7269C85.1494 28.2408 84.7793 27.5926 84.5017 26.7824C84.2241 25.9722 84.0853 24.9769 84.0853 23.8195C84.0853 22.6621 84.1779 22.1296 84.3629 21.25C84.548 20.3704 84.8487 19.5602 85.2651 18.8195C85.6814 18.0787 86.2135 17.4769 86.8612 16.9908C87.532 16.5046 88.3185 16.2732 89.2669 16.2732C90.2153 16.2732 89.7296 16.2732 89.9609 16.3195C90.2153 16.3426 90.4698 16.4121 90.7011 16.5046C90.9324 16.5972 91.1638 16.7593 91.3488 16.9445C91.557 17.1296 91.6958 17.3843 91.8115 17.7083V16.4121H95.7208L95.7439 16.3658ZM91.8346 18.9583C91.8346 18.8889 91.7883 18.7963 91.7189 18.6806C91.6727 18.5648 91.5801 18.4491 91.4645 18.3333C91.3488 18.2176 91.21 18.125 91.0481 18.0324C90.8862 17.963 90.7011 17.9167 90.4698 17.9167C90.0303 17.9167 89.6602 18.1019 89.3363 18.4722C89.0125 18.8426 88.758 19.3056 88.573 19.8611C88.3879 20.4167 88.2491 21.0185 88.1566 21.6898C88.0641 22.3611 88.0178 22.9861 88.0178 23.5648C88.0178 24.5139 88.0872 25.2778 88.226 25.8102C88.3648 26.3426 88.5498 26.7361 88.758 26.9676C88.9662 27.1991 89.1975 27.3611 89.4289 27.4074C89.6602 27.4537 89.8684 27.4769 90.0303 27.4769C90.1922 27.4769 90.4235 27.4306 90.6317 27.338C90.8399 27.2454 91.025 27.0833 91.21 26.8982C91.3951 26.713 91.5107 26.4583 91.6264 26.1574C91.7421 25.8565 91.7883 25.5093 91.7883 25.1158V19.0046L91.8346 18.9583Z" fill="white"/>
<path d="M102.73 16.3658V18.0556C103.123 17.5926 103.563 17.1759 104.048 16.7824C104.534 16.412 105.066 16.2269 105.644 16.2269C106.223 16.2269 106.292 16.2963 106.57 16.4352C106.847 16.5741 107.102 16.7593 107.31 17.0139C107.518 17.2454 107.68 17.5 107.796 17.7778C107.911 18.0556 107.981 18.3333 107.981 18.6343C107.981 18.9352 107.865 19.3982 107.611 19.7454C107.356 20.0926 106.963 20.2546 106.408 20.2546C105.853 20.2546 105.714 20.162 105.552 19.9769C105.39 19.7917 105.274 19.6065 105.182 19.3982C105.089 19.1898 104.997 19.0046 104.904 18.8195C104.812 18.6343 104.627 18.5417 104.372 18.5417C104.118 18.5417 103.84 18.6574 103.563 18.8426C103.308 19.0509 103.031 19.3056 102.73 19.6065V29.9074H98.8205V16.3426H102.73V16.3658Z" fill="white"/>
<path d="M113.047 12.0833V16.3658H114.666V17.4537H113.047V25.6019C113.047 26.3658 113.139 26.875 113.347 27.1065C113.556 27.3611 113.926 27.4769 114.435 27.4769C114.944 27.4769 114.782 27.4537 114.92 27.4074C115.036 27.3611 115.129 27.3148 115.198 27.2685C115.198 27.3611 115.221 27.4537 115.221 27.5463V27.8241C115.221 28.588 114.99 29.1435 114.55 29.537C114.111 29.9074 113.556 30.1158 112.885 30.1158C111.497 30.1158 110.525 29.7222 109.947 28.9583C109.392 28.1945 109.114 27.1759 109.114 25.9028V17.4537H108.258V16.3658H109.114V12.6157L113.024 12.0833H113.047Z" fill="white"/>
<path d="M130.442 13.1019C129.864 13.1019 129.216 13.0324 128.499 12.9167C127.782 12.8009 127.019 12.662 126.255 12.5V29.9074H122.346V11.9445H122.068C121.259 11.9445 120.588 12.037 120.033 12.2222C119.501 12.4074 119.061 12.6852 118.737 13.0324C118.413 13.3796 118.182 13.8195 118.066 14.3519C117.951 14.8843 117.881 15.463 117.881 16.1111C117.881 16.7593 117.928 17.1759 117.997 17.5463C118.066 17.9167 118.182 18.1945 118.275 18.4259C118.39 18.6574 118.483 18.8195 118.598 18.9352C118.714 19.0509 118.784 19.1667 118.876 19.2361C117.743 19.2361 116.84 18.9815 116.216 18.4259C115.568 17.8935 115.267 16.9445 115.267 15.6019C115.267 14.2593 115.406 13.9583 115.707 13.2176C115.985 12.4769 116.47 11.8287 117.095 11.2963C117.743 10.7639 118.575 10.3241 119.593 10.0232C120.611 9.72223 121.86 9.5602 123.341 9.5602C124.821 9.5602 124.705 9.58334 125.307 9.65279C125.885 9.72223 126.44 9.79168 126.949 9.86112C127.458 9.95371 127.967 10.0232 128.476 10.0695C128.985 10.1158 129.517 10.162 130.072 10.162C130.627 10.162 131.46 10.0926 131.992 9.97686C132.501 9.86112 132.94 9.72223 133.287 9.58334C133.334 9.95371 133.38 10.2546 133.38 10.5324C133.38 11.3426 133.149 11.9676 132.709 12.3843C132.27 12.8009 131.529 13.0324 130.488 13.0324L130.442 13.1019Z" fill="white"/>
<path d="M135.971 27.8241C136.503 27.8241 136.989 27.7546 137.405 27.6158C137.821 27.4769 138.191 27.2685 138.515 27.037C138.839 26.7824 139.14 26.5046 139.417 26.1806C139.695 25.8565 139.949 25.4861 140.204 25.1158H141.129C140.875 25.7408 140.574 26.3658 140.227 26.9676C139.88 27.5695 139.441 28.1019 138.932 28.5648C138.423 29.0278 137.821 29.4213 137.127 29.6991C136.433 29.9769 135.647 30.1389 134.722 30.1389C133.796 30.1389 133.241 30.0232 132.57 29.7917C131.899 29.5602 131.344 29.1898 130.882 28.7037C130.396 28.1945 130.026 27.5695 129.771 26.7824C129.517 25.9954 129.378 25.0463 129.378 23.9583C129.378 22.8704 129.471 22.338 129.633 21.4583C129.794 20.5787 130.118 19.7454 130.535 18.9815C130.974 18.2176 131.552 17.5926 132.293 17.0833C133.033 16.5741 133.981 16.3195 135.115 16.3195C136.248 16.3195 136.642 16.4583 137.127 16.7361C137.59 17.0139 137.937 17.3148 138.168 17.6852C138.4 18.0556 138.538 18.4028 138.585 18.75C138.631 19.0972 138.654 19.3287 138.654 19.4908C138.654 20.3009 138.515 21.0185 138.215 21.6435C137.914 22.2685 137.521 22.7778 137.012 23.1945C136.503 23.6111 135.948 23.9352 135.3 24.1667C134.652 24.3982 134.005 24.5139 133.334 24.5602C133.334 25.7639 133.565 26.6435 133.935 27.1528C134.328 27.662 134.999 27.9167 135.971 27.9167V27.8241ZM136.549 19.4213C136.549 18.7963 136.433 18.3565 136.225 18.0787C136.017 17.8241 135.763 17.6852 135.531 17.6852C135.3 17.6852 134.953 17.8241 134.698 18.125C134.444 18.4259 134.213 18.8195 134.028 19.3056C133.843 19.7917 133.681 20.3704 133.565 21.0417C133.449 21.713 133.38 22.4074 133.334 23.125C133.796 23.0787 134.213 22.963 134.606 22.7546C134.999 22.5463 135.346 22.2685 135.647 21.9445C135.924 21.6204 136.156 21.2269 136.318 20.7871C136.48 20.3472 136.572 19.8843 136.572 19.375L136.549 19.4213Z" fill="white"/>
<path d="M151.377 16.3658V25.6019C151.377 26.3658 151.469 26.875 151.677 27.1065C151.886 27.3611 152.256 27.4769 152.765 27.4769C153.274 27.4769 153.736 27.2454 154.083 26.8056C154.43 26.3426 154.638 25.7871 154.685 25.0926H155.818C155.679 26.2037 155.425 27.0833 155.055 27.7315C154.685 28.3796 154.291 28.8889 153.829 29.2593C153.366 29.6065 152.927 29.838 152.441 29.9537C151.955 30.0695 151.562 30.1158 151.192 30.1158C150.243 30.1158 149.503 29.8843 149.017 29.4445C148.508 29.0046 148.161 28.4028 147.976 27.6158C147.838 27.9167 147.652 28.2176 147.467 28.5185C147.259 28.8195 147.028 29.0741 146.75 29.3287C146.473 29.5833 146.149 29.7454 145.779 29.9074C145.409 30.0695 144.969 30.1158 144.483 30.1158C143.998 30.1158 143.327 30 142.772 29.7917C142.216 29.5833 141.707 29.213 141.245 28.7269C140.782 28.2408 140.412 27.5926 140.135 26.7824C139.857 25.9722 139.718 24.9769 139.718 23.8195C139.718 22.6621 139.811 22.1296 139.996 21.25C140.181 20.3704 140.481 19.5602 140.898 18.8195C141.314 18.0787 141.846 17.4769 142.494 16.9908C143.165 16.5046 143.951 16.2732 144.9 16.2732C145.848 16.2732 145.362 16.2732 145.594 16.3195C145.848 16.3426 146.103 16.4121 146.334 16.5046C146.565 16.5972 146.797 16.7593 146.982 16.9445C147.19 17.1296 147.329 17.3843 147.444 17.7083V16.4121H151.354L151.377 16.3658ZM147.467 18.9583C147.467 18.8889 147.421 18.7963 147.352 18.6806C147.305 18.5648 147.213 18.4491 147.097 18.3333C146.982 18.2176 146.843 18.125 146.681 18.0324C146.519 17.963 146.334 17.9167 146.103 17.9167C145.663 17.9167 145.293 18.1019 144.969 18.4722C144.645 18.8426 144.391 19.3056 144.206 19.8611C144.021 20.4167 143.882 21.0185 143.789 21.6898C143.697 22.3611 143.651 22.9861 143.651 23.5648C143.651 24.5139 143.72 25.2778 143.859 25.8102C143.998 26.3426 144.183 26.7361 144.391 26.9676C144.599 27.1991 144.83 27.3611 145.062 27.4074C145.293 27.4537 145.501 27.4769 145.663 27.4769C145.825 27.4769 146.056 27.4306 146.265 27.338C146.473 27.2454 146.658 27.0833 146.843 26.8982C147.028 26.713 147.144 26.4583 147.259 26.1574C147.375 25.8565 147.421 25.5093 147.421 25.1158V19.0046L147.467 18.9583Z" fill="white"/>
<path d="M168.078 21.7361C168.078 20.6482 167.963 19.8843 167.708 19.4213C167.454 18.9583 167.107 18.7269 166.667 18.7269C166.228 18.7269 165.765 18.9815 165.511 19.4676C165.256 19.9769 165.117 20.5556 165.071 21.2269V29.9306H161.162V20.5787C161.162 20.3704 161.162 20.162 161.115 19.9537C161.069 19.7454 161.023 19.537 160.93 19.3519C160.861 19.1667 160.722 19.0046 160.583 18.8889C160.421 18.7732 160.236 18.7037 160.005 18.7037C159.519 18.7037 159.126 18.9583 158.872 19.4445C158.594 19.9306 158.432 20.5324 158.386 21.2269V29.9306H154.476V16.3658H158.386V17.7778C158.848 17.1065 159.334 16.6898 159.866 16.5046C160.398 16.3195 160.861 16.2269 161.254 16.2269C161.948 16.2269 162.619 16.412 163.244 16.7593C163.868 17.1065 164.331 17.7083 164.655 18.5185C164.863 18.0324 165.117 17.6389 165.395 17.338C165.672 17.037 165.95 16.8056 166.251 16.6435C166.551 16.4815 166.852 16.3657 167.153 16.3195C167.454 16.2732 167.731 16.25 168.009 16.25C168.518 16.25 169.003 16.3195 169.466 16.5046C169.929 16.6667 170.345 16.9445 170.692 17.338C171.039 17.7315 171.317 18.2407 171.525 18.8889C171.733 19.537 171.826 20.3241 171.826 21.2732C171.826 22.2222 171.826 21.8056 171.826 22.1296C171.826 22.4769 171.802 22.8241 171.779 23.1945C171.779 23.5648 171.756 23.9352 171.733 24.2824C171.733 24.6296 171.733 24.9306 171.733 25.162C171.733 25.9491 171.826 26.5509 172.034 26.9213C172.242 27.2917 172.635 27.4769 173.26 27.4769C173.884 27.4769 173.861 27.4306 174 27.3148C174 28.3102 173.792 29.0278 173.399 29.4676C172.982 29.9074 172.381 30.1158 171.571 30.1158C170.761 30.1158 170.368 29.9769 169.929 29.7222C169.466 29.4676 169.119 29.0972 168.842 28.6343C168.564 28.1713 168.379 27.6389 168.263 27.037C168.148 26.4352 168.078 25.7639 168.078 25.0695C168.078 24.375 168.078 24.6528 168.078 24.3519C168.078 24.0509 168.078 23.75 168.078 23.4259C168.078 23.1019 168.078 22.7778 168.078 22.4769C168.078 22.1759 168.078 21.9445 168.078 21.7824V21.7361Z" fill="white"/>
</svg>
