<svg xmlns="http://www.w3.org/2000/svg" viewBox="0 0 88 60" xmlns:v="https://vecta.io/nano"><path d="M85,60H3C1.3,60,0,58.7,0,57V3C0,1.3,1.3,0,3,0h82c1.7,0,3,1.3,3,3v54c0,1.7-1.3,3-3,3ZM3,1.2c-1,0-1.8.8-1.8,1.8v54c0,1,.8,1.8,1.8,1.8h82c1,0,1.8-.8,1.8-1.8V3c0-1-.8-1.8-1.8-1.8H3Z" fill="#768f9e"/><g fill="#aab5bd"><path d="M26.2 34.8H14a.68.68 0 1 0 0 1.4h12.2a.68.68 0 1 0 0-1.4z"/><use href="#B"/><path d="M17.5 39.9h-2.2-.2v.2 2.2.2h.2.9v-1h-.4V41h.4v-.3c0-.4.2-.6.6-.6h.4v.4H17c-.2 0-.3.1-.3.2v.3h.4v.5h-.4v1h.9.2v-.2-2.2-.2h-.2zm4 0h-2.2c-.2 0-.3.1-.3.3v2.2c0 .2.1.3.3.3h2.2c.2 0 .3-.1.3-.3v-2.2c0-.2-.1-.3-.3-.3zm-.4 1.1c0 .5-.4 1.2-1.2 1.2s-.5 0-.6-.2c.2 0 .4 0 .5-.2-.2 0-.3-.1-.4-.3h.2c-.2 0-.3-.2-.3-.4h0 .2s-.1 0-.1-.1v-.2-.2c.2.3.5.4.9.4 0-.3.2-.5.4-.5s.2 0 .3.1h.3s0 .2-.2.2h.2s-.1.2-.2.2zm4.4-1.1h-2.4c-.1 0-.2 0-.2.2v2.4c0 .1 0 .2.2.2h2.4c.1 0 .2 0 .2-.2v-2.4c0-.1 0-.2-.2-.2zm-1.8 2.4h-.4V41h.4v1.3zm-.2-1.5c-.1 0-.2-.1-.2-.2s.1-.2.2-.2.2.1.2.2-.1.2-.2.2zm1.8 1.5h-.4v-.7c0-.2 0-.4-.2-.4s-.3.2-.3.3v.7H24v-1.3h.4v.2h0c0-.1.2-.2.4-.2.4 0 .5.3.5.6v.7z"/><use href="#C"/><path d="M13.4 30.5h0v-.1.1zm13.2-13.3H13.3c-.5 0-.8.4-.8.8v14.1c0 .5.4.8.8.8h13.3c.5 0 .8-.4.8-.8V18c0-.5-.4-.8-.8-.8zm-13.3.6h13.3c.1 0 .2 0 .2.2v14c0-.4-.2-.9-.3-1.3v-.1h0v-.2h0c-.8-2.1-2-2.2-2.3-2.2-.6-.1-1.3 0-1.7-.2 0 .4-1.1 1.6-1.9 2.4l-.3-1.2c.2-.1.3-.4.3-.7h-1.2c0 .3 0 .6.3.7l-.3 1.2c-.7-.8-1.8-2-1.9-2.4-.4.1-1.1 0-1.7.2-.3 0-1.5.1-2.3 2.3h0v.2.1c-.1.4-.2.7-.2 1.1V18.1c0-.1 0-.2.2-.2z"/></g><path d="M54.7 38.1H34.3c-.7 0-1.2.5-1.2 1.2s.5 1.2 1.2 1.2h20.4c.7 0 1.2-.5 1.2-1.2s-.5-1.2-1.2-1.2zm-5.4 6.1c.5 0 .9-.4.9-.9s-.4-.9-.9-.9h-9.5c-.5 0-.9.4-.9.9s.4.9.9.9h9.5zm-9.1 2.4h-3.7c-.1 0-.3 0-.4.1 0 0-.1.2-.1.4v3.7c0 .1 0 .3.1.4 0 0 .2.1.4.1H38v-1.6h-.7v-.8h.7v-.6c0-.7.4-1 1-1h.6v.6h-.3c-.3 0-.4.2-.4.4v.5h.7v.8h-.7v1.6h1.5c.1 0 .3 0 .4-.1 0 0 .1-.2.1-.4V47c0-.1 0-.3-.1-.4 0 0-.2-.1-.4-.1zm6.6 0h-3.7a.47.47 0 0 0-.5.5v3.7a.47.47 0 0 0 .5.5h3.7a.47.47 0 0 0 .5-.5v-3.7a.47.47 0 0 0-.5-.5zm-.5 1.8c0 .9-.7 2-2 2s-.8-.1-1.1-.3h.2c.3 0 .6-.1.9-.3-.3 0-.6-.2-.6-.5h.3c-.3 0-.6-.3-.6-.7h0 .3s-.2-.1-.2-.2v-.3-.3c.3.4.9.7 1.4.7 0-.5.3-.9.7-.9s.4 0 .5.2c.2 0 .3 0 .4-.2 0 .2-.2.3-.3.4.1 0 .3 0 .4-.1 0 .1-.2.3-.3.4zm7.3-1.8h-4.1c-.2 0-.3.2-.3.3V51c0 .2.2.3.3.3h4.1c.2 0 .3-.2.3-.3v-4.1c0-.2-.2-.3-.3-.3zm-2.9 4.1H50v-2.3h.7v2.3zm-.4-2.6c-.2 0-.4-.2-.4-.4s.2-.4.4-.4.4.2.4.4-.2.4-.4.4zm3 2.6h-.7v-1.1c0-.3 0-.6-.4-.6s-.4.3-.4.6v1.1h-.7v-2.3h.7v.3h0c0-.2.3-.4.7-.4.7 0 .8.5.8 1.1v1.2zM39 21.9c.5 1.3 1.2 2.5 2.1 3.4a6.57 6.57 0 0 0 1.7 1.2 3.08 3.08 0 0 0 1.3.3c.4 0 .9 0 1.3-.3.6-.3 1.2-.7 1.8-1.2.9-.9 1.6-2.1 2.1-3.4.4-.1.7-.8.9-1.6.2-.9 0-1.7-.4-1.9v-.7c0-3.3-2-5.3-5.1-5.5-2.7-.2-4.7.9-5.7 2.7-.3.6-.5 1.3-.6 2.2-.1.4-.2.9-.2 1.3h0c-.4 0-.6.9-.4 1.9.2.9.6 1.6.9 1.6zm.1-2.5c0-.1 0-.2.2-.2h.2 0c0-.3.4-2.5 2.5-2.3 0 0 1.9.7 3.5 0h.5c.7 0 1.2.4 1.7.6 0-.2-.2-.5-.2-.6h.2c.4.4.7 1 1 2.1h0 0 .2c.2.1.3.6.2 1.3 0 .5-.3.9-.5 1h-.2-.1c-.4 1.3-1.2 2.7-2.3 3.5-.6.5-1.3.8-2 .8s-1.4-.3-2-.7c-1-.8-1.9-2.1-2.3-3.5h-.1s-.2 0-.3-.1c-.2-.2-.3-.5-.4-1v-.9zM55.4 8.5H33.2c-.8 0-1.4.6-1.4 1.4v23.6c0 .8.6 1.4 1.4 1.4h22.2c.8 0 1.4-.6 1.4-1.4V9.9c0-.8-.6-1.4-1.4-1.4zm-22.2 1h22.2c.2 0 .3.2.3.3v23.5l-.4-2.1V31h0s0-.2-.1-.3h0c-1.3-3.5-3.4-3.7-3.9-3.8-1-.2-2.2-.1-2.9-.3 0 .6-1.9 2.7-3.1 4l-.5-2c.4-.2.5-.7.5-1.2h-2c0 .4 0 .9.5 1.2l-.5 2c-1.2-1.3-3.1-3.4-3.1-4-.6.2-1.9.1-2.9.3-.5.1-2.5.2-3.9 3.8h0v.3.2c-.2.6-.3 1.2-.4 1.8V9.9c0-.2.2-.3.3-.3z" fill="#58707f"/><g fill="#aab5bd"><path d="M75.1 34.8H62.9a.68.68 0 1 0 0 1.4h12.2a.68.68 0 1 0 0-1.4z"/><use href="#B" x="48.9"/><path d="M66.4 39.9h-2.2-.2v.2 2.2.2h.2.9v-1h-.4V41h.4v-.3c0-.4.2-.6.6-.6h.4v.4h-.2c-.2 0-.3.1-.3.2v.3h.4v.5h-.4v1h.9.2v-.2-2.2-.2h-.2zm3.9 0h-2.2c-.2 0-.3.1-.3.3v2.2c0 .2.1.3.3.3h2.2c.2 0 .3-.1.3-.3v-2.2c0-.2-.1-.3-.3-.3zM70 41c0 .5-.4 1.2-1.2 1.2s-.5 0-.6-.2c.2 0 .4 0 .5-.2-.2 0-.3-.1-.4-.3h.2c-.2 0-.3-.2-.3-.4h0 .2s-.1 0-.1-.1v-.2-.2c.2.3.5.4.9.4 0-.3.2-.5.4-.5s.2 0 .3.1h.3s0 .2-.2.2h.2s-.1.2-.2.2zm4.4-1.1H72c-.1 0-.2 0-.2.2v2.4c0 .1 0 .2.2.2h2.4c.1 0 .2 0 .2-.2v-2.4c0-.1 0-.2-.2-.2zm-1.8 2.4h-.4V41h.4v1.3zm-.2-1.5c-.1 0-.2-.1-.2-.2s.1-.2.2-.2.2.1.2.2-.1.2-.2.2zm1.8 1.5h-.4v-.7c0-.2 0-.4-.2-.4s-.3.2-.3.3v.7h-.4v-1.3h.4v.2h0c0-.1.2-.2.4-.2.4 0 .5.3.5.6v.7z"/><use href="#C" x="48.9"/><path d="M62.3 30.5h0v-.1.1zm13.2-13.3H62.2c-.5 0-.8.4-.8.8v14.1c0 .5.4.8.8.8h13.3c.5 0 .8-.4.8-.8V18c0-.5-.4-.8-.8-.8zm-13.3.6h13.3c.1 0 .2 0 .2.2v14c0-.4-.2-.9-.3-1.3v-.1h0v-.2h0c-.8-2.1-2-2.2-2.3-2.2-.6-.1-1.3 0-1.7-.2 0 .4-1.1 1.6-1.9 2.4l-.3-1.2c.2-.1.3-.4.3-.7h-1.2c0 .3 0 .6.3.7l-.3 1.2c-.7-.8-1.8-2-1.9-2.4-.4.1-1.1 0-1.7.2-.3 0-1.5.1-2.3 2.3h0v.2.1c-.1.4-.2.7-.2 1.1V18.1c0-.1 0-.2.2-.2z"/></g><path d="M79.5 34.9c-.2 0-.5 0-.6-.3a.85.85 0 0 1 0-1.3l3.4-3.4-3.4-3.4a.85.85 0 0 1 0-1.3.85.85 0 0 1 1.3 0l4 4a.85.85 0 0 1 0 1.3l-4 4c-.2.2-.4.3-.6.3zm-71 0c-.2 0-.5 0-.6-.3l-4-4a.85.85 0 0 1 0-1.3l4-4a.85.85 0 0 1 1.3 0 .85.85 0 0 1 0 1.3L5.8 30l3.4 3.4a.85.85 0 0 1 0 1.3c-.4.4-.4.3-.6.3z" fill="#718491"/><defs ><path id="B" d="M22.9,38.5c.3,0,.6-.3.6-.6s-.3-.6-.6-.6h-5.7c-.3,0-.6.3-.6.6s.3.6.6.6h5.7Z"/><path id="C" d="M16.8 25.2c.3.8.7 1.5 1.3 2 .3.3.7.5 1 .7.3 0 .5.2.8.2s.5 0 .8-.2c.4-.2.7-.4 1.1-.7.5-.5 1-1.3 1.2-2 .2 0 .4-.5.5-1 0-.6 0-1-.2-1.1v-.4c0-2-1.2-3.2-3-3.3-1.6-.1-2.8.5-3.4 1.6-.2.4-.3.8-.3 1.3v.8h0c-.2 0-.3.5-.2 1.1 0 .5.3.9.6 1zm0-1.5v-.1h.1 0c0-.2.2-1.5 1.5-1.4 0 0 1.1.4 2.1 0h.3c.4 0 .7.2 1 .4 0-.1-.1-.3-.1-.4h.1c.2.2.4.6.6 1.2h0 0 .1c.1 0 .2.4.1.8 0 .3-.2.5-.3.6h-.1c-.3.8-.7 1.6-1.4 2.1-.4.3-.8.5-1.2.5s-.8-.2-1.2-.4c-.6-.5-1.1-1.3-1.4-2.1h-.2c-.1-.1-.2-.3-.3-.6v-.5z"/></defs></svg>