<svg xmlns="http://www.w3.org/2000/svg" viewBox="0 0 88 60" xmlns:v="https://vecta.io/nano"><path d="M85,60H3C1.3,60,0,58.7,0,57V3C0,1.3,1.3,0,3,0h82c1.7,0,3,1.3,3,3v54c0,1.7-1.3,3-3,3ZM3,1.2c-1,0-1.8.8-1.8,1.8v54c0,1,.8,1.8,1.8,1.8h82c1,0,1.8-.8,1.8-1.8V3c0-1-.8-1.8-1.8-1.8H3Z" fill="#768f9e"/><g fill="#58707f"><use href="#B"/><path d="M21.4 4.5H8.8c-.7 0-1.3.6-1.3 1.3v13.5c0 .7.6 1.3 1.3 1.3h12.6c.7 0 1.3-.6 1.3-1.3V5.8c0-.7-.6-1.3-1.3-1.3zm-12.6 1h12.6c.2 0 .3.1.3.3v12.4-.2h0c-.8-2.1-2-2.2-2.3-2.3-.6-.1-1.3 0-1.7-.2 0 .4-1.2 1.7-1.9 2.4l-.3-1.2c.2-.1.3-.5.3-.7h-1.2c0 .3 0 .6.3.7l-.3 1.2c-.7-.8-1.9-2.1-1.9-2.4-.4.1-1.1 0-1.7.2-.3 0-1.5.2-2.3 2.3h0 0V5.8c0-.2.1-.3.3-.3z"/><use href="#C"/><path d="M11 26.3c-.5 0-.9.4-.9.9s.4.9.9.9h8.2c.5 0 .9-.4.9-.9s-.4-.9-.9-.9H11z"/><use href="#D"/><path d="M21.4 32H8.8c-.7 0-1.3.6-1.3 1.3v13.5c0 .7.6 1.3 1.3 1.3h12.6c.7 0 1.3-.6 1.3-1.3V33.3c0-.7-.6-1.3-1.3-1.3zm-12.6.9h12.6c.2 0 .3.1.3.3v12.4-.2h0c-.8-2.1-2-2.2-2.3-2.3-.6-.1-1.3 0-1.7-.2 0 .4-1.2 1.7-1.9 2.4l-.3-1.2c.2-.1.3-.5.3-.7h-1.2c0 .3 0 .6.3.7l-.3 1.2c-.7-.8-1.9-2.1-1.9-2.4-.4.1-1.1 0-1.7.2-.3 0-1.5.2-2.3 2.3h0 0V33.2c0-.2.1-.3.3-.3z"/><use href="#E"/><path d="M19.2 53.7H11c-.5 0-.9.4-.9.9s.4.9.9.9h8.2c.5 0 .9-.4.9-.9s-.4-.9-.9-.9z"/><use href="#F"/><path d="M40.5 4.5H27.9c-.7 0-1.3.6-1.3 1.3v13.5c0 .7.6 1.3 1.3 1.3h12.6c.7 0 1.3-.6 1.3-1.3V5.8c0-.7-.6-1.3-1.3-1.3zm-12.6 1h12.6c.2 0 .3.1.3.3v12.4-.2h0c-.8-2.1-2-2.2-2.3-2.3-.6-.1-1.3 0-1.7-.2 0 .4-1.2 1.7-1.9 2.4l-.3-1.2c.2-.1.3-.5.3-.7h-1.2c0 .3 0 .6.3.7l-.3 1.2c-.7-.8-1.9-2.1-1.9-2.4-.4.1-1.1 0-1.7.2-.3 0-1.5.2-2.3 2.3h0 0V5.8c0-.2.1-.3.3-.3z"/><use href="#C" x="19.1"/><use href="#G"/><use href="#H"/><path d="M40.5 32H27.9c-.7 0-1.3.6-1.3 1.3v13.5c0 .7.6 1.3 1.3 1.3h12.6c.7 0 1.3-.6 1.3-1.3V33.3c0-.7-.6-1.3-1.3-1.3zm-12.6.9h12.6c.2 0 .3.1.3.3v12.4-.2h0c-.8-2.1-2-2.2-2.3-2.3-.6-.1-1.3 0-1.7-.2 0 .4-1.2 1.7-1.9 2.4l-.3-1.2c.2-.1.3-.5.3-.7h-1.2c0 .3 0 .6.3.7l-.3 1.2c-.7-.8-1.9-2.1-1.9-2.4-.4.1-1.1 0-1.7.2-.3 0-1.5.2-2.3 2.3h0 0V33.2c0-.2.1-.3.3-.3z"/><use href="#E" x="19.1"/><use href="#I"/><use href="#B" x="38.3"/><path d="M59.7 4.5H47.1c-.7 0-1.3.6-1.3 1.3v13.5c0 .7.6 1.3 1.3 1.3h12.6c.7 0 1.3-.6 1.3-1.3V5.8c0-.7-.6-1.3-1.3-1.3zm-12.6 1h12.6c.2 0 .3.1.3.3v12.4-.2h0c-.8-2.1-2-2.2-2.3-2.3-.6-.1-1.3 0-1.7-.2 0 .4-1.2 1.7-1.9 2.4l-.3-1.2c.2-.1.3-.5.3-.7h-1.2c0 .3 0 .6.3.7l-.3 1.2c-.7-.8-1.9-2.1-1.9-2.4-.4.1-1.1 0-1.7.2-.3 0-1.5.2-2.3 2.3h0 0V5.8c0-.2.1-.3.3-.3z"/><use href="#C" x="38.3"/><use href="#G" x="19.2"/><use href="#D" x="38.3"/><path d="M59.7 32H47.1c-.7 0-1.3.6-1.3 1.3v13.5c0 .7.6 1.3 1.3 1.3h12.6c.7 0 1.3-.6 1.3-1.3V33.3c0-.7-.6-1.3-1.3-1.3zm-12.6.9h12.6c.2 0 .3.1.3.3v12.4-.2h0c-.8-2.1-2-2.2-2.3-2.3-.6-.1-1.3 0-1.7-.2 0 .4-1.2 1.7-1.9 2.4l-.3-1.2c.2-.1.3-.5.3-.7h-1.2c0 .3 0 .6.3.7l-.3 1.2c-.7-.8-1.9-2.1-1.9-2.4-.4.1-1.1 0-1.7.2-.3 0-1.5.2-2.3 2.3h0 0V33.2c0-.2.1-.3.3-.3z"/><use href="#E" x="38.3"/><use href="#I" x="19.1"/><use href="#F" x="38.3"/><path d="M78.9 4.5H66.3c-.7 0-1.3.6-1.3 1.3v13.5c0 .7.6 1.3 1.3 1.3h12.6c.7 0 1.3-.6 1.3-1.3V5.8c0-.7-.6-1.3-1.3-1.3zm-12.7 1h12.6c.2 0 .3.1.3.3v12.4-.2h0c-.8-2.1-2-2.2-2.3-2.3-.6-.1-1.3 0-1.7-.2 0 .4-1.2 1.7-1.9 2.4l-.3-1.2c.2-.1.3-.5.3-.7H72c0 .3 0 .6.3.7l-.3 1.2c-.7-.8-1.9-2.1-1.9-2.4-.4.1-1.1 0-1.7.2-.3 0-1.5.2-2.3 2.3h0 0V5.8c0-.2.1-.3.3-.3z"/><use href="#C" x="57.5"/><use href="#G" x="38.3"/><path d="M78.9 32H66.3c-.7 0-1.3.6-1.3 1.3v13.5c0 .7.6 1.3 1.3 1.3h12.6c.7 0 1.3-.6 1.3-1.3V33.3c0-.7-.6-1.3-1.3-1.3zm-12.7.9h12.6c.2 0 .3.1.3.3v12.4-.2h0c-.8-2.1-2-2.2-2.3-2.3-.6-.1-1.3 0-1.7-.2 0 .4-1.2 1.7-1.9 2.4l-.3-1.2c.2-.1.3-.5.3-.7H72c0 .3 0 .6.3.7l-.3 1.2c-.7-.8-1.9-2.1-1.9-2.4-.4.1-1.1 0-1.7.2-.3 0-1.5.2-2.3 2.3h0 0V33.2c0-.2.1-.3.3-.3z"/><use href="#H" x="38.3"/><use href="#E" x="57.5"/><use href="#I" x="38.3"/></g><defs ><path id="B" d="M11.9 12.7c.3.8.7 1.5 1.3 2.1.3.3.7.6 1 .7s.5.2.8.2.5 0 .8-.2c.4-.2.8-.4 1.1-.7.5-.5 1-1.3 1.3-2 .2 0 .4-.5.5-1 0-.6 0-1-.2-1.1v-.4c0-2-1.2-3.2-3.1-3.3-1.6-.1-2.9.5-3.4 1.6-.2.4-.3.8-.3 1.3v.8h0c-.2 0-.3.6-.2 1.1 0 .5.3 1 .6 1zm0-1.5V11h.1 0c0-.2.2-1.5 1.5-1.4 0 0 1.1.4 2.1 0h.3c.4 0 .7.2 1 .4 0-.1-.1-.3-.1-.4h.1c.2.2.4.6.6 1.3h0 0 .1c.1 0 .2.4.1.8 0 .3-.2.5-.3.6h-.1c-.3.8-.8 1.6-1.4 2.1-.4.3-.8.5-1.2.5s-.8-.2-1.2-.5c-.6-.5-1.1-1.3-1.4-2.1h-.2c-.1-.1-.2-.3-.3-.6v-.5z"/><path id="C" d="M22.6,23.5c0-.6-.4-1-1-1h-13c-.6,0-1,.4-1,1s.4,1,1,1h13c.6,0,1-.4,1-1Z"/><path id="D" d="M11.9 40.2c.3.8.7 1.5 1.3 2.1.3.3.7.6 1 .7s.5.2.8.2.5 0 .8-.2c.4-.2.8-.4 1.1-.7.5-.5 1-1.3 1.3-2 .2 0 .4-.5.5-1 0-.6 0-1-.2-1.1v-.4c0-2-1.2-3.2-3.1-3.3-1.6-.1-2.9.5-3.4 1.6-.2.4-.3.8-.3 1.3v.8h0c-.2 0-.3.6-.2 1.1 0 .5.3 1 .6 1zm0-1.6v-.2h.1 0c0-.2.2-1.5 1.5-1.4 0 0 1.1.4 2.1 0h.3c.4 0 .7.2 1 .4 0-.1-.1-.3-.1-.4h.1c.2.2.4.6.6 1.3h0 0 .1c.1 0 .2.4.1.8 0 .3-.2.5-.3.6h-.1c-.3.8-.8 1.6-1.4 2.1-.4.3-.8.5-1.2.5s-.8-.2-1.2-.5c-.6-.5-1.1-1.3-1.4-2.1h-.2c-.1-.1-.2-.3-.3-.6v-.5z"/><path id="E" d="M21.6,50h-13c-.6,0-1,.4-1,1s.4,1,1,1h13c.6,0,1-.4,1-1s-.4-1-1-1Z"/><path id="F" d="M31 12.7c.3.8.7 1.5 1.3 2.1.3.3.7.6 1 .7s.5.2.8.2.5 0 .8-.2c.4-.2.8-.4 1.1-.7.5-.5 1-1.3 1.3-2 .2 0 .4-.5.5-1 0-.6 0-1-.2-1.1v-.4c0-2-1.2-3.2-3.1-3.3-1.6-.1-2.9.5-3.4 1.6-.2.4-.3.8-.3 1.3v.8h0c-.2 0-.3.6-.2 1.1 0 .5.3 1 .6 1zm.1-1.5V11h.1 0c0-.2.2-1.5 1.5-1.4 0 0 1.1.4 2.1 0h.3c.4 0 .7.2 1 .4 0-.1-.1-.3-.1-.4h.1c.2.2.4.6.6 1.3h0 0 .1c.1 0 .2.4.1.8 0 .3-.2.5-.3.6h-.1c-.3.8-.8 1.6-1.4 2.1-.4.3-.8.5-1.2.5s-.8-.2-1.2-.5c-.6-.5-1.1-1.3-1.4-2.1h-.2c-.1-.1-.2-.3-.3-.6v-.5z"/><path id="G" d="M30.1,26.3c-.5,0-.9.4-.9.9s.4.9.9.9h8.2c.5,0,.9-.4.9-.9s-.4-.9-.9-.9h-8.2Z"/><path id="H" d="M31 40.2c.3.8.7 1.5 1.3 2.1.3.3.7.6 1 .7s.5.2.8.2.5 0 .8-.2c.4-.2.8-.4 1.1-.7.5-.5 1-1.3 1.3-2 .2 0 .4-.5.5-1 0-.6 0-1-.2-1.1v-.4c0-2-1.2-3.2-3.1-3.3-1.6-.1-2.9.5-3.4 1.6-.2.4-.3.8-.3 1.3v.8h0c-.2 0-.3.6-.2 1.1 0 .5.3 1 .6 1zm.1-1.6v-.2h.1 0c0-.2.2-1.5 1.5-1.4 0 0 1.1.4 2.1 0h.3c.4 0 .7.2 1 .4 0-.1-.1-.3-.1-.4h.1c.2.2.4.6.6 1.3h0 0 .1c.1 0 .2.4.1.8 0 .3-.2.5-.3.6h-.1c-.3.8-.8 1.6-1.4 2.1-.4.3-.8.5-1.2.5s-.8-.2-1.2-.5c-.6-.5-1.1-1.3-1.4-2.1h-.2c-.1-.1-.2-.3-.3-.6v-.5z"/><path id="I" d="M38.4,53.7h-8.2c-.5,0-.9.4-.9.9s.4.9.9.9h8.2c.5,0,.9-.4.9-.9s-.4-.9-.9-.9Z"/></defs></svg>