<svg xmlns="http://www.w3.org/2000/svg" viewBox="0 0 88 60" xmlns:v="https://vecta.io/nano"><path d="M85,60H3c-1.7,0-3-1.3-3-3V3C0,1.3,1.3,0,3,0h82c1.7,0,3,1.3,3,3v54c0,1.7-1.3,3-3,3ZM3,1.2c-1,0-1.8.8-1.8,1.8v54c0,1,.8,1.8,1.8,1.8h82c1,0,1.8-.8,1.8-1.8V3c0-1-.8-1.8-1.8-1.8H3Z" fill="#768f9e"/><g fill="#58707f"><path d="M25.7 5.4h-10a.94.94 0 0 0-1 1v4a.94.94 0 0 0 1 1h10a.94.94 0 0 0 1-1v-4a.94.94 0 0 0-1-1zm-2.8 3.5h-4.5a.47.47 0 0 1-.5-.5.47.47 0 0 1 .5-.5h4.5a.47.47 0 0 1 .5.5.47.47 0 0 1-.5.5zm8.8 2.5h20a.94.94 0 0 0 1-1v-4a.94.94 0 0 0-1-1h-20a.94.94 0 0 0-1 1v4a.94.94 0 0 0 1 1zm3.7-3.5h12.5a.47.47 0 0 1 .5.5.47.47 0 0 1-.5.5H35.4a.47.47 0 0 1-.5-.5.47.47 0 0 1 .5-.5zm22.3 3.5h16a.94.94 0 0 0 1-1v-4a.94.94 0 0 0-1-1h-16a.94.94 0 0 0-1 1v4a.94.94 0 0 0 1 1zm2.7-3.5h10.5a.47.47 0 0 1 .5.5.47.47 0 0 1-.5.5H60.4a.47.47 0 0 1-.5-.5.47.47 0 0 1 .5-.5zM12.9 25.5c.3.8.8 1.7 1.3 2.2a4.44 4.44 0 0 0 1.1.8c.3.1.5.2.8.2s.6 0 .8-.2c.4-.2.8-.4 1.1-.8.6-.6 1-1.4 1.3-2.2.2 0 .5-.5.5-1.1.1-.6 0-1.1-.2-1.2v-.5c0-2.2-1.2-3.5-3.2-3.6-1.7-.1-2.9.6-3.5 1.8-.2.4-.3.9-.3 1.4 0 .3-.1.6-.1.9h0c-.2 0-.4.6-.2 1.2 0 .6.3 1 .6 1.1zm0-1.6v-.2h.1 0c0-.2.2-1.6 1.5-1.5 0 0 1.2.5 2.2 0h.3c.4 0 .7.3 1 .4 0-.2-.1-.3-.1-.4h.1c.2.3.4.7.6 1.4h0 0 .1c.1 0 .2.4.1.8 0 .3-.2.6-.3.7h-.1c-.3.9-.8 1.8-1.4 2.3-.4.3-.8.5-1.3.5s-.9-.2-1.2-.5c-.7-.5-1.2-1.4-1.4-2.3h-.2c-.1-.1-.2-.4-.3-.7v-.6zm9.5-7.5H9.8a1.54 1.54 0 0 0-1.5 1.5v15a1.54 1.54 0 0 0 1.5 1.5h12.6a1.54 1.54 0 0 0 1.5-1.5v-15a1.54 1.54 0 0 0-1.5-1.5zm-12.5 1h12.6a.47.47 0 0 1 .5.5v13.6-.1h0c-.8-2.3-2.1-2.4-2.4-2.5-.6-.2-1.4 0-1.8-.2 0 .4-1.2 1.8-1.9 2.7l-.3-1.3c.2-.2.3-.5.3-.8h-1.2c0 .3 0 .6.3.8l-.3 1.3c-.8-.9-1.9-2.2-1.9-2.7-.4.1-1.2 0-1.8.2-.3 0-1.6.2-2.4 2.5V17.9a.47.47 0 0 1 .5-.5zm3 28.1c.3.8.8 1.6 1.3 2.1.3.3.7.6 1.1.7.3.1.5.2.8.2s.6 0 .8-.2c.4-.2.8-.4 1.1-.8.6-.6 1-1.3 1.3-2.1.2 0 .5-.5.5-1 .1-.6 0-1.1-.2-1.2v-.4c0-2.1-1.2-3.3-3.2-3.4-1.7-.1-2.9.6-3.5 1.7-.2.4-.3.8-.3 1.3 0 .3-.1.5-.1.8h0c-.2 0-.4.6-.2 1.2 0 .6.3 1 .6 1zm0-1.5v-.2h.1 0c0-.2.2-1.5 1.5-1.4 0 0 1.2.4 2.2 0h.3c.4 0 .7.2 1 .4 0-.1-.1-.3-.1-.4h.1c.2.2.4.6.6 1.3h0 0 .1c.1 0 .2.4.1.8 0 .3-.2.5-.3.6h-.1c-.3.8-.8 1.7-1.4 2.2-.4.3-.8.5-1.3.5s-.9-.2-1.2-.5c-.7-.5-1.2-1.3-1.4-2.2h-.2c-.1-.1-.2-.3-.3-.6v-.6zm9.5-6.5H9.8A1.54 1.54 0 0 0 8.3 39v13c0 .5.2.9.6 1.2h0c.3.2.6.3.9.3h12.6c.3 0 .7-.1.9-.3h0c.3-.3.6-.7.6-1.2V39a1.54 1.54 0 0 0-1.5-1.5zm-12.5 1h12.6a.47.47 0 0 1 .5.5v12.1-.1h0c-.8-2.2-2.1-2.3-2.4-2.3-.6-.1-1.4 0-1.8-.2 0 .4-1.2 1.7-1.9 2.5l-.3-1.3c.2-.1.3-.5.3-.7h-1.2c0 .3 0 .6.3.7l-.3 1.3c-.8-.8-1.9-2.1-1.9-2.5-.4.1-1.2 0-1.8.2-.3 0-1.6.2-2.4 2.3V39a.47.47 0 0 1 .5-.5zm21.5-14.1c.3.8.8 1.6 1.3 2.1.3.3.7.6 1.1.7.3.1.5.2.8.2s.6 0 .8-.2c.4-.2.8-.4 1.1-.8.6-.6 1-1.3 1.3-2.1.2 0 .5-.5.5-1 .1-.6 0-1.1-.2-1.2v-.4c0-2.1-1.2-3.3-3.2-3.4-1.7-.1-2.9.6-3.5 1.7-.2.4-.3.8-.3 1.3 0 .3-.1.5-.1.8h0c-.2 0-.4.6-.2 1.2 0 .6.3 1 .6 1zm.1-1.5v-.2h.1 0c0-.2.2-1.5 1.5-1.4 0 0 1.2.4 2.2 0h.3c.4 0 .7.2 1 .4 0-.1-.1-.3-.1-.4h.1c.2.2.4.6.6 1.3h0 0 .1c.1 0 .2.4.1.8 0 .3-.2.5-.3.6H37c-.3.8-.8 1.7-1.4 2.2-.4.3-.8.5-1.3.5s-.9-.2-1.2-.5c-.7-.5-1.2-1.3-1.4-2.2h-.2c-.1-.1-.2-.3-.3-.6v-.6zm9.5-6.5H28.4a1.54 1.54 0 0 0-1.5 1.5v13c0 .5.2.9.6 1.2h0c.3.2.6.3.9.3H41c.3 0 .7-.1.9-.3h0c.3-.3.6-.7.6-1.2v-13a1.54 1.54 0 0 0-1.5-1.5zm-12.6 1H41a.47.47 0 0 1 .5.5V30v-.1h0c-.8-2.2-2.1-2.3-2.4-2.3-.6-.1-1.4 0-1.8-.2 0 .4-1.2 1.7-1.9 2.5l-.3-1.3c.2-.1.3-.5.3-.7h-1.2c0 .3 0 .6.3.7l-.3 1.3c-.8-.8-1.9-2.1-1.9-2.5-.4.1-1.2 0-1.8.2-.3 0-1.6.2-2.4 2.3v-12a.47.47 0 0 1 .5-.5zM41 35.5H28.4a1.54 1.54 0 0 0-1.5 1.5v15a1.54 1.54 0 0 0 1.5 1.5H41a1.54 1.54 0 0 0 1.5-1.5V37a1.54 1.54 0 0 0-1.5-1.5zm-12.6 1H41a.47.47 0 0 1 .5.5v13.6-.1h0c-.8-2.3-2.1-2.4-2.4-2.5-.6-.2-1.4 0-1.8-.2 0 .4-1.2 1.8-1.9 2.7l-.3-1.3c.2-.2.3-.5.3-.8h-1.2c0 .3 0 .6.3.8l-.3 1.3c-.8-.9-1.9-2.2-1.9-2.7-.4.1-1.2 0-1.8.2-.3 0-1.6.2-2.4 2.5V37a.47.47 0 0 1 .5-.5zm3 8.2c.3.8.8 1.7 1.3 2.2a4.44 4.44 0 0 0 1.1.8c.3.1.5.2.8.2s.6 0 .8-.2c.4-.2.8-.4 1.1-.8.6-.6 1-1.4 1.3-2.2.2 0 .5-.5.5-1.1.1-.6 0-1.1-.2-1.2v-.5c0-2.2-1.2-3.5-3.2-3.6-1.7-.1-2.9.6-3.5 1.8-.2.4-.3.9-.3 1.4 0 .3-.1.6-.1.9h0c-.2 0-.4.6-.2 1.2 0 .6.3 1 .6 1.1zm.1-1.7v-.2h.1 0c0-.2.2-1.6 1.5-1.5 0 0 1.2.5 2.2 0h.3c.4 0 .7.3 1 .4 0-.2-.1-.3-.1-.4h.1c.2.3.4.7.6 1.4h0 0 .1c.1 0 .2.4.1.8 0 .3-.2.6-.3.7H37c-.3.9-.8 1.8-1.4 2.3-.4.3-.8.5-1.3.5s-.9-.2-1.2-.5c-.7-.5-1.2-1.4-1.4-2.3h-.2c-.1-.1-.2-.4-.3-.7v-.6zm28.1-26.6H47a1.54 1.54 0 0 0-1.5 1.5v15a1.54 1.54 0 0 0 1.5 1.5h12.6a1.54 1.54 0 0 0 1.5-1.5v-15a1.54 1.54 0 0 0-1.5-1.5zm-12.6 1h12.6a.47.47 0 0 1 .5.5v13.6-.1h0c-.8-2.3-2.1-2.4-2.4-2.5-.6-.2-1.4 0-1.8-.2 0 .4-1.2 1.8-1.9 2.7l-.3-1.3c.2-.2.3-.5.3-.8h-1.2c0 .3 0 .6.3.8l-.3 1.3c-.8-.9-1.9-2.2-1.9-2.7-.4.1-1.2 0-1.8.2-.3 0-1.6.2-2.4 2.5V17.9a.47.47 0 0 1 .5-.5zm3 8.1c.3.8.8 1.7 1.3 2.2a4.44 4.44 0 0 0 1.1.8c.3.1.5.2.8.2s.6 0 .8-.2c.4-.2.8-.4 1.1-.8.6-.6 1-1.4 1.3-2.2.2 0 .5-.5.5-1.1.1-.6 0-1.1-.2-1.2v-.5c0-2.2-1.2-3.5-3.2-3.6-1.7-.1-2.9.6-3.5 1.8-.2.4-.3.9-.3 1.4 0 .3-.1.6-.1.9h0c-.2 0-.4.6-.2 1.2 0 .6.3 1 .6 1.1zm0-1.6v-.2h.1 0c0-.2.2-1.6 1.5-1.5 0 0 1.2.5 2.2 0h.3c.4 0 .7.3 1 .4 0-.2-.1-.3-.1-.4h.1c.2.3.4.7.6 1.4h0 0 .1c.1 0 .2.4.1.8 0 .3-.2.6-.3.7h-.1c-.3.9-.8 1.8-1.4 2.3-.4.3-.8.5-1.3.5s-.9-.2-1.2-.5c-.7-.5-1.2-1.4-1.4-2.3H50c-.1-.1-.2-.4-.3-.7v-.6zm0 21.6c.3.8.8 1.6 1.3 2.1.3.3.7.6 1.1.7.3.1.5.2.8.2s.6 0 .8-.2c.4-.2.8-.4 1.1-.8.6-.6 1-1.3 1.3-2.1.2 0 .5-.5.5-1 .1-.6 0-1.1-.2-1.2v-.4c0-2.1-1.2-3.3-3.2-3.4-1.7-.1-2.9.6-3.5 1.7-.2.4-.3.8-.3 1.3 0 .3-.1.5-.1.8h0c-.2 0-.4.6-.2 1.2 0 .6.3 1 .6 1zm0-1.5v-.2h.1 0c0-.2.2-1.5 1.5-1.4 0 0 1.2.4 2.2 0h.3c.4 0 .7.2 1 .4 0-.1-.1-.3-.1-.4h.1c.2.2.4.6.6 1.3h0 0 .1c.1 0 .2.4.1.8 0 .3-.2.5-.3.6h-.1c-.3.8-.8 1.7-1.4 2.2-.4.3-.8.5-1.3.5s-.9-.2-1.2-.5c-.7-.5-1.2-1.3-1.4-2.2H50c-.1-.1-.2-.3-.3-.6v-.6zm9.6-6.5H47a1.54 1.54 0 0 0-1.5 1.5v13c0 .5.2.9.6 1.2h0c.3.2.6.3.9.3h12.6c.3 0 .7-.1.9-.3h0c.3-.3.6-.7.6-1.2V39a1.54 1.54 0 0 0-1.5-1.5zm-12.6 1h12.6a.47.47 0 0 1 .5.5v12.1-.1h0c-.8-2.2-2.1-2.3-2.4-2.3-.6-.1-1.4 0-1.8-.2 0 .4-1.2 1.7-1.9 2.5l-.3-1.3c.2-.1.3-.5.3-.7h-1.2c0 .3 0 .6.3.7l-.3 1.3c-.8-.8-1.9-2.1-1.9-2.5-.4.1-1.2 0-1.8.2-.3 0-1.6.2-2.4 2.3V39a.47.47 0 0 1 .5-.5zm21.5-14.1c.3.8.8 1.6 1.3 2.1.3.3.7.6 1.1.7.3.1.5.2.8.2s.6 0 .8-.2c.4-.2.8-.4 1.1-.8.6-.6 1-1.3 1.3-2.1.2 0 .5-.5.5-1 .1-.6 0-1.1-.2-1.2v-.4c0-2.1-1.2-3.3-3.2-3.4-1.7-.1-2.9.6-3.5 1.7-.2.4-.3.8-.3 1.3 0 .3-.1.5-.1.8h0c-.2 0-.4.6-.2 1.2 0 .6.3 1 .6 1zm.1-1.5v-.2h.1 0c0-.2.2-1.5 1.5-1.4 0 0 1.2.4 2.2 0h.3c.4 0 .7.2 1 .4 0-.1-.1-.3-.1-.4h.1c.2.2.4.6.6 1.3h0 0 .1c.1 0 .2.4.1.8 0 .3-.2.5-.3.6h-.1c-.3.8-.8 1.7-1.4 2.2-.4.3-.8.5-1.3.5s-.9-.2-1.2-.5c-.7-.5-1.2-1.3-1.4-2.2h-.2c-.1-.1-.2-.3-.3-.6v-.6z"/><path d="M78.1 16.4H65.5a1.54 1.54 0 0 0-1.5 1.5v13c0 .5.2.9.6 1.2h0c.3.2.6.3.9.3h12.6c.3 0 .7-.1.9-.3h0c.3-.3.6-.7.6-1.2v-13a1.54 1.54 0 0 0-1.5-1.5zm-12.5 1h12.6a.47.47 0 0 1 .5.5V30v-.1h0c-.8-2.2-2.1-2.3-2.4-2.3-.6-.1-1.4 0-1.8-.2 0 .4-1.2 1.7-1.9 2.5l-.3-1.3c.2-.1.3-.5.3-.7h-1.2c0 .3 0 .6.3.7l-.3 1.3c-.8-.8-1.9-2.1-1.9-2.5-.4.1-1.2 0-1.8.2-.3 0-1.6.2-2.4 2.3v-12a.47.47 0 0 1 .5-.5zm2.9 27.3c.3.8.8 1.7 1.3 2.2a4.44 4.44 0 0 0 1.1.8c.3.1.5.2.8.2s.6 0 .8-.2c.4-.2.8-.4 1.1-.8.6-.6 1-1.4 1.3-2.2.2 0 .5-.5.5-1.1.1-.6 0-1.1-.2-1.2v-.5c0-2.2-1.2-3.5-3.2-3.6-1.7-.1-2.9.6-3.5 1.8-.2.4-.3.9-.3 1.4 0 .3-.1.6-.1.9h0c-.2 0-.4.6-.2 1.2 0 .6.3 1 .6 1.1zm.1-1.7v-.2h.1 0c0-.2.2-1.6 1.5-1.5 0 0 1.2.5 2.2 0h.3c.4 0 .7.3 1 .4 0-.2-.1-.3-.1-.4h.1c.2.3.4.7.6 1.4h0 0 .1c.1 0 .2.4.1.8 0 .3-.2.6-.3.7h-.1c-.3.9-.8 1.8-1.4 2.3-.4.3-.8.5-1.3.5s-.9-.2-1.2-.5c-.7-.5-1.2-1.4-1.4-2.3h-.2c-.1-.1-.2-.4-.3-.7v-.6z"/><path d="M78.1,35.5h-12.6c-.8,0-1.5.7-1.5,1.5v15c0,.8.7,1.5,1.5,1.5h12.6c.8,0,1.5-.7,1.5-1.5v-15c0-.8-.7-1.5-1.5-1.5ZM65.6,36.5h12.6c.3,0,.5.2.5.5v13.6s0,0,0-.1h0c-.8-2.3-2.1-2.4-2.4-2.5-.6-.2-1.4,0-1.8-.2,0,.4-1.2,1.8-1.9,2.7l-.3-1.3c.2-.2.3-.5.3-.8h-1.2c0,.3,0,.6.3.8l-.3,1.3c-.8-.9-1.9-2.2-1.9-2.7-.4.1-1.2,0-1.8.2-.3,0-1.6.2-2.4,2.5v-13.5c0-.3.2-.5.5-.5Z"/></g></svg>