<svg xmlns="http://www.w3.org/2000/svg" viewBox="0 0 88 60" xmlns:v="https://vecta.io/nano"><path d="M85,60H3C1.3,60,0,58.7,0,57V3C0,1.3,1.3,0,3,0h82c1.7,0,3,1.3,3,3v54c0,1.7-1.3,3-3,3ZM3,1.2c-1,0-1.8.8-1.8,1.8v54c0,1,.8,1.8,1.8,1.8h82c1,0,1.8-.8,1.8-1.8V3c0-1-.8-1.8-1.8-1.8H3Z" fill="#768f9e"/><path d="M12.8 25.4c.3.8.8 1.6 1.3 2.1.3.3.7.6 1.1.7.3.1.5.2.8.2s.6 0 .8-.2c.4-.2.8-.4 1.1-.8.6-.6 1-1.3 1.3-2.1.2 0 .5-.5.5-1 .1-.6 0-1.1-.2-1.2v-.4c0-2.1-1.2-3.3-3.2-3.4-1.7-.1-2.9.6-3.5 1.7-.2.4-.3.8-.3 1.3 0 .3-.1.5-.1.8h0c-.2 0-.4.6-.2 1.2 0 .6.3 1 .6 1zm.1-1.6v-.2h.1 0c0-.2.2-1.5 1.5-1.4 0 0 1.2.4 2.2 0h.3c.4 0 .7.2 1 .4 0-.1-.1-.3-.1-.4h.1c.2.2.4.6.6 1.3h0 0 .1c.1 0 .2.4.1.8 0 .3-.2.5-.3.6h-.1c-.3.8-.8 1.7-1.4 2.2-.4.3-.8.5-1.3.5s-.9-.2-1.2-.5c-.7-.5-1.2-1.3-1.4-2.2h-.2c-.1-.1-.2-.3-.3-.6v-.6zm9.5-6.8H9.8a1.54 1.54 0 0 0-1.5 1.5V32a1.54 1.54 0 0 0 1.5 1.5h12.6a1.54 1.54 0 0 0 1.5-1.5V18.5a1.54 1.54 0 0 0-1.5-1.5zM9.8 18.1h12.6c.2 0 .4.2.4.4v12.2c-.8-2-2-2.1-2.3-2.2-.6-.1-1.4 0-1.8-.2 0 .4-1.2 1.7-1.9 2.5l-.3-1.3c.2-.1.3-.5.3-.7h-1.2c0 .3 0 .6.3.7l-.3 1.3c-.8-.8-1.9-2.1-1.9-2.5-.4.1-1.2 0-1.8.2-.3 0-1.4.2-2.3 2.1V18.5c0-.2.2-.4.4-.4zm3 26.8c.3.8.8 1.6 1.3 2.1.3.3.7.6 1.1.7.3.1.5.2.8.2s.6 0 .8-.2c.4-.2.8-.4 1.1-.8.6-.6 1-1.3 1.3-2.1.2 0 .5-.5.5-1 .1-.6 0-1.1-.2-1.2v-.4c0-2.1-1.2-3.3-3.2-3.4-1.7-.1-2.9.6-3.5 1.7-.2.4-.3.8-.3 1.3 0 .3-.1.5-.1.8h0c-.2 0-.4.6-.2 1.2 0 .6.3 1 .6 1zm.1-1.5v-.2h.1 0c0-.2.2-1.5 1.5-1.4 0 0 1.2.4 2.2 0h.3c.4 0 .7.2 1 .4 0-.1-.1-.3-.1-.4h.1c.2.2.4.6.6 1.3h0 0 .1c.1 0 .2.4.1.8 0 .3-.2.5-.3.6h-.1c-.3.8-.8 1.7-1.4 2.2-.4.3-.8.5-1.3.5s-.9-.2-1.2-.5c-.7-.5-1.2-1.3-1.4-2.2h-.2c-.1-.1-.2-.3-.3-.6v-.6zm9.5-6.8H9.8a1.54 1.54 0 0 0-1.5 1.5v13.5a1.54 1.54 0 0 0 1.5 1.5h12.6a1.54 1.54 0 0 0 1.5-1.5V38.1a1.54 1.54 0 0 0-1.5-1.5zm-12.6 1h12.6a.47.47 0 0 1 .5.5v12.5-.1h0c-.8-2.2-2.1-2.3-2.4-2.3-.6-.1-1.4 0-1.8-.2 0 .4-1.2 1.7-1.9 2.5l-.3-1.3c.2-.1.3-.5.3-.7h-1.2c0 .3 0 .6.3.7l-.3 1.3c-.8-.8-1.9-2.1-1.9-2.5-.4.1-1.2 0-1.8.2-.3 0-1.6.2-2.4 2.3V38.2a.47.47 0 0 1 .5-.5zm21.6-12.2c.3.8.8 1.6 1.3 2.1.3.3.7.6 1.1.7.3.1.5.2.8.2s.6 0 .8-.2c.4-.2.8-.4 1.1-.8.6-.6 1-1.3 1.3-2.1.2 0 .5-.5.5-1 .1-.6 0-1.1-.2-1.2v-.4c0-2.1-1.2-3.3-3.2-3.4-1.7-.1-2.9.6-3.5 1.7-.2.4-.3.8-.3 1.3 0 .3-.1.5-.1.8h0c-.2 0-.4.6-.2 1.2 0 .6.3 1 .6 1zm.1-1.6v-.2h.1 0c0-.2.2-1.5 1.5-1.4 0 0 1.2.4 2.2 0h.3c.4 0 .7.2 1 .4 0-.1-.1-.3-.1-.4h.1c.2.2.4.6.6 1.3h0 0 .1c.1 0 .2.4.1.8 0 .3-.2.5-.3.6H37c-.3.8-.8 1.7-1.4 2.2-.4.3-.8.5-1.3.5s-.9-.2-1.2-.5c-.7-.5-1.2-1.3-1.4-2.2h-.2c-.1-.1-.2-.3-.3-.6v-.6zM41 17H28.4a1.54 1.54 0 0 0-1.5 1.5V32a1.54 1.54 0 0 0 1.5 1.5H41a1.54 1.54 0 0 0 1.5-1.5V18.5A1.54 1.54 0 0 0 41 17zm-12.6 1H41a.47.47 0 0 1 .5.5V31v-.1h0c-.8-2.2-2.1-2.3-2.4-2.3-.6-.1-1.4 0-1.8-.2 0 .4-1.2 1.7-1.9 2.5l-.3-1.3c.2-.1.3-.5.3-.7h-1.2c0 .3 0 .6.3.7l-.3 1.3c-.8-.8-1.9-2.1-1.9-2.5-.4.1-1.2 0-1.8.2-.3 0-1.6.2-2.4 2.3V18.6a.47.47 0 0 1 .5-.5zm3 26.9c.3.8.8 1.6 1.3 2.1.3.3.7.6 1.1.7.3.1.5.2.8.2s.6 0 .8-.2c.4-.2.8-.4 1.1-.8.6-.6 1-1.3 1.3-2.1.2 0 .5-.5.5-1 .1-.6 0-1.1-.2-1.2v-.4c0-2.1-1.2-3.3-3.2-3.4-1.7-.1-2.9.6-3.5 1.7-.2.4-.3.8-.3 1.3 0 .3-.1.5-.1.8h0c-.2 0-.4.6-.2 1.2 0 .6.3 1 .6 1zm.1-1.5v-.2h.1 0c0-.2.2-1.5 1.5-1.4 0 0 1.2.4 2.2 0h.3c.4 0 .7.2 1 .4 0-.1-.1-.3-.1-.4h.1c.2.2.4.6.6 1.3h0 0 .1c.1 0 .2.4.1.8 0 .3-.2.5-.3.6H37c-.3.8-.8 1.7-1.4 2.2-.4.3-.8.5-1.3.5s-.9-.2-1.2-.5c-.7-.5-1.2-1.3-1.4-2.2h-.2c-.1-.1-.2-.3-.3-.6v-.6zm9.5-6.8H28.4a1.54 1.54 0 0 0-1.5 1.5v13.5a1.54 1.54 0 0 0 1.5 1.5H41a1.54 1.54 0 0 0 1.5-1.5V38.1a1.54 1.54 0 0 0-1.5-1.5zm-12.6 1H41a.47.47 0 0 1 .5.5v12.5h0c-.8-2.2-2.1-2.3-2.4-2.3-.6-.1-1.4 0-1.8-.2 0 .4-1.2 1.7-1.9 2.5l-.3-1.3c.2-.1.3-.5.3-.7h-1.2c0 .3 0 .6.3.7l-.3 1.3c-.8-.8-1.9-2.1-1.9-2.5-.4.1-1.2 0-1.8.2-.3 0-1.6.2-2.4 2.3V38.3a.47.47 0 0 1 .5-.5zM50 25.4c.3.8.8 1.6 1.3 2.1.3.3.7.6 1.1.7.3.1.5.2.8.2s.6 0 .8-.2c.4-.2.8-.4 1.1-.8.6-.6 1-1.3 1.3-2.1.2 0 .5-.5.5-1 .1-.6 0-1.1-.2-1.2v-.4c0-2.1-1.2-3.3-3.2-3.4-1.7-.1-2.9.6-3.5 1.7-.2.4-.3.8-.3 1.3 0 .3-.1.5-.1.8h0c-.2 0-.4.6-.2 1.2 0 .6.3 1 .6 1zm0-1.6v-.2h.1 0c0-.2.2-1.5 1.5-1.4 0 0 1.2.4 2.2 0h.3c.4 0 .7.2 1 .4 0-.1-.1-.3-.1-.4h.1c.2.2.4.6.6 1.3h0 0 .1c.1 0 .2.4.1.8 0 .3-.2.5-.3.6h-.1c-.3.8-.8 1.7-1.4 2.2-.4.3-.8.5-1.3.5s-.9-.2-1.2-.5c-.7-.5-1.2-1.3-1.4-2.2H50c-.1-.1-.2-.3-.3-.6v-.6zm9.6-6.8H47a1.54 1.54 0 0 0-1.5 1.5V32a1.54 1.54 0 0 0 1.5 1.5h12.6a1.54 1.54 0 0 0 1.5-1.5V18.5a1.54 1.54 0 0 0-1.5-1.5zM47 18h12.6a.47.47 0 0 1 .5.5V31h0c-.8-2.2-2.1-2.3-2.4-2.3-.6-.1-1.4 0-1.8-.2 0 .4-1.2 1.7-1.9 2.5l-.3-1.3c.2-.1.3-.5.3-.7h-1.2c0 .3 0 .6.3.7l-.3 1.3c-.8-.8-1.9-2.1-1.9-2.5-.4.1-1.2 0-1.8.2-.3 0-1.6.2-2.4 2.3V18.7a.47.47 0 0 1 .5-.5zm3 26.9c.3.8.8 1.6 1.3 2.1.3.3.7.6 1.1.7.3.1.5.2.8.2s.6 0 .8-.2c.4-.2.8-.4 1.1-.8.6-.6 1-1.3 1.3-2.1.2 0 .5-.5.5-1 .1-.6 0-1.1-.2-1.2v-.4c0-2.1-1.2-3.3-3.2-3.4-1.7-.1-2.9.6-3.5 1.7-.2.4-.3.8-.3 1.3 0 .3-.1.5-.1.8h0c-.2 0-.4.6-.2 1.2 0 .6.3 1 .6 1zm0-1.5v-.2h.1 0c0-.2.2-1.5 1.5-1.4 0 0 1.2.4 2.2 0h.3c.4 0 .7.2 1 .4 0-.1-.1-.3-.1-.4h.1c.2.2.4.6.6 1.3h0 0 .1c.1 0 .2.4.1.8 0 .3-.2.5-.3.6h-.1c-.3.8-.8 1.7-1.4 2.2-.4.3-.8.5-1.3.5s-.9-.2-1.2-.5c-.7-.5-1.2-1.3-1.4-2.2H50c-.1-.1-.2-.3-.3-.6v-.6zm9.6-6.8H47a1.54 1.54 0 0 0-1.5 1.5v13.5a1.54 1.54 0 0 0 1.5 1.5h12.6a1.54 1.54 0 0 0 1.5-1.5V38.1a1.54 1.54 0 0 0-1.5-1.5zm-12.6 1h12.6a.47.47 0 0 1 .5.5v12.5h0c-.8-2.2-2.1-2.3-2.4-2.3-.6-.1-1.4 0-1.8-.2 0 .4-1.2 1.7-1.9 2.5l-.3-1.3c.2-.1.3-.5.3-.7h-1.2c0 .3 0 .6.3.7l-.3 1.3c-.8-.8-1.9-2.1-1.9-2.5-.4.1-1.2 0-1.8.2-.3 0-1.6.2-2.4 2.3V38.3a.47.47 0 0 1 .5-.5zm21.6-12.2c.3.8.8 1.6 1.3 2.1.3.3.7.6 1.1.7.3.1.5.2.8.2s.6 0 .8-.2c.4-.2.8-.4 1.1-.8.6-.6 1-1.3 1.3-2.1.2 0 .5-.5.5-1 .1-.6 0-1.1-.2-1.2v-.4c0-2.1-1.2-3.3-3.2-3.4-1.7-.1-2.9.6-3.5 1.7-.2.4-.3.8-.3 1.3 0 .3-.1.5-.1.8h0c-.2 0-.4.6-.2 1.2 0 .6.3 1 .6 1zm0-1.6v-.2h.1 0c0-.2.2-1.5 1.5-1.4 0 0 1.2.4 2.2 0h.3c.4 0 .7.2 1 .4 0-.1-.1-.3-.1-.4h.1c.2.2.4.6.6 1.3h0 0 .1c.1 0 .2.4.1.8 0 .3-.2.5-.3.6h-.1c-.3.8-.8 1.7-1.4 2.2-.4.3-.8.5-1.3.5s-.9-.2-1.2-.5c-.7-.5-1.2-1.3-1.4-2.2h-.2c-.1-.1-.2-.3-.3-.6v-.6zm9.6-6.8H65.6a1.54 1.54 0 0 0-1.5 1.5V32a1.54 1.54 0 0 0 1.5 1.5h12.6a1.54 1.54 0 0 0 1.5-1.5V18.5a1.54 1.54 0 0 0-1.5-1.5zm-12.6 1h12.6a.47.47 0 0 1 .5.5V31h0c-.8-2.2-2.1-2.3-2.4-2.3-.6-.1-1.4 0-1.8-.2 0 .4-1.2 1.7-1.9 2.5l-.3-1.3c.2-.1.3-.5.3-.7h-1.2c0 .3 0 .6.3.7l-.3 1.3c-.8-.8-1.9-2.1-1.9-2.5-.4.1-1.2 0-1.8.2-.3 0-1.6.2-2.4 2.3V18.7a.47.47 0 0 1 .5-.5zm3 26.9c.3.8.8 1.6 1.3 2.1.3.3.7.6 1.1.7.3.1.5.2.8.2s.6 0 .8-.2c.4-.2.8-.4 1.1-.8.6-.6 1-1.3 1.3-2.1.2 0 .5-.5.5-1 .1-.6 0-1.1-.2-1.2v-.4c0-2.1-1.2-3.3-3.2-3.4-1.7-.1-2.9.6-3.5 1.7-.2.4-.3.8-.3 1.3 0 .3-.1.5-.1.8h0c-.2 0-.4.6-.2 1.2 0 .6.3 1 .6 1zm0-1.5v-.2h.1 0c0-.2.2-1.5 1.5-1.4 0 0 1.2.4 2.2 0h.3c.4 0 .7.2 1 .4 0-.1-.1-.3-.1-.4h.1c.2.2.4.6.6 1.3h0 0 .1c.1 0 .2.4.1.8 0 .3-.2.5-.3.6h-.1c-.3.8-.8 1.7-1.4 2.2-.4.3-.8.5-1.3.5s-.9-.2-1.2-.5c-.7-.5-1.2-1.3-1.4-2.2h-.2c-.1-.1-.2-.3-.3-.6v-.6zm9.6-6.8H65.6a1.54 1.54 0 0 0-1.5 1.5v13.5a1.54 1.54 0 0 0 1.5 1.5h12.6a1.54 1.54 0 0 0 1.5-1.5V38.1a1.54 1.54 0 0 0-1.5-1.5zm-12.6 1h12.6a.47.47 0 0 1 .5.5v12.5h0c-.8-2.2-2.1-2.3-2.4-2.3-.6-.1-1.4 0-1.8-.2 0 .4-1.2 1.7-1.9 2.5l-.3-1.3c.2-.1.3-.5.3-.7h-1.2c0 .3 0 .6.3.7l-.3 1.3c-.8-.8-1.9-2.1-1.9-2.5-.4.1-1.2 0-1.8.2-.3 0-1.6.2-2.4 2.3V38.3a.47.47 0 0 1 .5-.5zM25 7H15c-.6 0-1 .5-1 1v4c0 .5.4 1 1 1h10a1.08 1.08 0 0 0 1-1V8a1.08 1.08 0 0 0-1-1zm-2.7 3.8h-4.5c-.4 0-.8-.3-.8-.8s.3-.8.8-.8h4.5c.4 0 .8.3.8.8s-.3.8-.8.8zM31 13h20a1.08 1.08 0 0 0 1-1V8a1.08 1.08 0 0 0-1-1H31c-.6 0-1 .5-1 1v4c0 .5.4 1 1 1zm3.8-3.7h12.5c.4 0 .8.3.8.8s-.3.8-.8.8H34.8c-.4 0-.8-.3-.8-.8s.3-.8.8-.8zM57 13h16a1.08 1.08 0 0 0 1-1V8a1.08 1.08 0 0 0-1-1H57c-.6 0-1 .5-1 1v4c0 .5.4 1 1 1zm2.8-3.7h10.5c.4 0 .8.3.8.8s-.3.8-.8.8H59.8c-.4 0-.8-.3-.8-.8s.3-.8.8-.8z" fill="#58707f"/></svg>