<svg xmlns="http://www.w3.org/2000/svg" viewBox="0 0 88 60" xmlns:v="https://vecta.io/nano"><path d="M85,60H3c-1.7,0-3-1.3-3-3V3C0,1.3,1.3,0,3,0h82c1.7,0,3,1.3,3,3v54c0,1.7-1.3,3-3,3ZM3,1.2c-1,0-1.8.8-1.8,1.8v54c0,1,.8,1.8,1.8,1.8h82c1,0,1.8-.8,1.8-1.8V3c0-1-.8-1.8-1.8-1.8H3Z" fill="#768f9e"/><g fill="#58707f"><rect x="36.4" y="8.3" width="21.1" height="1.9" rx=".9"/><path d="M47.6,11.7h9.4c.3,0,.6.3.6.6h0c0,.3-.3.6-.6.6h-9.4c-.3,0-.6-.3-.6-.6h0c0-.3.3-.6.6-.6Z"/><rect x="7" y="15.1" width="50.6" height="1.3" rx=".7"/><rect x="24.4" y="17.9" width="33.2" height="1.3" rx=".7"/><path d="M45 21.5h-3.6c-.1 0-.3 0-.3.1 0 0-.1.2-.1.3v3.6c0 .1 0 .3.1.3 0 0 .2.1.3.1h1.4v-1.5h-.6v-.7h.6v-.6c0-.6.4-1 .9-1h.6v.6H44c-.3 0-.4.2-.4.4v.5h.7v.7h-.7v1.5H45c.1 0 .3 0 .3-.1 0 0 .1-.2.1-.3v-3.6c0-.1 0-.3-.1-.3 0 0-.2-.1-.3-.1zm6.1 0h-3.6a.47.47 0 0 0-.5.5v3.6a.47.47 0 0 0 .5.5h3.6a.47.47 0 0 0 .5-.5V22a.47.47 0 0 0-.5-.5zm-.5 1.6c0 .9-.7 1.9-1.9 1.9s-.7-.1-1-.3h.2c.3 0 .6-.1.8-.3-.3 0-.5-.2-.6-.5h.3c-.3 0-.5-.3-.5-.7h0 .3s-.2-.1-.2-.2v-.3-.3a1.75 1.75 0 0 0 1.4.7c0-.4.2-.8.6-.8s.4 0 .5.2c.1 0 .3 0 .4-.2 0 .2-.2.3-.3.4.1 0 .3 0 .4-.1 0 .1-.2.2-.3.3zm6.7-1.6h-3.9c-.2 0-.3.1-.3.3v3.9c0 .2.1.3.3.3h3.9c.2 0 .3-.1.3-.3v-3.9c0-.2-.1-.3-.3-.3zm-2.9 3.9h-.7v-2.2h.7v2.2h0zm-.3-2.5c-.2 0-.4-.2-.4-.4s.2-.4.4-.4.4.2.4.4-.2.4-.4.4zm2.8 2.5h-.7v-1.1c0-.3 0-.6-.3-.6s-.4.3-.4.6v1.1h-.7v-2.2h.6v.3h0c0-.2.3-.3.6-.3.7 0 .8.4.8 1v1.2zm18.3-10.8V14c0-2.7-1.6-4.2-4.1-4.4-2.2-.1-3.8.7-4.6 2.1-.3.5-.4 1.1-.4 1.7 0 .3-.1.7-.1 1.1h0c-.3 0-.5.7-.3 1.5.1.7.5 1.3.8 1.3.4 1 1 2 1.7 2.7.4.4.9.7 1.4.9.3.1.7.2 1.1.2s.7 0 1.1-.2c.5-.2 1-.5 1.4-1 .7-.7 1.3-1.7 1.7-2.7.3 0 .6-.6.7-1.3s0-1.4-.3-1.5zm-.5 1.6c0 .4-.2.7-.4.8h-.2c-.3 1.1-1 2.1-1.8 2.8-.5.4-1 .6-1.6.6s-1.1-.2-1.6-.6c-.8-.6-1.5-1.7-1.9-2.8H67c-.1-.1-.3-.4-.3-.8v-.7s0-.2.1-.2h.2 0c0-.2.3-2 2-1.8 0 0 1.5.5 2.8 0h.4c.6 0 .9.3 1.4.5 0-.2-.2-.4-.2-.5h.2c.3.3.6.8.8 1.7h0 0 .2c.2 0 .3.5.2 1z"/><use href="#B"/><path d="M79.8 27.7H61.6c-.5 0-1-.4-1-1V7.6c0-.5.4-1 1-1h18.2c.5 0 1 .4 1 1v19.2c0 .5-.4 1-1 1zM61.6 7.2c-.2 0-.4.2-.4.4v19.2c0 .2.2.4.4.4h18.2c.2 0 .4-.2.4-.4V7.6c0-.2-.2-.4-.4-.4H61.6z"/><rect x="36.4" y="34" width="21.1" height="1.9" rx=".9"/><path d="M47.6,37.4h9.4c.3,0,.6.3.6.6h0c0,.3-.3.6-.6.6h-9.4c-.3,0-.6-.3-.6-.6h0c0-.3.3-.6.6-.6Z"/><rect x="7" y="40.8" width="50.6" height="1.3" rx=".7"/><rect x="24.4" y="43.6" width="33.2" height="1.3" rx=".7"/><path d="M45 47.2h-3.6c-.1 0-.3 0-.3.1s-.1.2-.1.3v3.6c0 .1 0 .3.1.3s.2.1.3.1h1.4v-1.5h-.6v-.7h.6v-.6c0-.6.4-1 .9-1h.6v.6H44c-.3 0-.4.2-.4.4v.5h.7v.7h-.7v1.5H45c.1 0 .3 0 .3-.1s.1-.2.1-.3v-3.6c0-.1 0-.3-.1-.3s-.2-.1-.3-.1zm6.1 0h-3.6a.47.47 0 0 0-.5.5v3.6a.47.47 0 0 0 .5.5h3.6a.47.47 0 0 0 .5-.5v-3.6a.47.47 0 0 0-.5-.5zm-.5 1.6c0 .9-.7 1.9-1.9 1.9s-.7-.1-1-.3h.2c.3 0 .6-.1.8-.3-.3 0-.5-.2-.6-.5h.3c-.3 0-.5-.3-.5-.7h0 .3s-.2-.1-.2-.2v-.3-.3a1.75 1.75 0 0 0 1.4.7c0-.5.2-.8.6-.8s.4 0 .5.2c.1 0 .3 0 .4-.2 0 .2-.2.3-.3.4.1 0 .3 0 .4-.1 0 .1-.2.2-.3.3zm6.7-1.6h-3.9c-.2 0-.3.1-.3.3v3.9c0 .2.1.3.3.3h3.9c.2 0 .3-.1.3-.3v-3.9c0-.2-.1-.3-.3-.3zm-2.9 3.9h-.7v-2.2h.7v2.2h0zm-.3-2.5c-.2 0-.4-.2-.4-.4s.2-.4.4-.4.4.2.4.4-.2.4-.4.4zm2.8 2.5h-.7V50c0-.3 0-.6-.3-.6s-.4.3-.4.6v1.1h-.7v-2.2h.6v.3h0c0-.2.3-.3.6-.3.7 0 .8.4.8 1v1.2zm18.3-10.8v-.6c0-2.7-1.6-4.2-4.1-4.4-2.2-.1-3.8.7-4.6 2.1-.3.5-.4 1.1-.4 1.7 0 .3-.1.7-.1 1.1h0c-.3 0-.5.7-.3 1.5.1.7.5 1.3.8 1.3.4 1 1 2 1.7 2.7.4.4.9.7 1.4.9.3.1.7.2 1.1.2s.7 0 1.1-.2c.5-.2 1-.5 1.4-1 .7-.7 1.3-1.7 1.7-2.7.3 0 .6-.6.7-1.3s0-1.4-.3-1.5zm-.5 1.5c0 .4-.2.7-.4.8h-.2c-.3 1.1-1 2.1-1.8 2.8-.5.4-1 .6-1.6.6s-1.1-.2-1.6-.6c-.8-.6-1.5-1.7-1.9-2.8H67c-.1-.1-.3-.4-.3-.8v-.7s0-.2.1-.2h.2 0c0-.2.3-2 2-1.8 0 0 1.5.5 2.8 0h.4c.6 0 .9.3 1.4.5 0-.2-.2-.4-.2-.5h.2c.3.3.6.8.8 1.7h0 0 .2c.2 0 .3.5.2 1z"/><use href="#B" y="25.7"/><path d="M79.8 53.4H61.6c-.5 0-1-.4-1-1V33.2c0-.5.4-1 1-1h18.2c.5 0 1 .4 1 1v19.2c0 .5-.4 1-1 1zM61.6 32.8c-.2 0-.4.2-.4.4v19.2c0 .2.2.4.4.4h18.2c.2 0 .4-.2.4-.4V33.2c0-.2-.2-.4-.4-.4H61.6z"/></g><defs ><path id="B" d="M80 27.2H61.3c0-.8.2-1.6.4-2.4v-.2-.2h0c1.1-2.8 2.7-2.9 3.1-3 .8-.2 1.8-.1 2.3-.3 0 .5 1.5 2.2 2.5 3.2l.4-1.6c-.3-.2-.4-.6-.4-.9h1.6c0 .3 0 .8-.4.9l.4 1.6c1-1 2.5-2.7 2.5-3.2.5.2 1.5 0 2.3.3.4 0 2 .2 3.1 3h0v.2h0v.2c.2.7.3 1.4.4 2.1v.3z"/></defs></svg>