<svg xmlns="http://www.w3.org/2000/svg" viewBox="0 0 88 60" xmlns:v="https://vecta.io/nano"><path d="M85,60H3c-1.7,0-3-1.3-3-3V3C0,1.3,1.3,0,3,0h82c1.7,0,3,1.3,3,3v54c0,1.7-1.3,3-3,3ZM3,1.2c-1,0-1.8.8-1.8,1.8v54c0,1,.8,1.8,1.8,1.8h82c1,0,1.8-.8,1.8-1.8V3c0-1-.8-1.8-1.8-1.8H3Z" fill="#768f9e"/><g fill="#58707f"><path d="M21.4 5.7H8.8c-.7 0-1.3.6-1.3 1.3v13.5c0 .7.6 1.3 1.3 1.3h12.6c.7 0 1.3-.6 1.3-1.3V7c0-.7-.6-1.3-1.3-1.3zm-12.6 1h12.6c.2 0 .3.1.3.3v12.4-.2h0c-.8-2.1-2-2.2-2.3-2.3-.6-.1-1.3 0-1.7-.2 0 .4-1.2 1.7-1.9 2.4l-.3-1.2c.2-.1.3-.5.3-.7h-1.2c0 .3 0 .6.3.7l-.3 1.2c-.7-.8-1.9-2.1-1.9-2.4-.4.1-1.1 0-1.7.2-.3 0-1.5.2-2.3 2.3h0 0V7c0-.2.1-.3.3-.3zm12.6 24.1H8.8c-.7 0-1.3.6-1.3 1.3v13.5c0 .7.6 1.3 1.3 1.3h12.6c.7 0 1.3-.6 1.3-1.3V32.1c0-.7-.6-1.3-1.3-1.3zm-12.6.9h12.6c.2 0 .3.1.3.3v12.4-.2h0c-.8-2.1-2-2.2-2.3-2.3-.6-.1-1.3 0-1.7-.2 0 .4-1.2 1.7-1.9 2.4l-.3-1.2c.2-.1.3-.5.3-.7h-1.2c0 .3 0 .6.3.7l-.3 1.2c-.7-.8-1.9-2.1-1.9-2.4-.4.1-1.1 0-1.7.2-.3 0-1.5.2-2.3 2.3h0 0V32c0-.2.1-.3.3-.3zm31.7-26H27.9c-.7 0-1.3.6-1.3 1.3v13.5c0 .7.6 1.3 1.3 1.3h12.6c.7 0 1.3-.6 1.3-1.3V7c0-.7-.6-1.3-1.3-1.3zm-12.6 1h12.6c.2 0 .3.1.3.3v12.4-.2h0c-.8-2.1-2-2.2-2.3-2.3-.6-.1-1.3 0-1.7-.2 0 .4-1.2 1.7-1.9 2.4l-.3-1.2c.2-.1.3-.5.3-.7h-1.2c0 .3 0 .6.3.7l-.3 1.2c-.7-.8-1.9-2.1-1.9-2.4-.4.1-1.1 0-1.7.2-.3 0-1.5.2-2.3 2.3h0 0V7c0-.2.1-.3.3-.3zm12.6 26.5H27.9c-.7 0-1.3.6-1.3 1.3V48c0 .7.6 1.3 1.3 1.3h12.6c.7 0 1.3-.6 1.3-1.3V34.5c0-.7-.6-1.3-1.3-1.3zm-12.6 1h12.6c.2 0 .3.1.3.3v12.4-.2h0c-.8-2.1-2-2.2-2.3-2.3-.6-.1-1.3 0-1.7-.2 0 .4-1.2 1.7-1.9 2.4l-.3-1.2c.2-.1.3-.5.3-.7h-1.2c0 .3 0 .6.3.7l-.3 1.2c-.7-.8-1.9-2.1-1.9-2.4-.4.1-1.1 0-1.7.2-.3 0-1.5.2-2.3 2.3h0 0V34.5c0-.2.1-.3.3-.3zM59.7 5.7H47.1c-.7 0-1.3.6-1.3 1.3v13.5c0 .7.6 1.3 1.3 1.3h12.6c.7 0 1.3-.6 1.3-1.3V7c0-.7-.6-1.3-1.3-1.3zm-12.6 1h12.6c.2 0 .3.1.3.3v12.4-.2h0c-.8-2.1-2-2.2-2.3-2.3-.6-.1-1.3 0-1.7-.2 0 .4-1.2 1.7-1.9 2.4l-.3-1.2c.2-.1.3-.5.3-.7h-1.2c0 .3 0 .6.3.7l-.3 1.2c-.7-.8-1.9-2.1-1.9-2.4-.4.1-1.1 0-1.7.2-.3 0-1.5.2-2.3 2.3h0 0V7c0-.2.1-.3.3-.3zm12.6 23H47.1c-.7 0-1.3.6-1.3 1.3v13.5c0 .7.6 1.3 1.3 1.3h12.6c.7 0 1.3-.6 1.3-1.3V31c0-.7-.6-1.3-1.3-1.3zm-12.6 1h12.6c.2 0 .3.1.3.3v12.4-.2h0c-.8-2.1-2-2.2-2.3-2.3-.6-.1-1.3 0-1.7-.2 0 .4-1.2 1.7-1.9 2.4l-.3-1.2c.2-.1.3-.5.3-.7h-1.2c0 .3 0 .6.3.7l-.3 1.2c-.7-.8-1.9-2.1-1.9-2.4-.4.1-1.1 0-1.7.2-.3 0-1.5.2-2.3 2.3h0 0V31c0-.2.1-.3.3-.3zm31.8-25H66.3c-.7 0-1.3.6-1.3 1.3v13.5c0 .7.6 1.3 1.3 1.3h12.6c.7 0 1.3-.6 1.3-1.3V7c0-.7-.6-1.3-1.3-1.3zm-12.7 1h12.6c.2 0 .3.1.3.3v12.4-.2h0c-.8-2.1-2-2.2-2.3-2.3-.6-.1-1.3 0-1.7-.2 0 .4-1.2 1.7-1.9 2.4l-.3-1.2c.2-.1.3-.5.3-.7H72c0 .3 0 .6.3.7l-.3 1.2c-.7-.8-1.9-2.1-1.9-2.4-.4.1-1.1 0-1.7.2-.3 0-1.5.2-2.3 2.3h0 0V7c0-.2.1-.3.3-.3zm12.7 26.5H66.3c-.7 0-1.3.6-1.3 1.3V48c0 .7.6 1.3 1.3 1.3h12.6c.7 0 1.3-.6 1.3-1.3V34.5c0-.7-.6-1.3-1.3-1.3zm-12.7 1h12.6c.2 0 .3.1.3.3v12.4-.2h0c-.8-2.1-2-2.2-2.3-2.3-.6-.1-1.3 0-1.7-.2 0 .4-1.2 1.7-1.9 2.4l-.3-1.2c.2-.1.3-.5.3-.7H72c0 .3 0 .6.3.7l-.3 1.2c-.7-.8-1.9-2.1-1.9-2.4-.4.1-1.1 0-1.7.2-.3 0-1.5.2-2.3 2.3h0 0V34.5c0-.2.1-.3.3-.3z"/><use href="#B"/><path d="M8.6,26.8h13c.6,0,1-.4,1-1s-.4-1-1-1h-13c-.6,0-1,.4-1,1s.4,1,1,1Z"/><use href="#B" y="25"/><path d="M21.6 48.8h-13a.94.94 0 0 0-1 1 .94.94 0 0 0 1 1h13a.94.94 0 0 0 1-1 .94.94 0 0 0-1-1zm-2.4 3.7H11c-.5 0-.9.4-.9.9s.4.9.9.9h8.2c.5 0 .9-.4.9-.9s-.4-.9-.9-.9z"/><use href="#C"/><use href="#D"/><use href="#E"/><use href="#F"/><use href="#G"/><use href="#B" x="38.3"/><path d="M46.9,25.7h13c.6,0,1-.4,1-1s-.4-1-1-1h-13c-.6,0-1,.4-1,1s.4,1,1,1Z"/><use href="#B" x="38.3" y="24"/><path d="M59.9 47.7h-13a.94.94 0 0 0-1 1 .94.94 0 0 0 1 1h13a.94.94 0 0 0 1-1 .94.94 0 0 0-1-1zm-2.4 3.8h-8.2c-.5 0-.9.4-.9.9s.4.9.9.9h8.2c.5 0 .9-.4.9-.9s-.4-.9-.9-.9z"/><use href="#C" x="38.3"/><use href="#D" x="38.4"/><use href="#E" x="38.3"/><use href="#F" x="38.3"/><use href="#G" x="38.4"/></g><defs ><path id="B" d="M11.9 13.9c.3.8.7 1.5 1.3 2.1.3.3.7.6 1 .7s.5.2.8.2.5 0 .8-.2c.4-.2.8-.4 1.1-.7.5-.5 1-1.3 1.3-2 .2 0 .4-.5.5-1 0-.6 0-1-.2-1.1v-.4c0-2-1.2-3.2-3.1-3.3-1.6-.1-2.9.5-3.4 1.6-.2.4-.3.8-.3 1.3v.8h0c-.2 0-.3.6-.2 1.1 0 .5.3 1 .6 1zm0-1.5v-.2h.1 0c0-.2.2-1.5 1.5-1.4 0 0 1.1.4 2.1 0h.3c.4 0 .7.2 1 .4 0-.1-.1-.3-.1-.4h.1c.2.2.4.6.6 1.3h0 0 .1c.1 0 .2.4.1.8 0 .3-.2.5-.3.6h-.1c-.3.8-.8 1.6-1.4 2.1-.4.3-.8.5-1.2.5s-.8-.2-1.2-.5c-.6-.5-1.1-1.3-1.4-2.1h-.2c-.1-.1-.2-.3-.3-.6v-.5z"/><path id="C" d="M31 13.9c.3.8.7 1.5 1.3 2.1.3.3.7.6 1 .7s.5.2.8.2.5 0 .8-.2c.4-.2.8-.4 1.1-.7.5-.5 1-1.3 1.3-2 .2 0 .4-.5.5-1 0-.6 0-1-.2-1.1v-.4c0-2-1.2-3.2-3.1-3.3-1.6-.1-2.9.5-3.4 1.6-.2.4-.3.8-.3 1.3v.8h0c-.2 0-.3.6-.2 1.1 0 .5.3 1 .6 1zm.1-1.5v-.2h.1 0c0-.2.2-1.5 1.5-1.4 0 0 1.1.4 2.1 0h.3c.4 0 .7.2 1 .4 0-.1-.1-.3-.1-.4h.1c.2.2.4.6.6 1.3h0 0 .1c.1 0 .2.4.1.8 0 .3-.2.5-.3.6h-.1c-.3.8-.8 1.6-1.4 2.1-.4.3-.8.5-1.2.5s-.8-.2-1.2-.5c-.6-.5-1.1-1.3-1.4-2.1h-.2c-.1-.1-.2-.3-.3-.6v-.5z"/><path id="D" d="M41.7,24.7c0-.6-.4-1-1-1h-13c-.6,0-1,.4-1,1s.4,1,1,1h13c.6,0,1-.4,1-1Z"/><path id="E" d="M30.1,27.5c-.5,0-.9.4-.9.9s.4.9.9.9h8.2c.5,0,.9-.4.9-.9s-.4-.9-.9-.9h-8.2Z"/><path id="F" d="M31 41.4c.3.8.7 1.5 1.3 2.1.3.3.7.6 1 .7s.5.2.8.2.5 0 .8-.2c.4-.2.8-.4 1.1-.7.5-.5 1-1.3 1.3-2 .2 0 .4-.5.5-1 0-.6 0-1-.2-1.1V39c0-2-1.2-3.2-3.1-3.3-1.6-.1-2.9.5-3.4 1.6-.2.4-.3.8-.3 1.3v.8h0c-.2 0-.3.6-.2 1.1 0 .5.3 1 .6 1zm.1-1.5v-.2h.1 0c0-.2.2-1.5 1.5-1.4 0 0 1.1.4 2.1 0h.3c.4 0 .7.2 1 .4 0-.1-.1-.3-.1-.4h.1c.2.2.4.6.6 1.3h0 0 .1c.1 0 .2.4.1.8 0 .3-.2.5-.3.6h-.1c-.3.8-.8 1.6-1.4 2.1-.4.3-.8.5-1.2.5s-.8-.2-1.2-.5c-.6-.5-1.1-1.3-1.4-2.1h-.2c-.1-.1-.2-.3-.3-.6v-.5z"/><path id="G" d="M40.7,51.2h-13c-.6,0-1,.4-1,1s.4,1,1,1h13c.6,0,1-.4,1-1s-.4-1-1-1Z"/></defs></svg>