<svg xmlns="http://www.w3.org/2000/svg" viewBox="0 0 88 60" xmlns:v="https://vecta.io/nano"><path d="M85,60H3c-1.7,0-3-1.3-3-3V3C0,1.3,1.3,0,3,0h82c1.7,0,3,1.3,3,3v54c0,1.7-1.3,3-3,3ZM3,1.2c-1,0-1.8.8-1.8,1.8v54c0,1,.8,1.8,1.8,1.8h82c1,0,1.8-.8,1.8-1.8V3c0-1-.8-1.8-1.8-1.8H3Z" fill="#768f9e"/><g fill="#58707f"><path d="M28.7 9H13.2c-.7 0-1.3.6-1.3 1.3v16.5c0 .7.6 1.3 1.3 1.3h15.5c.7 0 1.3-.6 1.3-1.3V10.3c0-.7-.6-1.3-1.3-1.3zm-15.4.9h15.5c.2 0 .3.1.3.3v15.6c0-.2 0-.3-.1-.5v-.2h0v-.2h0c-.9-2.5-2.4-2.6-2.8-2.7-.7-.2-1.6 0-2.1-.2 0 .5-1.4 2-2.3 2.9l-.4-1.5c.3-.2.3-.5.3-.8h-1.4c0 .3 0 .7.3.8l-.4 1.5c-.9-.9-2.2-2.4-2.3-2.9-.5.1-1.3 0-2.1.2-.3 0-1.8.2-2.8 2.7h0v.2.2.3-15.4c0-.2.1-.3.3-.3z"/><use href="#B"/><path d="M13.1 25.1h0V25v.1zM51.7 9H36.2c-.7 0-1.3.6-1.3 1.3v16.5c0 .7.6 1.3 1.3 1.3h15.5c.7 0 1.3-.6 1.3-1.3V10.3c0-.7-.6-1.3-1.3-1.3zm-15.4.9h15.5c.2 0 .3.1.3.3v15.6c0-.2 0-.3-.1-.5v-.2h0v-.2h0c-.9-2.5-2.4-2.6-2.8-2.7-.7-.2-1.6 0-2.1-.2 0 .5-1.4 2-2.3 2.9l-.4-1.5c.3-.2.3-.5.3-.8h-1.4c0 .3 0 .7.3.8l-.4 1.5c-.9-.9-2.2-2.4-2.3-2.9-.5.1-1.3 0-2.1.2-.3 0-1.8.2-2.8 2.7h0v.2.2.3-15.4c0-.2.1-.3.3-.3z"/><use href="#B" x="23"/><path d="M36.1 25.1h0V25v.1zM74.7 9H59.2c-.7 0-1.3.6-1.3 1.3v16.5c0 .7.6 1.3 1.3 1.3h15.5c.7 0 1.3-.6 1.3-1.3V10.3c0-.7-.6-1.3-1.3-1.3zm-15.4.9h15.5c.2 0 .3.1.3.3v15.6c0-.2 0-.3-.1-.5v-.2h0v-.2h0c-.9-2.5-2.4-2.6-2.8-2.7-.7-.2-1.6 0-2.1-.2 0 .5-1.4 2-2.3 2.9l-.4-1.5c.3-.2.3-.5.3-.8h-1.4c0 .3 0 .7.3.8l-.4 1.5c-.9-.9-2.2-2.4-2.3-2.9-.5.1-1.3 0-2.1.2-.3 0-1.8.2-2.8 2.7h0v.2.2.3-15.4c0-.2.1-.3.3-.3z"/><use href="#B" x="46"/><path d="M59.1 25.1h0V25v.1zM28.7 32H13.2c-.7 0-1.3.6-1.3 1.3v16.5c0 .7.6 1.3 1.3 1.3h15.5c.7 0 1.3-.6 1.3-1.3V33.3c0-.7-.6-1.3-1.3-1.3zm-15.4.9h15.5c.2 0 .3.1.3.3v15.6c0-.2 0-.3-.1-.5v-.2h0v-.2h0c-.9-2.5-2.4-2.6-2.8-2.7-.7-.2-1.6 0-2.1-.2 0 .5-1.4 2-2.3 2.9l-.4-1.5c.3-.2.3-.5.3-.8h-1.4c0 .3 0 .7.3.8l-.4 1.5c-.9-.9-2.2-2.4-2.3-2.9-.5.1-1.3 0-2.1.2-.3 0-1.8.2-2.8 2.7h0v.2.2.3-15.4c0-.2.1-.3.3-.3z"/><use href="#C"/><path d="M13.1 48.1h0V48v.1zM51.7 32H36.2c-.7 0-1.3.6-1.3 1.3v16.5c0 .7.6 1.3 1.3 1.3h15.5c.7 0 1.3-.6 1.3-1.3V33.3c0-.7-.6-1.3-1.3-1.3zm-15.4.9h15.5c.2 0 .3.1.3.3v15.6c0-.2 0-.3-.1-.5v-.2h0v-.2h0c-.9-2.5-2.4-2.6-2.8-2.7-.7-.2-1.6 0-2.1-.2 0 .5-1.4 2-2.3 2.9l-.4-1.5c.3-.2.3-.5.3-.8h-1.4c0 .3 0 .7.3.8l-.4 1.5c-.9-.9-2.2-2.4-2.3-2.9-.5.1-1.3 0-2.1.2-.3 0-1.8.2-2.8 2.7h0v.2.2.3-15.4c0-.2.1-.3.3-.3z"/><use href="#C" x="23"/><path d="M36.1 48.1h0V48v.1zM74.7 32H59.2c-.7 0-1.3.6-1.3 1.3v16.5c0 .7.6 1.3 1.3 1.3h15.5c.7 0 1.3-.6 1.3-1.3V33.3c0-.7-.6-1.3-1.3-1.3zm-15.4.9h15.5c.2 0 .3.1.3.3v15.6c0-.2 0-.3-.1-.5v-.2h0v-.2h0c-.9-2.5-2.4-2.6-2.8-2.7-.7-.2-1.6 0-2.1-.2 0 .5-1.4 2-2.3 2.9l-.4-1.5c.3-.2.3-.5.3-.8h-1.4c0 .3 0 .7.3.8l-.4 1.5c-.9-.9-2.2-2.4-2.3-2.9-.5.1-1.3 0-2.1.2-.3 0-1.8.2-2.8 2.7h0v.2.2.3-15.4c0-.2.1-.3.3-.3z"/><use href="#C" x="46"/><path d="M59.1 48.1h0V48v.1z"/></g><path d="M80,34.9c-.2,0-.5,0-.6-.3-.4-.4-.4-.9,0-1.3l3.4-3.4-3.4-3.4c-.4-.4-.4-.9,0-1.3s.9-.4,1.3,0l4,4c.4.4.4.9,0,1.3l-4,4c-.2.2-.4.3-.6.3ZM8,34.9c-.2,0-.5,0-.6-.3l-4-4c-.4-.4-.4-.9,0-1.3l4-4c.4-.4.9-.4,1.3,0s.4.9,0,1.3l-3.4,3.4,3.4,3.4c.4.4.4.9,0,1.3s-.4.3-.6.3Z" fill="#718491"/><defs ><path id="B" d="M17.2 18.7c.3.9.9 1.8 1.5 2.4.4.4.8.7 1.2.8.3.1.6.2 1 .2s.6 0 1-.2c.5-.2.9-.5 1.3-.9.6-.6 1.2-1.5 1.5-2.4.3 0 .5-.6.6-1.2.1-.7 0-1.2-.3-1.3v-.5c0-2.4-1.4-3.8-3.6-4-1.9-.1-3.4.6-4.1 1.9-.2.4-.4 1-.4 1.6 0 .3-.1.6-.1 1h0c-.3 0-.4.7-.3 1.4.1.6.4 1.1.7 1.2zm.1-1.8s0-.1.1-.2h.2 0c0-.2.3-1.8 1.8-1.6 0 0 1.3.5 2.5 0h.4c.5 0 .8.3 1.2.4 0-.2-.1-.3-.1-.4h.2c.3.3.5.7.7 1.5h0 0 .2c.2 0 .2.5.2.9 0 .3-.2.6-.3.7h-.2c-.3 1-.9 1.9-1.6 2.5-.4.3-.9.6-1.5.6s-1-.2-1.4-.5c-.8-.6-1.4-1.5-1.7-2.5h-.2c-.1-.1-.2-.4-.3-.7V17z"/><path id="C" d="M17.2 41.7c.3.9.9 1.8 1.5 2.4.4.4.8.7 1.2.8.3.1.6.2 1 .2s.6 0 1-.2c.5-.2.9-.5 1.3-.9.6-.6 1.2-1.5 1.5-2.4.3 0 .5-.6.6-1.2.1-.7 0-1.2-.3-1.3v-.5c0-2.4-1.4-3.8-3.6-4-1.9-.1-3.4.6-4.1 1.9-.2.4-.4 1-.4 1.6 0 .3-.1.6-.1 1h0c-.3 0-.4.7-.3 1.4.1.6.4 1.1.7 1.2zm.1-1.8s0-.1.1-.2h.2 0c0-.2.3-1.8 1.8-1.6 0 0 1.3.5 2.5 0h.4c.5 0 .8.3 1.2.4 0-.2-.1-.3-.1-.4h.2c.3.3.5.7.7 1.5h0 0 .2c.2 0 .2.5.2.9 0 .3-.2.6-.3.7h-.2c-.3 1-.9 1.9-1.6 2.5-.4.3-.9.6-1.5.6s-1-.2-1.4-.5c-.8-.6-1.4-1.5-1.7-2.5h-.2c-.1-.1-.2-.4-.3-.7V40z"/></defs></svg>