<svg xmlns="http://www.w3.org/2000/svg" viewBox="0 0 88 60" xmlns:v="https://vecta.io/nano"><path d="M85,60H3c-1.7,0-3-1.3-3-3V3C0,1.3,1.3,0,3,0h82c1.7,0,3,1.3,3,3v54c0,1.7-1.3,3-3,3ZM3,1.2c-1,0-1.8.8-1.8,1.8v54c0,1,.8,1.8,1.8,1.8h82c1,0,1.8-.8,1.8-1.8V3c0-1-.8-1.8-1.8-1.8H3Z" fill="#768f9e"/><g fill="#58707f"><path d="M16.9 41.5H14s-.1.2-.1.3v2.6s0 .2.1.3h1.3v-1.1h-.5v-.5h.5v-.4c0-.5.3-.7.7-.7h.4v.5h-.2c-.2 0-.3 0-.3.3v.3h.5v.5h-.5v1.1h1.3s.1-.2.1-.3v-2.6s0-.2-.1-.3h-.3zm10.3-6H12.7c-.5 0-.8.4-.8.8s.4.8.8.8h14.5c.5 0 .8-.4.8-.8s-.4-.8-.8-.8z"/><use href="#B"/><path d="M21.6 41.5H19c-.2 0-.4.2-.4.4v2.6c0 .2.2.4.4.4h2.6c.2 0 .4-.2.4-.4v-2.6c0-.2-.2-.4-.4-.4zm-.3 1.3c0 .7-.5 1.4-1.4 1.4s-.5 0-.8-.2h.1c.2 0 .4 0 .6-.2-.2 0-.4 0-.5-.3h.2c-.2 0-.4-.2-.4-.5h.2s-.1 0-.2-.2v-.4c.2.3.6.5 1 .5 0-.3.2-.6.5-.6s.3 0 .4.2h.3s-.1.2-.2.3h.3s-.2.2-.2.3h0v-.2h.1zm5.2-1.3h-2.9c-.1 0-.2 0-.2.2v2.9s.1.2.2.2h2.9c.1 0 .2 0 .2-.2v-2.9s-.1-.2-.2-.2zm-2.2 2.9h-.5v-1.6h.5v1.6zm-.2-1.8c-.2 0-.3 0-.3-.3s.1-.3.3-.3.3 0 .3.3-.1.3-.3.3zm2.1 1.8h-.5v-.8c0-.2 0-.4-.3-.4s-.3.2-.3.4v.8h-.5v-1.6h.5v.2h0s.2-.3.5-.3c.5 0 .6.3.6.8v.9zm1.5-29.9H11.9c-.5 0-1 .4-1 1v16.8c0 .5.4 1 1 1h15.8c.5 0 1-.4 1-1V15.4c0-.5-.4-1-1-1h0zm-15.8.7h15.8c.1 0 .2.1.2.2v16.7c0-.5-.2-1-.3-1.5v-.2h0v-.2h0c-.9-2.5-2.4-2.6-2.7-2.7-.7-.2-1.6 0-2-.2 0 .4-1.4 1.9-2.2 2.9l-.4-1.4c.3-.2.3-.5.3-.8h-1.4c0 .3 0 .7.3.8l-.4 1.4c-.9-.9-2.2-2.4-2.2-2.9-.5.1-1.3 0-2 .2-.3 0-1.8.2-2.7 2.7h0v.4l-.3 1.3V15.4c0-.1.1-.2.2-.2h-.2zm39 20.3H36.4c-.5 0-.8.4-.8.8s.4.8.8.8h14.5c.5 0 .8-.4.8-.8s-.4-.8-.8-.8z"/><use href="#B" x="23.6"/><path d="M40.6 41.5h-2.9v3.2H39v-1.1h-.5v-.5h.5v-.4c0-.5.3-.7.7-.7h.4v.5h-.2c-.2 0-.3 0-.3.3v.3h.5v.5h-.5v1.1h1.3v-3.2h-.3zm4.7 0h-2.6c-.2 0-.4.2-.4.4v2.6c0 .2.2.4.4.4h2.6c.2 0 .4-.2.4-.4v-2.6c0-.2-.2-.4-.4-.4zm-.4 1.3c0 .7-.5 1.4-1.4 1.4s-.5 0-.8-.2h0c.2 0 .4 0 .6-.2-.2 0-.4 0-.5-.3h.2c-.2 0-.4-.2-.4-.5h.2l-.2-.2v-.4c.2.3.6.5 1 .5 0-.3.2-.6.5-.6s.3 0 .4.2h.3s0 .2-.2.3h.3s-.2.2-.2.3h0v-.2h.2zm5.2-1.3h-2.9s-.2 0-.2.2v2.9s0 .2.2.2h2.9s.2 0 .2-.2v-2.9s0-.2-.2-.2zM48 44.4h-.5v-1.6h.5v1.6zm-.2-1.8c-.2 0-.3 0-.3-.3s0-.3.3-.3.3 0 .3.3 0 .3-.3.3zm2.1 1.8h-.5v-.8c0-.2 0-.4-.3-.4s-.3.2-.3.4v.8h-.5v-1.6h.5v.2h0s.2-.3.5-.3c.5 0 .6.3.6.8v.9zm1.5-29.9H35.6c-.5 0-1 .4-1 1v16.8c0 .5.4 1 1 1h15.8c.5 0 1-.4 1-1V15.4c0-.5-.4-1-1-1h0zm-15.8.7h15.8s.2.1.2.2v16.7c0-.5-.2-1-.3-1.5v-.2h0v-.2h0c-.9-2.5-2.4-2.6-2.7-2.7-.7-.2-1.6 0-2-.2 0 .4-1.4 1.9-2.2 2.9l-.4-1.4c.3-.2.3-.5.3-.8h-1.4c0 .3 0 .7.3.8l-.4 1.4c-.9-.9-2.2-2.4-2.2-2.9-.5.1-1.3 0-2 .2-.3 0-1.8.2-2.7 2.7h0v.4c0 .4-.2.9-.3 1.3V15.4c0-.1 0-.2.2-.2h-.2z"/><use href="#C"/><use href="#C" x="24"/><use href="#C" x="-23.5"/><path d="M35.7 30.3h0 0 0zm38.9 5.2H60.1c-.5 0-.8.4-.8.8s.4.8.8.8h14.5c.5 0 .8-.4.8-.8s-.4-.8-.8-.8zm-3.9 4.3a.7.7 0 1 0 0-1.4H64a.7.7 0 1 0 0 1.4h6.7zm-6.4 1.7h-2.9v3.2h1.3v-1.1h-.5v-.5h.5v-.4c0-.5.3-.7.7-.7h.4v.5h-.2c-.2 0-.3 0-.3.3v.3h.5v.5h-.5v1.1h1.3v-3.2h-.3zm4.7 0h-2.6c-.2 0-.4.2-.4.4v2.6c0 .2.2.4.4.4H69c.2 0 .4-.2.4-.4v-2.6c0-.2-.2-.4-.4-.4zm-.4 1.3c0 .7-.5 1.4-1.4 1.4s-.5 0-.8-.2h0c.2 0 .4 0 .6-.2-.2 0-.4 0-.5-.3h.2c-.2 0-.4-.2-.4-.5h.2l-.2-.2v-.4c.2.3.6.5 1 .5 0-.3.2-.6.5-.6s.3 0 .4.2h.3s0 .2-.2.3h.3s-.2.2-.2.3h0v-.2h.2zm5.2-1.3h-2.9s-.2 0-.2.2v2.9s0 .2.2.2h2.9s.2 0 .2-.2v-2.9s0-.2-.2-.2zm-2.1 2.9h-.5v-1.6h.5v1.6zm-.3-1.8c-.2 0-.3 0-.3-.3s0-.3.3-.3.3 0 .3.3 0 .3-.3.3zm2.1 1.8H73v-.8c0-.2 0-.4-.3-.4s-.3.2-.3.4v.8h-.5v-1.6h.5v.2h0s.2-.3.5-.3c.5 0 .6.3.6.8v.9zM59.4 30.3h0 0 0zm15.7-15.8H59.3c-.5 0-1 .4-1 1v16.8c0 .5.4 1 1 1h15.8c.5 0 1-.4 1-1V15.4c0-.5-.4-1-1-1h0zm-15.8.7h15.8s.2.1.2.2v16.7c0-.5-.2-1-.3-1.5v-.2h0v-.2h0c-.9-2.5-2.4-2.6-2.7-2.7-.7-.2-1.6 0-2-.2 0 .4-1.4 1.9-2.2 2.9l-.4-1.4c.3-.2.3-.5.3-.8h-1.4c0 .3 0 .7.3.8l-.4 1.4c-.9-.9-2.2-2.4-2.2-2.9-.5.1-1.3 0-2 .2-.3 0-1.8.2-2.7 2.7h0v.4c0 .4-.2.8-.3 1.3V15.4c0-.1 0-.2.2-.2h-.2z"/></g><path d="M79.5 34.9c-.2 0-.5 0-.6-.3a.85.85 0 0 1 0-1.3l3.4-3.4-3.4-3.4a.85.85 0 0 1 0-1.3.85.85 0 0 1 1.3 0l4 4a.85.85 0 0 1 0 1.3l-4 4c-.2.2-.4.3-.6.3h-.1zm-71 0c-.2 0-.5 0-.6-.3l-4-4a.85.85 0 0 1 0-1.3l4-4a.85.85 0 0 1 1.3 0 .85.85 0 0 1 0 1.3L5.8 30l3.4 3.4a.85.85 0 0 1 0 1.3c-.4.4-.4.3-.6.3h0z" fill="#718491"/><use href="#D" fill="#9ea9b2"/><use href="#D" x="6" fill="#718491"/><use href="#D" x="12" fill="#9ea9b2"/><defs ><path id="B" d="M16.7,38.5h6.7c.4,0,.7.3.7.7h0c0,.4-.3.6-.7.6h-6.7c-.4,0-.7-.3-.7-.7h0c0-.4.3-.6.7-.6Z"/><path id="C" d="M39.9 24.1c.3.9.7 1.7 1.3 2.3.4.4.8.6 1.2.8.3.1.6.2.9.2s.6 0 .9-.2c.5-.2.9-.5 1.3-.9.6-.6 1.2-1.5 1.5-2.4.3 0 .5-.5.6-1.1 0-.7 0-1.2-.2-1.3V21c0-2.4-1.4-3.8-3.6-3.9-1.9-.1-3.4.6-4 1.9-.2.4-.3 1-.4 1.5v.9h0c-.3 0-.4.6-.3 1.3 0 .6.4 1.1.7 1.2h0v.2zm.2-2.1h0c0-.2.3-1.7 1.8-1.6 0 0 1.3.5 2.5 0h.4c.5 0 .8.3 1.2.4v-.4h.2c.3.3.5.7.7 1.5h.2c.2 0 .2.5.2.9s-.2.6-.3.7h-.2c-.3.9-1 2.1-1.7 2.7-.4.3-1.1.7-1.6.7s-1.1-.2-1.5-.5c-.7-.6-1.4-1.4-1.7-2.4v-.5c0-.1-.4.2-.5-.1l-.2-.6V22"/><path id="D" d="M38,50h0c1.1,0,2,.9,2,2h0c0,1.1-.9,2-2,2h0c-1.1,0-2-.9-2-2h0c0-1.1.9-2,2-2Z"/></defs></svg>