<svg xmlns="http://www.w3.org/2000/svg" viewBox="0 0 88 60" xmlns:v="https://vecta.io/nano"><style><![CDATA[.H{fill:none}.I{fill:#58707f}.J{stroke:#58707f}.K{stroke-width:.6}]]></style><rect x=".6" y=".6" width="86.8" height="58.8" rx="2.4" stroke="#768f9e" stroke-width="1.2" class="H"/><g class="I"><path d="M12.4 21.1H20c.2 0 .4.2.4.4h0c0 .2-.2.4-.4.4h-7.6c-.2 0-.4-.2-.4-.4h0c0-.2.2-.4.4-.4z"/><use href="#B"/><path d="M18.7 13.6v-.3c0-1.3-.8-2.1-2-2.2-1.1 0-1.9.4-2.3 1.1-.1.2-.2.5-.2.9v.5h0c-.2 0-.2.4-.2.8 0 .3.2.6.4.6.2.5.5 1 .9 1.4.2.2.4.4.7.5.2 0 .3.1.5.1s.4 0 .5-.1c.3 0 .5-.3.7-.5.4-.4.7-.8.8-1.3.1 0 .3-.3.3-.6 0-.4 0-.7-.1-.8zm-.3.8c0 .2-.1.3-.2.4-.2.5-.5 1.1-.9 1.4-.2.2-.5.3-.8.3s-.5-.1-.8-.3c-.4-.3-.8-.8-.9-1.4h-.1l-.2-.4V14h0c0-.1.1-1 1-.9 0 0 .8.3 1.4 0h.2c.3 0 .5.2.7.2v-.2c.2.2.3.4.4.8h0s.1.3 0 .5zm2.1 3.6c-.1.2-.3.4-.5.6-.6.6-1.5 1.1-2.4 1.3h-2.3c-.9-.2-1.7-.7-2.4-1.3s-.4-.4-.5-.7c0-.1.1-.2.2-.3.5-.6 1-.6 1.1-.7.4 0 .9 0 1.1-.1 0 .3.8 1.1 1.2 1.6l.2-.8c-.1 0-.2-.3-.2-.5h.8c0 .2 0 .4-.2.5l.2.8c.5-.5 1.2-1.4 1.2-1.6.3 0 .7 0 1.1.1.1 0 .6 0 1.1.7a1.44 1.44 0 0 0 .2.3z"/></g><rect x="11.7" y="10.4" width="9.4" height="9.4" rx="4.7" class="H J K"/><g class="I"><use href="#C"/><use href="#B" x="12.8"/><path d="M31.5 13.6v-.3c0-1.3-.8-2.1-2-2.2-1.1 0-1.9.4-2.3 1.1-.1.2-.2.5-.2.9v.5h0 0c-.2 0-.2.4-.2.8 0 .3.2.6.4.6.2.5.5 1 .9 1.4.2.2.4.4.7.5.2 0 .3.1.5.1s.4 0 .5-.1c.3 0 .5-.3.7-.5.4-.4.6-.8.8-1.3.2 0 .3-.3.4-.6 0-.4 0-.7-.1-.8zm-.3.8c0 .2-.1.3-.2.4-.2.5-.5 1.1-.9 1.4-.2.2-.5.3-.8.3s-.5-.1-.8-.3c-.4-.3-.8-.8-.9-1.4h-.1l-.2-.4V14h0c0-.1.2-1 1-.9 0 0 .7.3 1.4 0h.2c.3 0 .5.2.7.2v-.2c.2.2.3.4.4.8h0s.1.3 0 .5zm2.1 3.6c-.2.2-.3.4-.5.6-.6.6-1.5 1.1-2.4 1.3h-2.3c-.9-.2-1.7-.7-2.4-1.3-.2-.2-.4-.4-.5-.7 0 0 .1-.2.2-.3.5-.6.9-.6 1.1-.7.4 0 .9 0 1.2-.1 0 .3.8 1.1 1.2 1.6l.2-.8c-.1 0-.2-.3-.2-.5h.8c0 .2 0 .4-.2.5l.2.8c.5-.5 1.2-1.4 1.2-1.6.3 0 .7 0 1.1.1.1 0 .6 0 1.1.7h0a1.44 1.44 0 0 0 .2.3z"/></g><rect x="24.5" y="10.4" width="9.4" height="9.4" rx="4.7" class="H J K"/><g class="I"><rect x="37.8" y="23.3" width="12.7" height="1.3" rx=".7"/><path d="M41.5 25.7h5.3a.47.47 0 0 1 .5.5h0a.47.47 0 0 1-.5.5h-5.3a.47.47 0 0 1-.5-.5h0a.47.47 0 0 1 .5-.5zm5.6-13.4v-.4c0-1.9-1.1-3-2.8-3.1-1.5 0-2.7.5-3.2 1.5-.2.3-.3.8-.3 1.2v.7h0c-.2 0-.3.5-.2 1.1 0 .5.3.9.5.9.3.7.7 1.4 1.2 1.9.3.3.6.5 1 .7.2 0 .5.1.7.1s.5 0 .7-.1c.4-.1.7-.4 1-.7.5-.5.9-1.2 1.2-1.9.2 0 .4-.4.5-.9 0-.5 0-1-.2-1zm-.3 1.1c0 .3-.1.5-.3.6h-.1c-.2.8-.7 1.5-1.3 1.9-.3.3-.7.4-1.1.4s-.8-.2-1.1-.4c-.6-.5-1-1.2-1.3-2h-.1c-.1 0-.2-.3-.2-.5v-.5-.1h.1 0c0-.2.2-1.4 1.4-1.3 0 0 1 .4 2 0h.3c.4 0 .7.2.9.4 0-.1-.1-.3-.1-.4h.1c.2.2.4.6.6 1.2h0 .1c.1 0 .2.4.1.7zm2.7 4.7c-1.3 1.6-3.3 2.7-5.5 2.7s-3.7-.8-5-2-.4-.4-.5-.6c0-.1.2-.2.2-.3.1-.1.3-.2.4-.3.4-.3.8-.3.9-.3.6-.1 1.2 0 1.6-.2 0 .3 1.1 1.5 1.8 2.3l.3-1.1c-.2-.1-.3-.4-.3-.7h1.1c0 .2 0 .5-.3.7l.3 1.1c.7-.7 1.7-1.9 1.8-2.3.4.1 1 0 1.6.2.2 0 .7 0 1.3.7 0 0 .2.2.2.3z"/></g><path d="M44,7.1h0c3.7,0,6.6,3,6.6,6.6h0c0,3.7-3,6.6-6.6,6.6h0c-3.7,0-6.6-3-6.6-6.6h0c0-3.7,3-6.6,6.6-6.6Z" stroke-width=".8" class="H J"/><g class="I"><use href="#C" x="29.6"/><use href="#B" x="42.4"/><path d="M61 13.6v-.3c0-1.3-.8-2.1-2-2.2-1.1 0-1.9.4-2.3 1.1-.1.2-.2.5-.2.9v.5h0c-.2 0-.2.4-.2.8 0 .3.2.6.4.6.2.5.5 1 .9 1.4.2.2.4.4.7.5.2 0 .3.1.5.1s.4 0 .5-.1c.3 0 .5-.3.7-.5.4-.4.7-.8.8-1.3.1 0 .3-.3.3-.6 0-.4 0-.7-.1-.8zm-.2.8c0 .2-.1.3-.2.4-.2.5-.5 1.1-.9 1.4-.2.2-.5.3-.8.3s-.5-.1-.8-.3c-.4-.3-.8-.8-.9-1.4h-.1l-.2-.4V14h0c0-.1.1-1 1-.9 0 0 .8.3 1.4 0h.2c.3 0 .5.2.7.2v-.2c.1.2.3.4.4.8h0s.1.3 0 .5zm2.1 3.6c-.2.2-.3.4-.5.6-.6.6-1.5 1.1-2.4 1.3h-2.3c-.9-.2-1.7-.7-2.4-1.3s-.4-.4-.5-.7c0-.1.1-.2.2-.3.5-.6 1-.6 1.1-.7.4 0 .9 0 1.2-.1 0 .3.8 1.1 1.2 1.6l.2-.8c-.2 0-.2-.3-.2-.5h.8c0 .2 0 .4-.2.5l.2.8c.5-.5 1.2-1.4 1.2-1.6.3 0 .7 0 1.1.1.1 0 .6 0 1.1.7a1.44 1.44 0 0 0 .2.3z"/></g><rect x="54.1" y="10.4" width="9.4" height="9.4" rx="4.7" class="H J K"/><g class="I"><use href="#C" x="42.4"/><use href="#B" x="55.2"/><path d="M73.8 13.6v-.3c0-1.3-.8-2.1-2-2.2-1.1 0-1.9.4-2.3 1.1-.1.2-.2.5-.2.9v.5h0 0c-.2 0-.2.4-.2.8 0 .3.2.6.4.6.2.5.5 1 .9 1.4.2.2.4.4.7.5.2 0 .3.1.5.1s.4 0 .5-.1c.3 0 .5-.3.7-.5.4-.4.7-.8.8-1.3.2 0 .3-.3.4-.6 0-.4 0-.7-.1-.8zm-.2.8c0 .2-.1.3-.2.4-.2.5-.5 1.1-.9 1.4-.2.2-.5.3-.8.3s-.5-.1-.8-.3c-.4-.3-.8-.8-.9-1.4h-.1l-.2-.4V14h0c0-.1.1-1 1-.9 0 0 .7.3 1.4 0h.2c.3 0 .5.2.7.2v-.2c.2.2.3.4.4.8h0s.1.3 0 .5zm2.1 3.6c-.2.2-.3.4-.5.6-.6.6-1.5 1.1-2.4 1.3h-2.3c-.9-.2-1.7-.7-2.4-1.3s-.4-.4-.5-.7c0-.1.1-.2.2-.3.5-.6.9-.6 1.1-.7.4 0 .9 0 1.1-.1 0 .3.8 1.1 1.2 1.6l.2-.8c-.2 0-.2-.3-.2-.5h.8c0 .2 0 .4-.2.5l.2.8c.5-.5 1.2-1.4 1.2-1.6.3 0 .7 0 1.1.1.1 0 .6 0 1.1.7h0a1.44 1.44 0 0 0 .2.3z"/></g><rect x="66.9" y="10.4" width="9.4" height="9.4" rx="4.7" class="H J K"/><path d="M21 30.8h46a.94.94 0 0 1 1 1h0a.94.94 0 0 1-1 1H21a.94.94 0 0 1-1-1h0a.94.94 0 0 1 1-1zm0 4h46a.94.94 0 0 1 1 1h0a.94.94 0 0 1-1 1H21a.94.94 0 0 1-1-1h0a.94.94 0 0 1 1-1zm0 4h46a.94.94 0 0 1 1 1h0a.94.94 0 0 1-1 1H21a.94.94 0 0 1-1-1h0a.94.94 0 0 1 1-1zm8.1 4h29.7a.94.94 0 0 1 1 1h0a.94.94 0 0 1-1 1H29.1a.94.94 0 0 1-1-1h0a.94.94 0 0 1 1-1z" fill="#8796a1"/><path d="M39.9 48.8h-3.5c-.1 0-.3 0-.3.1s-.1.2-.1.3v3.5c0 .1 0 .3.1.3s.2.1.3.1h1.4v-1.5h-.6v-.7h.6v-.5c0-.6.4-1 .9-1h.6v.6H39c-.3 0-.4.2-.4.4v.5h.7v.7h-.7v1.5H40c.1 0 .3 0 .3-.1 0 0 .1-.2.1-.3v-3.5c0-.1 0-.3-.1-.3 0 0-.2-.1-.3-.1zm5.9 0h-3.5a.47.47 0 0 0-.5.5v3.5a.47.47 0 0 0 .5.5h3.5a.47.47 0 0 0 .5-.5v-3.5a.47.47 0 0 0-.5-.5zm-.5 1.5c0 .9-.7 1.9-1.9 1.9s-.7-.1-1-.3h.2c.3 0 .6-.1.8-.3-.3 0-.5-.2-.6-.5h.3c-.3 0-.5-.3-.5-.6h0 .3s-.2-.1-.2-.2V50v-.3a1.75 1.75 0 0 0 1.4.7c0-.4.2-.8.6-.8s.4 0 .5.2c.1 0 .3 0 .4-.2 0 .2-.2.3-.3.4.1 0 .3 0 .4-.1 0 .1-.2.2-.3.3zm6.5-1.5h-3.9c-.2 0-.3.1-.3.3V53c0 .2.1.3.3.3h3.9c.2 0 .3-.1.3-.3v-3.9c0-.2-.1-.3-.3-.3zM49 52.6h-.7v-2.1h.7v2.1h0zm-.4-2.4c-.2 0-.4-.2-.4-.4s.2-.4.4-.4.4.2.4.4-.2.4-.4.4zm2.9 2.4h-.7v-1c0-.2 0-.6-.3-.6s-.4.3-.4.6v1.1h-.7v-2.1h.6v.3h0c0-.2.3-.3.6-.3.7 0 .8.4.8 1v1.2z" fill="#718491"/><defs ><path id="B" d="M14.4,22.7h3.5c.2,0,.4.2.4.4h0c0,.2-.2.4-.4.4h-3.5c-.2,0-.4-.2-.4-.4h0c0-.2.2-.4.4-.4Z"/><path id="C" d="M25.2,21.1h7.6c.2,0,.4.2.4.4h0c0,.2-.2.4-.4.4h-7.6c-.2,0-.4-.2-.4-.4h0c0-.2.2-.4.4-.4Z"/></defs></svg>