<svg xmlns="http://www.w3.org/2000/svg" viewBox="0 0 88 60" xmlns:v="https://vecta.io/nano"><path d="M85,60H3c-1.7,0-3-1.3-3-3V3C0,1.3,1.3,0,3,0h82c1.7,0,3,1.3,3,3v54c0,1.7-1.3,3-3,3ZM3,1.2c-1,0-1.8.8-1.8,1.8v54c0,1,.8,1.8,1.8,1.8h82c1,0,1.8-.8,1.8-1.8V3c0-1-.8-1.8-1.8-1.8H3Z" fill="#768f9e"/><g fill="#58707f"><path d="M17.3 41.3c0 .4-.4.8-.8.8H10v-1.6h6.5c.4 0 .8.4.8.8zm-3.9 2.8c0 .4-.3.6-.7.6H10v-1.3h2.7c.4 0 .7.3.7.6zm-2.3 2.2H10v.8h.2c.1 0 .3 0 .4.2 0 0 .2 0 .3-.1 0 .1-.1.2-.2.3h.3s-.1.2-.2.2c0 .4-.2.9-.7 1.2v.8h1.1c.2 0 .3-.2.3-.3v-2.5c0-.2-.2-.3-.3-.3zm4.6 0h-2.8c-.1 0-.2 0-.2.2v2.8c0 .1 0 .2.2.2h2.8c.1 0 .2-.1.2-.2v-2.8c0-.1-.1-.2-.2-.2zm-2 2.8h-.5v-1.5h.5v1.5zm-.3-1.7c-.2 0-.3-.1-.3-.3s.1-.3.3-.3.3.1.3.3-.1.3-.3.3zm2.1 1.7H15v-.8c0-.2 0-.4-.2-.4s-.3.2-.3.4v.8H14v-1.5h.5v.2h0c0-.1.2-.2.5-.2.5 0 .6.3.6.7v.8zm-2.3-22v-.5c0-2.2-1.2-3.5-3.2-3.7v3.3h.2.3c.5 0 .8.3 1.2.4 0-.2-.1-.3-.1-.4h.1c.2.3.5.7.7 1.4h0 .1 0c.2 0 .2.4.2.9 0 .3-.2.6-.3.7h-.2c-.3.9-.8 1.8-1.5 2.4-.2.2-.4.3-.6.4v.7h.2c.4-.2.8-.5 1.2-.8.6-.6 1.1-1.4 1.4-2.3.2 0 .5-.5.6-1.1s0-1.2-.2-1.3zm4 10.8H10v-2.5h0c.8-.8 2.1-2.2 2.1-2.7.4.1 1.3 0 2 .2.3 0 1.7.2 2.6 2.6v.2q0 0 0 0v.1l.3 1.4v.4.2z"/><path d="M16.9 20.3H10v.7h6.9c.1 0 .2 0 .2.2v16.1c0 .1-.1.2-.2.2H10v.7h6.9c.5 0 1-.4 1-.9V21.2c0-.5-.4-1-1-1z"/><rect x="24.5" y="40.5" width="15.5" height="1.6" rx=".8"/><rect x="28.4" y="43.4" width="7.8" height="1.3" rx=".6"/><use href="#B"/><path d="M33.8 46.3h-2.6c-.2 0-.3.2-.3.3v2.5c0 .2.1.3.3.3h2.6c.2 0 .3-.2.3-.3v-2.5c0-.2-.1-.3-.3-.3zm-.3 1.2h0c0 .7-.5 1.4-1.3 1.4s-.5 0-.7-.2h.1c.2 0 .4 0 .6-.2-.2 0-.4-.1-.4-.3h.2c-.2 0-.4-.2-.4-.5h.2l-.2-.2c-.1-.1 0-.1 0-.2v-.2c.2.3.6.5 1 .5 0-.3.2-.6.5-.6s.3 0 .3.2c.1 0 .2 0 .3-.1 0 .1-.1.2-.2.3h.3s-.1.2-.2.2zm5-1.2h-2.8c-.1 0-.2 0-.2.2v2.8c0 .1.1.2.2.2h2.8c.1 0 .2-.1.2-.2v-2.8c0-.1-.1-.2-.2-.2zm-2 2.8H36v-1.5h.5v1.5zm-.3-1.7c-.2 0-.3-.1-.3-.3s.1-.3.3-.3.3.1.3.3-.1.3-.3.3zm2 1.7h-.5v-.8c0-.2 0-.4-.2-.4s-.3.2-.3.4v.8h-.5v-1.5h.5v.2c0-.1.2-.2.5-.2.5 0 .6.3.6.7v.8zm-2.3-22v-.5c0-2.3-1.3-3.6-3.5-3.8-1.8-.1-3.2.6-3.9 1.8-.2.4-.3.9-.4 1.5 0 .3-.1.6-.1.9h0c-.3 0-.4.6-.3 1.3.1.6.4 1.1.6 1.1.3.9.8 1.7 1.5 2.3.3.3.8.6 1.2.8.3.1.6.2.9.2s.6 0 .9-.2c.4-.2.8-.5 1.2-.8.6-.6 1.1-1.4 1.4-2.3.2 0 .5-.5.6-1.1s0-1.2-.2-1.3zm-.4 1.3c0 .3-.2.6-.3.7H35c-.3.9-.8 1.8-1.5 2.4-.4.3-.9.5-1.4.5s-1-.2-1.4-.5c-.7-.5-1.3-1.5-1.6-2.4h-.2c-.1-.1-.2-.4-.3-.7v-.6s0-.1.1-.2h.2 0c0-.2.2-1.7 1.7-1.6 0 0 1.3.5 2.4 0h.4c.5 0 .8.3 1.1.4 0-.2-.1-.3-.1-.4h.2c.2.3.5.7.7 1.4h0 .1 0c.2 0 .2.4.2.9zm4.5 9.5H24.2c0-.7.1-1.3.3-2v-.1-.2h0c.9-2.4 2.3-2.5 2.6-2.6.7-.2 1.5 0 2-.2 0 .4 1.3 1.9 2.1 2.8l.4-1.4c-.3-.2-.3-.5-.3-.8h1.4c0 .3 0 .6-.3.8l.4 1.4c.8-.9 2.1-2.3 2.1-2.8.4.1 1.3 0 2 .2.3 0 1.7.2 2.6 2.6h0v.2h0v.1c.2.6.3 1.2.4 1.8v.2z"/><path d="M39.7 20.3H24.5c-.5 0-1 .4-1 1v16.1c0 .5.4.9 1 .9h15.2c.5 0 .9-.4.9-.9V21.3c0-.5-.4-1-.9-1zm-15.4.9c0-.1.1-.2.2-.2h15.2c.1 0 .2 0 .2.2v16.1c0 .1 0 .2-.2.2H24.5c-.1 0-.2-.1-.2-.2V21.2z"/><rect x="47.3" y="40.5" width="15.5" height="1.6" rx=".8"/><rect x="51.2" y="43.4" width="7.8" height="1.3" rx=".6"/><use href="#B" x="22.8"/><path d="M56.6 46.3h-2.5c-.2 0-.4.2-.4.3v2.5c0 .2.2.3.4.3h2.5c.2 0 .4-.2.4-.3v-2.5c0-.2-.2-.3-.4-.3zm-.3 1.2h0c0 .7-.5 1.4-1.4 1.4s-.5 0-.7-.2h.1c.2 0 .4 0 .6-.2-.2 0-.4-.1-.4-.3h.2c-.2 0-.4-.2-.4-.5h.2s-.1-.1-.1-.2v-.2-.2c.2.3.6.5 1 .5 0-.3.2-.6.5-.6s.3 0 .3.2c.1 0 .2 0 .3-.1 0 .1-.1.2-.2.3h.3l-.2.2zm5-1.2h-2.8c-.1 0-.2 0-.2.2v2.8c0 .1.1.2.2.2h2.8c.1 0 .2-.1.2-.2v-2.8c0-.1 0-.2-.2-.2zm-2.1 2.8h-.5v-1.5h.5v1.5zm-.2-1.7c-.1 0-.3-.1-.3-.3s.1-.3.3-.3.3.1.3.3-.1.3-.3.3zm2 1.7h-.5v-.8c0-.2 0-.4-.2-.4s-.3.2-.3.4v.8h-.5v-1.5h.5v.2h0c0-.1.2-.2.5-.2.5 0 .6.3.6.7v.8zm-2.3-22v-.5c0-2.3-1.3-3.6-3.5-3.8-1.8-.1-3.2.6-3.9 1.8-.2.4-.3.9-.4 1.5 0 .3-.1.6-.1.9h0c-.3 0-.4.6-.3 1.3.1.6.4 1.1.6 1.1.3.9.8 1.7 1.5 2.3.4.3.8.6 1.2.8.3.1.6.2.9.2s.6 0 .9-.2c.4-.2.8-.5 1.2-.8.6-.6 1.1-1.4 1.4-2.3.2 0 .5-.5.6-1.1s0-1.2-.2-1.3zm-.4 1.3c0 .3-.2.6-.3.7h-.2c-.3.9-.8 1.8-1.5 2.4-.4.3-.9.5-1.4.5s-1-.2-1.4-.5c-.7-.5-1.3-1.5-1.6-2.4h-.2c-.1-.1-.2-.4-.3-.7v-.6s0-.1.1-.2h.2 0c0-.2.2-1.7 1.7-1.6 0 0 1.3.5 2.4 0h.4c.5 0 .8.3 1.1.4 0-.2-.1-.3-.1-.4h.1c.2.3.5.7.7 1.4h0 .1 0c.2 0 .2.4.1.9zm4.5 9.5H47c0-.7.1-1.3.3-2v-.1-.2h0c.9-2.4 2.3-2.5 2.6-2.6.7-.2 1.5 0 2-.2 0 .4 1.3 1.9 2.1 2.8l.4-1.4c-.3-.2-.3-.5-.3-.8h1.4c0 .3 0 .6-.3.8l.4 1.4c.8-.9 2.1-2.3 2.1-2.8.4.1 1.3 0 2 .2.3 0 1.7.2 2.6 2.6h0v.2h0v.1c.2.6.3 1.2.4 1.8v.2z"/><path d="M62.5 20.3H47.3c-.5 0-.9.4-.9 1v16.1c0 .5.4.9.9.9h15.2c.5 0 1-.4 1-.9V21.3c0-.5-.4-1-1-1zm-15.4.9c0-.1 0-.2.2-.2h15.2c.1 0 .2 0 .2.2v16.1c0 .1 0 .2-.2.2H47.3c-.1 0-.2-.1-.2-.2V21.2zM78 40.5v1.6h-7.1c-.5 0-.8-.4-.8-.8s.4-.8.8-.8H78zm0 2.9v1.3h-3.4a.65.65 0 0 1-.6-.6.65.65 0 0 1 .6-.6H78zm-3.1 2.9h-2.5s-.2 0-.2.1l-.1.2v2.5s0 .2.1.2l.2.1h1v-1.1h-.5v-.5h.5v-.4a.68.68 0 0 1 .7-.7h.4v.4h-.2c-.2 0-.3.1-.3.3v.3h.5v.5H74v1.1h1s.2 0 .2-.1l.1-.2v-2.5s0-.2-.1-.2l-.2-.1zm3.1 1.3v-1.2h-1.2c-.2 0-.3.2-.3.3v2.5c0 .2.2.3.3.3H78v-.7h-.3c-.3 0-.5 0-.7-.2h.1c.2 0 .4 0 .6-.2a.55.55 0 0 1-.5-.3h.2c-.2 0-.4-.2-.4-.5h.2l-.2-.2v-.2-.2c.2.2.5.4.9.5z"/><path d="M74.2 27.6h.1 0c0-.2.2-1.7 1.7-1.6 0 0 .9.3 1.9.2v-3.4c-1.8-.1-3.2.6-3.8 1.8-.2.4-.3.9-.4 1.5 0 .3-.1.6-.1.9h0 0c-.3 0-.4.6-.3 1.3.1.6.4 1.1.6 1.1.3.9.8 1.7 1.5 2.3.4.3.8.6 1.2.8.3.1.6.2.9.2h.4V32h-.4c-.5 0-1-.2-1.4-.5-.7-.5-1.3-1.5-1.6-2.4h-.2c-.1-.1-.2-.4-.3-.7v-.6s0-.1.1-.2zM78 34h0v3.8h-8.2V37c0-.4.1-.8.3-1.2v-.1-.2h0c.5-1.2 1-1.8 1.5-2.2.5-.3.9-.4 1.1-.4.7-.2 1.5 0 1.9-.2 0 .4 1.3 1.9 2.1 2.8l.4-1.4c-.3-.2-.3-.5-.3-.8h1v.8z"/><path d="M69.8 21.2c0-.1.1-.2.2-.2h7.9v-.7H70c-.5 0-1 .4-1 1v16.1c0 .5.4.9 1 .9h7.9v-.7H70c-.1 0-.2-.1-.2-.2V21.3z"/><path d="M58.9 11.5a.47.47 0 0 1 .5-.5h.5a.47.47 0 0 1 .5.5v.5a.47.47 0 0 1-.5.5h-.5a.47.47 0 0 1-.5-.5v-.5zm-3.5 0a.47.47 0 0 1 .5-.5h1.5a.47.47 0 0 1 .5.5v.5a.47.47 0 0 1-.5.5h-1.5a.47.47 0 0 1-.5-.5v-.5zm-4.5 0a.47.47 0 0 1 .5-.5h2.5a.47.47 0 0 1 .5.5v.5a.47.47 0 0 1-.5.5h-2.5a.47.47 0 0 1-.5-.5v-.5z" fill-rule="evenodd"/><path d="M33.4 8.3c.3-.3.3-.8 0-1.1s-.8-.3-1.1 0l-4 4c-.3.3-.3.8 0 1.1l4 4c.3.3.8.3 1.1 0s.3-.8 0-1.1l-2.7-2.7h18.2.7a.47.47 0 0 0 .5-.5v-.5a.47.47 0 0 0-.5-.5h-1-17.9l2.7-2.7z"/></g><defs ><path id="B" d="M29.3 46.3h-2.5s-.2 0-.2.1l-.1.2v2.5s0 .2.1.2l.2.1h1v-1.1h-.5v-.5h.5v-.4a.68.68 0 0 1 .7-.7h.4v.4h-.2c-.2 0-.3.1-.3.3v.3h.5v.5h-.5v1.1h1s.2 0 .2-.1l.1-.2v-2.5s0-.2-.1-.2l-.2-.1z"/></defs></svg>