<svg xmlns="http://www.w3.org/2000/svg" width="200" height="36" fill="none" xmlns:v="https://vecta.io/nano"><rect x=".6" y=".6" width="198.8" height="34.8" rx="2.4" fill="#fff"/><rect x=".6" y=".6" width="198.8" height="34.8" rx="2.4" stroke="#768f9e" stroke-width="1.2"/><g fill="#58707f"><path d="M13.777 16.078v.738h-2.618v-.738h2.618zm-2.362-2.054V19h-.94v-4.977h.94zm3.059 0V19h-.94v-4.977h.94zm2.991 0V19h-.936v-4.977h.936zm1.545 0v.742h-4.009v-.742h4.009zm1.036 0h.813l1.36 3.746 1.357-3.746h.817L22.544 19h-.653l-1.846-4.977zm-.41 0h.796l.144 3.442V19h-.94v-4.977zm4.368 0h.8V19h-.94v-1.535l.14-3.442zm4.915 4.238V19h-2.502v-.738h2.502zM26.7 14.023V19h-.94v-4.977h.94z"/><rect x="150.167" y="17.909" width="6" height="6" rx=".667" transform="rotate(315 150.167 17.909)"/><rect x="146.5" y="11" width="16" height="9" rx="1.333"/></g><path d="M151.995 16.434c0 .266-.062.49-.187.674s-.292.319-.507.413a1.82 1.82 0 0 1-.727.138c-.269 0-.512-.046-.729-.138s-.386-.232-.513-.413-.187-.408-.187-.674c0-.178.035-.339.105-.483a1.12 1.12 0 0 1 .299-.372 1.31 1.31 0 0 1 .451-.24c.174-.057.363-.085.568-.085.274 0 .518.05.733.149s.387.235.51.413a1.05 1.05 0 0 1 .184.618zm-.779-.047c0-.137-.028-.255-.082-.355s-.128-.18-.226-.234-.211-.082-.34-.082-.245.027-.342.082a.58.58 0 0 0-.226.234c-.053.1-.079.218-.079.355a.75.75 0 0 0 .079.357c.055.098.131.173.229.226s.212.079.345.079a.7.7 0 0 0 .343-.079.53.53 0 0 0 .22-.226c.052-.1.079-.219.079-.357zm.685-1.928c0 .215-.056.406-.17.574s-.27.296-.471.39-.428.141-.686.141-.488-.047-.691-.141a1.16 1.16 0 0 1-.475-.39c-.113-.168-.17-.359-.17-.574 0-.254.058-.469.173-.645s.273-.312.472-.404a1.63 1.63 0 0 1 .685-.138 1.65 1.65 0 0 1 .692.138 1.07 1.07 0 0 1 .471.404c.114.176.17.391.17.645zm-.773.032a.71.71 0 0 0-.067-.316c-.045-.092-.11-.163-.194-.214s-.181-.076-.299-.076-.211.024-.293.073-.145.119-.19.211-.067.197-.067.322.022.23.067.322.108.164.19.217.184.076.299.076.214-.025.296-.076a.53.53 0 0 0 .191-.217c.044-.092.067-.199.067-.322zm4.289.609v.718c0 .328-.033.608-.1.841s-.162.423-.287.571-.274.255-.448.325a1.57 1.57 0 0 1-.58.103c-.17 0-.328-.021-.475-.064a1.21 1.21 0 0 1-.395-.205c-.115-.094-.215-.213-.299-.357a1.88 1.88 0 0 1-.19-.518c-.043-.201-.065-.433-.065-.694v-.718c0-.328.033-.608.1-.838s.165-.419.29-.566.274-.253.448-.319a1.57 1.57 0 0 1 .58-.102c.172 0 .33.021.475.064s.277.11.392.202.217.207.299.351.145.314.188.516.067.43.067.692zm-.773.823v-.932a2.66 2.66 0 0 0-.03-.428c-.017-.123-.044-.227-.079-.313a.62.62 0 0 0-.132-.208.48.48 0 0 0-.181-.12.65.65 0 0 0-.226-.038c-.101 0-.192.021-.272.062s-.148.101-.203.188-.096.2-.125.343a2.69 2.69 0 0 0-.042.516v.932c0 .164.009.308.027.431s.047.229.082.316.081.16.132.217a.51.51 0 0 0 .181.123.65.65 0 0 0 .226.038c.103 0 .194-.02.272-.061a.52.52 0 0 0 .203-.193c.054-.09.095-.206.123-.349a2.69 2.69 0 0 0 .044-.521zM156 14.38v-.226c0-.162.035-.31.105-.442a.81.81 0 0 1 .308-.319c.137-.08.303-.12.498-.12s.366.04.501.12.239.187.308.319.105.28.105.442v.226a.92.92 0 0 1-.105.437.79.79 0 0 1-.305.319.96.96 0 0 1-.498.12c-.197 0-.364-.04-.501-.12s-.24-.187-.311-.319a.92.92 0 0 1-.105-.437zm.524-.226v.226c0 .074.014.145.041.211s.074.117.132.158.132.062.22.062.159-.021.214-.062.098-.094.126-.158a.52.52 0 0 0 .044-.211v-.226a.53.53 0 0 0-.044-.214c-.028-.066-.07-.12-.129-.161a.36.36 0 0 0-.217-.062.37.37 0 0 0-.217.062.4.4 0 0 0-.129.161c-.027.066-.041.138-.041.214zm1.524 2.625v-.226c0-.16.035-.307.105-.439s.177-.239.314-.319.302-.12.495-.12c.201 0 .369.04.504.12a.79.79 0 0 1 .305.319c.07.133.105.279.105.439v.226c0 .16-.035.307-.105.439a.79.79 0 0 1-.305.319c-.133.08-.299.12-.498.12s-.363-.04-.501-.12-.241-.187-.314-.319-.105-.279-.105-.439zm.527-.226v.226a.5.5 0 0 0 .047.214.4.4 0 0 0 .135.158c.06.041.131.062.211.062.097 0 .175-.021.231-.062s.097-.094.12-.158.035-.138.035-.214v-.226a.51.51 0 0 0-.043-.211.39.39 0 0 0-.132-.161c-.057-.041-.129-.061-.217-.061a.37.37 0 0 0-.217.061.39.39 0 0 0-.129.161.54.54 0 0 0-.041.211zm.58-2.61l-2.083 3.334-.384-.214 2.083-3.334.384.214z" fill="#fff"/><path fill="#d8dadb" d="M10.5 23h180v2h-180z"/><path fill="#58707f" d="M10.5 23h144v2h-144z"/></svg>