<svg xmlns="http://www.w3.org/2000/svg" width="200" height="36" fill="none" xmlns:v="https://vecta.io/nano"><rect x=".6" y=".6" width="198.8" height="34.8" rx="2.4" fill="#fff"/><rect x=".6" y=".6" width="198.8" height="34.8" rx="2.4" stroke="#768f9e" stroke-width="1.2"/><path d="M13.777 12.078v.738h-2.618v-.738h2.618zm-2.362-2.054V15h-.94v-4.977h.94zm3.059 0V15h-.94v-4.977h.94zm2.991 0V15h-.936v-4.977h.936zm1.545 0v.742h-4.009v-.742h4.009zm1.036 0h.813l1.36 3.746 1.357-3.746h.817L22.544 15h-.653l-1.846-4.977zm-.41 0h.796l.144 3.442V15h-.94v-4.977zm4.368 0h.8V15h-.94v-1.535l.14-3.442zm4.915 4.238V15h-2.502v-.738h2.502zM26.7 10.023V15h-.94v-4.977h.94zm154.495 3.617c0 .31-.073.572-.219.786a1.35 1.35 0 0 1-.591.482c-.249.107-.531.161-.848.161a2.16 2.16 0 0 1-.851-.161c-.251-.109-.45-.27-.598-.482s-.219-.476-.219-.786c0-.207.041-.395.123-.564a1.31 1.31 0 0 1 .349-.434 1.53 1.53 0 0 1 .526-.28 2.13 2.13 0 0 1 .663-.099c.319 0 .604.058.855.174a1.43 1.43 0 0 1 .594.482c.143.207.216.445.216.721zm-.91-.055c0-.16-.031-.297-.095-.414a.68.68 0 0 0-.263-.274.8.8 0 0 0-.397-.096c-.153 0-.286.032-.4.096a.66.66 0 0 0-.263.274c-.064.119-.092.254-.092.414a.88.88 0 0 0 .092.417.66.66 0 0 0 .267.263.83.83 0 0 0 .403.092c.155 0 .288-.031.4-.092a.62.62 0 0 0 .256-.263c.062-.116.092-.255.092-.417zm.8-2.249a1.17 1.17 0 0 1-.198.67 1.33 1.33 0 0 1-.55.454 1.86 1.86 0 0 1-.8.164 1.91 1.91 0 0 1-.807-.164 1.35 1.35 0 0 1-.553-.454c-.133-.196-.199-.419-.199-.67 0-.296.068-.547.202-.752s.318-.365.55-.472a1.91 1.91 0 0 1 .8-.161c.303 0 .572.054.807.161s.418.264.55.472.198.456.198.752zm-.902.038a.81.81 0 0 0-.079-.369.58.58 0 0 0-.225-.25.65.65 0 0 0-.349-.089c-.132 0-.246.028-.342.085a.57.57 0 0 0-.222.246.83.83 0 0 0-.079.376.85.85 0 0 0 .079.376.63.63 0 0 0 .222.253.66.66 0 0 0 .349.089c.134 0 .249-.03.345-.089a.61.61 0 0 0 .222-.253c.053-.107.079-.232.079-.376zm5.004.711v.837c0 .383-.039.71-.116.981s-.19.493-.335.667a1.31 1.31 0 0 1-.523.379 1.79 1.79 0 0 1-.677.12 1.97 1.97 0 0 1-.554-.075 1.41 1.41 0 0 1-.461-.239c-.135-.109-.251-.248-.349-.417s-.17-.37-.222-.605-.075-.505-.075-.81v-.837c0-.383.039-.709.116-.978a1.8 1.8 0 0 1 .338-.66 1.29 1.29 0 0 1 .523-.373 1.84 1.84 0 0 1 .677-.12c.201 0 .385.025.554.075a1.33 1.33 0 0 1 .458.236c.137.105.253.242.348.41s.169.367.219.601.079.501.079.807zm-.903.96v-1.087c0-.191-.011-.358-.034-.499a1.53 1.53 0 0 0-.092-.366.72.72 0 0 0-.154-.243.56.56 0 0 0-.212-.14c-.079-.03-.167-.044-.263-.044a.69.69 0 0 0-.318.072c-.093.046-.172.118-.236.219a1.22 1.22 0 0 0-.147.4 3.3 3.3 0 0 0-.047.602v1.087a3.69 3.69 0 0 0 .03.502c.023.143.055.267.096.369a.9.9 0 0 0 .154.253c.061.064.132.112.212.144a.75.75 0 0 0 .263.044c.121 0 .227-.024.318-.072a.62.62 0 0 0 .236-.226 1.25 1.25 0 0 0 .143-.407c.034-.169.051-.371.051-.608zm1.583-1.801v-.263c0-.189.041-.361.123-.516a.94.94 0 0 1 .359-.373c.159-.093.353-.14.581-.14a1.14 1.14 0 0 1 .584.14.9.9 0 0 1 .359.373c.082.155.123.327.123.516v.263a1.07 1.07 0 0 1-.123.509.91.91 0 0 1-.355.373 1.12 1.12 0 0 1-.581.14c-.23 0-.425-.047-.585-.14s-.28-.218-.362-.373a1.07 1.07 0 0 1-.123-.509zm.612-.263v.263a.64.64 0 0 0 .048.246.45.45 0 0 0 .153.185c.068.048.154.072.257.072a.4.4 0 0 0 .249-.072c.063-.048.115-.109.147-.185s.052-.159.052-.246v-.263a.61.61 0 0 0-.052-.249.42.42 0 0 0-.403-.26.43.43 0 0 0-.253.072.45.45 0 0 0-.15.188c-.032.077-.048.161-.048.249zm1.777 3.063v-.263a1.08 1.08 0 0 1 .123-.513.96.96 0 0 1 .366-.373c.159-.093.352-.14.578-.14.234 0 .43.047.587.14a.92.92 0 0 1 .356.373 1.08 1.08 0 0 1 .123.513v.263a1.08 1.08 0 0 1-.123.513c-.08.155-.198.279-.356.373s-.348.14-.581.14c-.227 0-.422-.047-.584-.14a.96.96 0 0 1-.366-.373 1.08 1.08 0 0 1-.123-.513zm.615-.263v.263a.59.59 0 0 0 .055.25.48.48 0 0 0 .157.185.43.43 0 0 0 .246.072.45.45 0 0 0 .27-.072.39.39 0 0 0 .141-.185c.028-.076.041-.161.041-.25v-.263a.59.59 0 0 0-.052-.246.44.44 0 0 0-.154-.188c-.066-.048-.15-.072-.252-.072s-.185.024-.253.072-.117.111-.151.188a.62.62 0 0 0-.048.246zm.677-3.045l-2.43 3.89-.448-.25 2.43-3.89.448.25z" fill="#58707f"/><rect x="10.5" y="19" width="180" height="6.5" rx="3.25" fill="#d8dadb"/><rect x="10.5" y="19" width="144" height="6.5" rx="3.25" fill="#58707f"/></svg>