<svg xmlns="http://www.w3.org/2000/svg" width="200" height="36" fill="none" xmlns:v="https://vecta.io/nano"><style><![CDATA[.B{fill-opacity:.75}]]></style><rect x=".6" y=".6" width="198.8" height="34.8" rx="2.4" fill="#fff"/><rect x=".6" y=".6" width="198.8" height="34.8" rx="2.4" stroke="#768f9e" stroke-width="1.2"/><path stroke="#a1afb8" stroke-width=".5" d="M10.25 12.25h179.5v11.5H10.25z"/><mask id="A" maskUnits="userSpaceOnUse" x="-26" y="3" width="232" height="29" mask-type="alpha"><g fill="#ed5564"><path transform="rotate(45 9.164 3.273)" d="M9.164 3.273h4.636v31.091H9.164z"/><path transform="rotate(45 21.799 3.273)" d="M21.799 3.273h4.636v31.091h-4.636z"/><path transform="rotate(45 34.433 3.273)" d="M34.433 3.273h4.636v31.091h-4.636z"/><path transform="rotate(45 47.068 3.273)" d="M47.068 3.273h4.636v31.091h-4.636z"/><path transform="rotate(45 59.702 3.273)" d="M59.702 3.273h4.636v31.091h-4.636z"/><path transform="rotate(45 72.337 3.273)" d="M72.337 3.273h4.636v31.091h-4.636z"/><path transform="rotate(45 84.971 3.273)" d="M84.971 3.273h4.636v31.091h-4.636z"/><path transform="rotate(45 97.605 3.273)" d="M97.605 3.273h4.636v31.091h-4.636z"/><path transform="rotate(45 110.24 3.273)" d="M110.24 3.273h4.636v31.091h-4.636z"/><path transform="rotate(45 122.874 3.273)" d="M122.874 3.273h4.636v31.091h-4.636z"/><path transform="rotate(45 135.509 3.273)" d="M135.509 3.273h4.636v31.091h-4.636z"/><path transform="rotate(45 148.143 3.273)" d="M148.143 3.273h4.636v31.091h-4.636z"/><path transform="rotate(45 160.777 3.273)" d="M160.777 3.273h4.636v31.091h-4.636z"/><path transform="rotate(45 173.412 3.273)" d="M173.412 3.273h4.636v31.091h-4.636z"/><path transform="rotate(45 186.046 3.273)" d="M186.046 3.273h4.636v31.091h-4.636z"/><path transform="rotate(45 198.681 3.273)" d="M198.681 3.273h4.636v31.091h-4.636z"/><path transform="rotate(45 -.191 6.551)" d="M-.191 6.551h4.636v31.091H-.191z" class="B"/><path transform="rotate(45 12.443 6.551)" d="M12.443 6.551h4.636v31.091h-4.636z" class="B"/><path transform="rotate(45 25.077 6.551)" d="M25.077 6.551h4.636v31.091h-4.636z" class="B"/><path transform="rotate(45 37.712 6.551)" d="M37.712 6.551h4.636v31.091h-4.636z" class="B"/><path transform="rotate(45 50.346 6.551)" d="M50.346 6.551h4.636v31.091h-4.636z" class="B"/><path transform="rotate(45 62.981 6.551)" d="M62.981 6.551h4.636v31.091h-4.636z" class="B"/><path transform="rotate(45 75.615 6.551)" d="M75.615 6.551h4.636v31.091h-4.636z" class="B"/><path transform="rotate(45 88.249 6.551)" d="M88.249 6.551h4.636v31.091h-4.636z" class="B"/><path transform="rotate(45 100.884 6.551)" d="M100.884 6.551h4.636v31.091h-4.636z" class="B"/><path transform="rotate(45 113.518 6.551)" d="M113.518 6.551h4.636v31.091h-4.636z" class="B"/><path transform="rotate(45 126.153 6.551)" d="M126.153 6.551h4.636v31.091h-4.636z" class="B"/><path transform="rotate(45 138.787 6.551)" d="M138.787 6.551h4.636v31.091h-4.636z" class="B"/><path transform="rotate(45 151.421 6.551)" d="M151.421 6.551h4.636v31.091h-4.636z" class="B"/><path transform="rotate(45 164.056 6.551)" d="M164.056 6.551h4.636v31.091h-4.636z" class="B"/><path transform="rotate(45 176.69 6.551)" d="M176.69 6.551h4.636v31.091h-4.636z" class="B"/><path transform="rotate(45 189.325 6.551)" d="M189.325 6.551h4.636v31.091h-4.636z" class="B"/><path transform="rotate(45 201.959 6.551)" d="M201.959 6.551h4.636v31.091h-4.636z" class="B"/></g></mask><g mask="url(#A)"><path fill="#58707f" d="M10 12h144v12H10z"/></g><path d="M17.777 17.578v.738h-2.618v-.738h2.618zm-2.362-2.054V20.5h-.94v-4.977h.94zm3.059 0V20.5h-.94v-4.977h.94zm2.991 0V20.5h-.936v-4.977h.936zm1.545 0v.742h-4.009v-.742h4.009zm1.036 0h.813l1.36 3.746 1.357-3.746h.817L26.544 20.5h-.653l-1.846-4.977zm-.41 0h.796l.144 3.442V20.5h-.94v-4.977zm4.368 0h.8V20.5h-.94v-1.535l.14-3.442zm4.915 4.238v.738h-2.502v-.738h2.502zM30.7 15.523V20.5h-.94v-4.977h.94z" fill="#fff"/><path d="M177.195 19.14c0 .31-.073.572-.219.786s-.341.373-.591.482-.531.161-.848.161-.598-.054-.851-.161-.45-.27-.598-.482-.219-.476-.219-.786c0-.207.041-.395.123-.564a1.31 1.31 0 0 1 .349-.434 1.53 1.53 0 0 1 .526-.28 2.13 2.13 0 0 1 .663-.099c.319 0 .604.058.855.174a1.4 1.4 0 0 1 .594.482c.144.205.216.445.216.721zm-.909-.055c0-.16-.032-.297-.096-.414a.65.65 0 0 0-.263-.273.8.8 0 0 0-.397-.096c-.152 0-.286.032-.4.096s-.199.155-.263.273a.88.88 0 0 0-.092.414c0 .162.031.301.092.417a.66.66 0 0 0 .267.263c.114.062.248.092.403.092s.288-.031.4-.092.197-.149.256-.263.093-.255.093-.417zm.799-2.249a1.17 1.17 0 0 1-.198.67c-.132.194-.315.345-.55.454a1.86 1.86 0 0 1-.8.164c-.301 0-.57-.055-.807-.164a1.35 1.35 0 0 1-.553-.454 1.17 1.17 0 0 1-.198-.67c0-.296.067-.547.201-.752s.318-.365.55-.472a1.91 1.91 0 0 1 .8-.161c.303 0 .572.053.807.161a1.25 1.25 0 0 1 .55.472c.132.205.198.456.198.752zm-.902.038c0-.141-.026-.264-.079-.369a.58.58 0 0 0-.225-.25.65.65 0 0 0-.349-.089c-.132 0-.246.029-.342.085s-.169.139-.222.246-.078.23-.078.376a.85.85 0 0 0 .078.376c.053.107.127.191.222.253s.215.089.349.089a.64.64 0 0 0 .345-.089.61.61 0 0 0 .222-.253c.053-.107.079-.232.079-.376zm5.004.711v.837c0 .383-.039.71-.116.981s-.189.493-.335.666a1.34 1.34 0 0 1-.523.379c-.203.08-.428.12-.677.12-.198 0-.383-.025-.554-.075s-.324-.132-.461-.239-.251-.248-.349-.417a2.23 2.23 0 0 1-.222-.605c-.05-.235-.075-.505-.075-.81v-.837c0-.383.039-.709.116-.978s.193-.489.339-.66.32-.295.523-.373a1.83 1.83 0 0 1 .676-.12c.201 0 .385.025.554.075a1.32 1.32 0 0 1 .458.236c.137.105.253.242.349.41s.168.367.218.601.079.501.079.807zm-.902.96v-1.087a3.14 3.14 0 0 0-.035-.499 1.53 1.53 0 0 0-.092-.366.72.72 0 0 0-.154-.243.56.56 0 0 0-.212-.14c-.079-.03-.167-.044-.263-.044a.69.69 0 0 0-.318.072.58.58 0 0 0-.235.219c-.064.1-.113.234-.147.4s-.048.365-.048.602v1.087c0 .191.01.359.031.503a1.69 1.69 0 0 0 .095.369.92.92 0 0 0 .154.253c.062.064.132.112.212.144a.75.75 0 0 0 .263.044c.121 0 .227-.024.318-.072s.172-.123.236-.226.111-.24.143-.407.052-.371.052-.608zm1.582-1.801v-.263c0-.189.041-.361.123-.516a.94.94 0 0 1 .359-.373c.16-.093.353-.14.581-.14a1.13 1.13 0 0 1 .585.14c.159.093.279.218.359.373s.123.327.123.516v.263a1.07 1.07 0 0 1-.123.509.92.92 0 0 1-.356.373 1.12 1.12 0 0 1-.581.14c-.23 0-.425-.047-.584-.14a.93.93 0 0 1-.363-.373 1.07 1.07 0 0 1-.123-.509zm.612-.263v.263a.64.64 0 0 0 .048.246.44.44 0 0 0 .154.185c.068.048.153.072.256.072s.186-.024.25-.072.115-.109.146-.185a.59.59 0 0 0 .052-.246v-.263a.6.6 0 0 0-.052-.249c-.031-.078-.082-.14-.15-.188a.42.42 0 0 0-.253-.072c-.1 0-.184.024-.253.072a.45.45 0 0 0-.15.188c-.032.077-.048.161-.048.249zm1.777 3.063v-.263a1.08 1.08 0 0 1 .123-.513c.085-.155.207-.279.366-.373s.352-.14.578-.14c.234 0 .43.047.588.14s.275.218.355.373a1.08 1.08 0 0 1 .123.513v.263a1.08 1.08 0 0 1-.123.513c-.08.155-.198.279-.355.372s-.349.14-.581.14-.423-.047-.585-.14-.281-.218-.366-.372a1.08 1.08 0 0 1-.123-.513zm.616-.263v.263c0 .089.018.172.054.25a.48.48 0 0 0 .157.185.43.43 0 0 0 .247.072c.114 0 .204-.024.27-.072a.39.39 0 0 0 .14-.185c.027-.078.041-.161.041-.25v-.263c0-.089-.017-.171-.052-.246s-.085-.14-.153-.188-.151-.072-.253-.072-.185.024-.253.072a.46.46 0 0 0-.151.188.64.64 0 0 0-.047.246zm.676-3.045l-2.43 3.89-.448-.249 2.431-3.89.447.25z" fill="#58707f"/></svg>