<svg xmlns="http://www.w3.org/2000/svg" width="36" height="36" fill="none" xmlns:v="https://vecta.io/nano"><rect x=".5" y=".5" width="35" height="35" rx="1.5" stroke="#768f9e"/><g fill-rule="evenodd"><path d="M32 18c0-7.731-6.269-14-14-14S4 10.269 4 18c0 6.987 5.119 12.779 11.813 13.831v-9.783h-3.556V18h3.556v-3.085c0-3.508 2.091-5.448 5.288-5.448 1.532 0 3.134.274 3.134.274v3.445h-1.766c-1.738 0-2.282 1.079-2.282 2.187V18h3.882l-.62 4.048h-3.262v9.783C26.881 30.781 32 24.989 32 18h0z" fill="#58707f"/><path d="M23.45 22.048L24.07 18h-3.882v-2.626c0-1.107.541-2.187 2.282-2.187h1.766V9.741s-1.603-.274-3.134-.274c-3.197 0-5.288 1.937-5.288 5.448V18h-3.556v4.048h3.556v9.783A14.08 14.08 0 0 0 18 32a14.32 14.32 0 0 0 2.187-.169v-9.783h3.262 0z" fill="#fff"/></g></svg>