<svg xmlns="http://www.w3.org/2000/svg" viewBox="0 0 120 80" xmlns:v="https://vecta.io/nano"><path d="M117,80H3c-1.7,0-3-1.3-3-3V3C0,1.3,1.3,0,3,0h114c1.7,0,3,1.3,3,3v74c0,1.7-1.3,3-3,3ZM3,1.5c-.8,0-1.5.7-1.5,1.5v74c0,.8.7,1.5,1.5,1.5h114c.8,0,1.5-.7,1.5-1.5V3c0-.8-.7-1.5-1.5-1.5H3Z" fill="#768f9e"/><g fill="#58707f"><use href="#B"/><path d="M34.5 52.8c.5 0 .9-.4.9-.9s-.4-.9-.9-.9H26c-.5 0-.9.4-.9.9s.4.9.9.9h8.5zm-8.2 2.1H23c-.1 0-.2 0-.3.1 0 0-.1.2-.1.3v3.3c0 .1 0 .2.1.3 0 0 .2.1.3.1h1.3v-1.4h-.6v-.7h.6v-.5c0-.6.4-.9.9-.9h.5v.6h-.3c-.3 0-.4.2-.4.4v.4h.7v.7H25V59h1.3c.1 0 .2 0 .3-.1 0 0 .1-.2.1-.3v-3.3c0-.1 0-.2-.1-.3 0 0-.2-.1-.3-.1zm6 0H29a.47.47 0 0 0-.5.5v3.3a.47.47 0 0 0 .5.5h3.3a.47.47 0 0 0 .5-.5v-3.3a.47.47 0 0 0-.5-.5zm-.5 1.6c0 .8-.6 1.8-1.8 1.8s-.7-.1-1-.3h.2c.3 0 .6 0 .8-.3-.3 0-.5-.2-.6-.4h.3c-.3 0-.5-.3-.5-.6h0 .3s-.2-.1-.2-.2v-.3-.3c.3.4.8.6 1.3.7 0-.4.2-.8.6-.8s.3 0 .5.2c.1 0 .3 0 .4-.2 0 .1-.1.3-.3.3h.4c0 .1-.2.2-.3.3z"/><use href="#C"/><path d="M40 20.6H20c-.7 0-1.2.6-1.2 1.2v21.3c0 .7.6 1.2 1.2 1.2h20c.7 0 1.2-.6 1.2-1.2V21.8c0-.7-.6-1.2-1.2-1.2zm-20 1h20c.2 0 .3.1.3.3V43c0-.6-.2-1.3-.4-1.9v-.2h0v-.3h0c-1.2-3.2-3-3.3-3.5-3.4-.9-.2-2-.1-2.6-.3 0 .6-1.7 2.4-2.8 3.6l-.5-1.8c.4-.2.4-.7.4-1.1h-1.8c0 .4 0 .8.4 1l-.5 1.8c-1.1-1.2-2.7-3.1-2.8-3.6-.6.2-1.7 0-2.6.3-.4 0-2.3.2-3.5 3.4h0v.2.2a4.53 4.53 0 0 0-.3 1.6V21.7c0-.2.1-.3.3-.3z"/><use href="#D"/><use href="#B" x="30"/><path d="M64.5 52.8c.5 0 .9-.4.9-.9s-.4-.9-.9-.9H56c-.5 0-.9.4-.9.9s.4.9.9.9h8.5zm-8.2 2.1H53c-.1 0-.2 0-.3.1 0 0-.1.2-.1.3v3.3c0 .1 0 .2.1.3s.2.1.3.1h1.3v-1.4h-.6v-.7h.6v-.5c0-.6.4-.9.9-.9h.5v.6h-.3c-.3 0-.4.2-.4.4v.4h.7v.7H55V59h1.3c.1 0 .2 0 .3-.1 0 0 .1-.2.1-.3v-3.3c0-.1 0-.2-.1-.3s-.2-.1-.3-.1zm6 0H59a.47.47 0 0 0-.5.5v3.3a.47.47 0 0 0 .5.5h3.3a.47.47 0 0 0 .5-.5v-3.3a.47.47 0 0 0-.5-.5zm-.5 1.6c0 .8-.6 1.8-1.8 1.8s-.7-.1-1-.3h.2c.3 0 .6 0 .8-.3-.3 0-.5-.2-.6-.4h.3c-.3 0-.5-.3-.5-.6h0 .3s-.2-.1-.2-.2v-.3-.3c.3.4.8.6 1.3.7 0-.4.2-.8.6-.8s.3 0 .5.2c.1 0 .3 0 .4-.2 0 .1-.1.3-.3.3h.4c0 .1-.2.2-.3.3z"/><use href="#C" x="30"/><path d="M70 20.6H50c-.7 0-1.2.6-1.2 1.2v21.3c0 .7.6 1.2 1.2 1.2h20c.7 0 1.2-.6 1.2-1.2V21.8c0-.7-.6-1.2-1.2-1.2zm-20 1h20c.2 0 .3.1.3.3V43c0-.6-.2-1.3-.4-1.9v-.2h0v-.3h0c-1.2-3.2-3-3.3-3.5-3.4-.9-.2-2-.1-2.6-.3 0 .6-1.7 2.4-2.8 3.6l-.5-1.8c.4-.2.4-.7.4-1.1h-1.8c0 .4 0 .8.4 1l-.5 1.8c-1.1-1.2-2.7-3.1-2.8-3.6-.6.2-1.7 0-2.6.3-.4 0-2.3.2-3.5 3.4h0v.2.2a4.53 4.53 0 0 0-.3 1.6V21.6c0-.2.1-.3.3-.3z"/><use href="#D" x="30"/><use href="#B" x="60"/><path d="M94.5 52.8c.5 0 .9-.4.9-.9s-.4-.9-.9-.9H86c-.5 0-.9.4-.9.9s.4.9.9.9h8.5zm-8.2 2.1H83c-.1 0-.2 0-.3.1s-.1.2-.1.3v3.3c0 .1 0 .2.1.3 0 0 .2.1.3.1h1.3v-1.4h-.6v-.7h.6v-.5c0-.6.4-.9.9-.9h.5v.6h-.3c-.3 0-.4.2-.4.4v.4h.7v.7H85V59h1.3c.1 0 .2 0 .3-.1s.1-.2.1-.3v-3.3c0-.1 0-.2-.1-.3 0 0-.2-.1-.3-.1zm6 0H89a.47.47 0 0 0-.5.5v3.3a.47.47 0 0 0 .5.5h3.3a.47.47 0 0 0 .5-.5v-3.3a.47.47 0 0 0-.5-.5zm-.5 1.6c0 .8-.6 1.8-1.8 1.8s-.7-.1-1-.3h.2c.3 0 .6 0 .8-.3-.3 0-.5-.2-.6-.4h.3c-.3 0-.5-.3-.5-.6h0 .3s-.2-.1-.2-.2v-.3-.3c.3.4.8.6 1.3.7 0-.4.2-.8.6-.8s.3 0 .5.2c.1 0 .3 0 .4-.2 0 .1-.1.3-.3.3h.4c0 .1-.2.2-.3.3z"/><use href="#C" x="60"/><path d="M100 20.6H80c-.7 0-1.2.6-1.2 1.2v21.3c0 .7.6 1.2 1.2 1.2h20c.7 0 1.2-.6 1.2-1.2V21.8c0-.7-.6-1.2-1.2-1.2zm-20 1h20c.2 0 .3.1.3.3V43c0-.6-.2-1.3-.4-1.9v-.2h0v-.3h0c-1.2-3.2-3-3.3-3.5-3.4-.9-.2-2-.1-2.6-.3 0 .6-1.7 2.4-2.8 3.6l-.5-1.8c.4-.2.4-.7.4-1.1h-1.8c0 .4 0 .8.4 1l-.5 1.8c-1.1-1.2-2.7-3.1-2.8-3.6-.6.2-1.7 0-2.6.3-.4 0-2.3.2-3.5 3.4h0v.2.2a4.53 4.53 0 0 0-.3 1.6V21.6c0-.2.1-.3.3-.3z"/><use href="#D" x="60"/><path d="M10.2 34.7L5 40l5.2 5.2.8-1.5L7.2 40l3.8-3.8-.8-1.5zm99.5 0l-.7 1.5 3.7 3.8-3.7 3.7.7 1.5L115 40l-5.3-5.3z"/></g><defs ><path id="B" d="M39.4,47.2h-18.3c-.6,0-1.1.5-1.1,1.1s.5,1.1,1.1,1.1h18.3c.6,0,1.1-.5,1.1-1.1s-.5-1.1-1.1-1.1Z"/><path id="C" d="M38.4 54.9h-3.7c-.2 0-.3.1-.3.3v3.6c0 .2.1.3.3.3h3.7c.2 0 .3-.1.3-.3v-3.6c0-.2-.1-.3-.3-.3zm-2.7 3.7h-.6v-2h.6v2zm-.3-2.3c-.2 0-.4-.2-.4-.4s.2-.4.4-.4.4.2.4.4-.2.4-.4.4zm2.7 2.3h-.6v-1c0-.2 0-.5-.3-.5s-.4.3-.4.5v1h-.6v-2h.6v.3h0c0-.2.3-.3.6-.3.6 0 .8.4.8 1v1.1z"/><path id="D" d="M25.2 32.7c.4 1.1 1.1 2.2 1.9 3.1.5.5 1 .8 1.5 1 .4.1.8.2 1.2.2s.8 0 1.2-.2c.6-.2 1.1-.6 1.6-1.1.8-.8 1.5-1.9 1.9-3 .3 0 .7-.7.8-1.5s0-1.6-.3-1.7v-.6c0-3-1.8-4.8-4.6-4.9-2.4-.2-4.3.8-5.1 2.4-.3.5-.4 1.2-.5 1.9 0 .4-.1.8-.1 1.2h0c-.4 0-.5.8-.4 1.7.1.8.5 1.4.8 1.5zm.1-2.2c0-.1 0-.2.1-.2h.2 0c0-.2.3-2.2 2.2-2 0 0 1.7.6 3.2 0h.5c.6 0 1.1.4 1.5.6 0-.2-.2-.4-.2-.6h.2c.3.3.6.9.9 1.9h0 0 .2c.2 0 .3.6.2 1.1 0 .4-.2.8-.4.9h-.2-.1c-.4 1.2-1.1 2.4-2 3.1-.6.4-1.2.7-1.8.7s-1.2-.3-1.8-.7c-.9-.7-1.7-1.9-2.1-3.1h-.1s-.2 0-.2-.1c-.2-.2-.3-.5-.4-.9v-.8z"/></defs></svg>