<svg xmlns="http://www.w3.org/2000/svg" viewBox="0 0 120 80" xmlns:v="https://vecta.io/nano"><path d="M117,80H3c-1.7,0-3-1.3-3-3V3C0,1.3,1.3,0,3,0h114c1.7,0,3,1.3,3,3v74c0,1.7-1.3,3-3,3ZM3,1.5c-.8,0-1.5.7-1.5,1.5v74c0,.8.7,1.5,1.5,1.5h114c.8,0,1.5-.7,1.5-1.5V3c0-.8-.7-1.5-1.5-1.5H3Z" fill="#768f9e"/><g fill="#58707f"><path d="M31.7 10H16.2c-.7 0-1.3.6-1.3 1.3v16.5c0 .7.6 1.3 1.3 1.3h15.5c.7 0 1.3-.6 1.3-1.3V11.3c0-.7-.6-1.3-1.3-1.3zm-15.4.9h15.5c.2 0 .3.1.3.3v15.6c0-.2 0-.3-.1-.5v-.2h0v-.2h0c-.9-2.5-2.4-2.6-2.8-2.7-.7-.2-1.6 0-2.1-.2 0 .5-1.4 2-2.3 2.9l-.4-1.5c.3-.2.3-.5.3-.8h-1.4c0 .3 0 .7.3.8l-.4 1.5c-.9-.9-2.2-2.4-2.3-2.9-.5.1-1.3 0-2.1.2-.3 0-1.8.2-2.8 2.7h0v.2.2.3-15.4c0-.2.1-.3.3-.3z"/><use href="#B"/><use href="#C"/><use href="#D"/><use href="#E"/><path d="M55.7 10H40.2c-.7 0-1.3.6-1.3 1.3v16.5c0 .7.6 1.3 1.3 1.3h15.5c.7 0 1.3-.6 1.3-1.3V11.3c0-.7-.6-1.3-1.3-1.3zm-15.4.9h15.5c.2 0 .3.1.3.3v15.6c0-.2 0-.3-.1-.5v-.2h0v-.2h0c-.9-2.5-2.4-2.6-2.8-2.7-.7-.2-1.6 0-2.1-.2 0 .5-1.4 2-2.3 2.9l-.4-1.5c.3-.2.3-.5.3-.8h-1.4c0 .3 0 .7.3.8l-.4 1.5c-.9-.9-2.2-2.4-2.3-2.9-.5.1-1.3 0-2.1.2-.3 0-1.8.2-2.8 2.7h0v.2.2.3-15.4c0-.2.1-.3.3-.3z"/><use href="#B" x="24"/><use href="#C" x="24"/><use href="#D" x="24"/><use href="#E" x="24"/><path d="M79.7 10H64.2c-.7 0-1.3.6-1.3 1.3v16.5c0 .7.6 1.3 1.3 1.3h15.5c.7 0 1.3-.6 1.3-1.3V11.3c0-.7-.6-1.3-1.3-1.3zm-15.4.9h15.5c.2 0 .3.1.3.3v15.6c0-.2 0-.3-.1-.5v-.2h0v-.2h0c-.9-2.5-2.4-2.6-2.8-2.7-.7-.2-1.6 0-2.1-.2 0 .5-1.4 2-2.3 2.9l-.4-1.5c.3-.2.3-.5.3-.8h-1.4c0 .3 0 .7.3.8l-.4 1.5c-.9-.9-2.2-2.4-2.3-2.9-.5.1-1.3 0-2.1.2-.3 0-1.8.2-2.8 2.7h0v.2.2.3-15.4c0-.2.1-.3.3-.3z"/><use href="#B" x="48"/><use href="#C" x="48"/><use href="#D" x="48"/><use href="#E" x="48"/><path d="M103.7 10H88.2c-.7 0-1.3.6-1.3 1.3v16.5c0 .7.6 1.3 1.3 1.3h15.5c.7 0 1.3-.6 1.3-1.3V11.3c0-.7-.6-1.3-1.3-1.3zm-15.4.9h15.5c.2 0 .3.1.3.3v15.6c0-.2 0-.3-.1-.5v-.2h0v-.2h0c-.9-2.5-2.4-2.6-2.8-2.7-.7-.2-1.6 0-2.1-.2 0 .5-1.4 2-2.3 2.9l-.4-1.5c.3-.2.3-.5.3-.8h-1.4c0 .3 0 .7.3.8l-.4 1.5c-.9-.9-2.2-2.4-2.3-2.9-.5.1-1.3 0-2.1.2-.3 0-1.8.2-2.8 2.7h0v.2.2.3-15.4c0-.2.1-.3.3-.3z"/><use href="#B" x="72"/><use href="#C" x="72"/><use href="#D" x="72"/><use href="#E" x="72"/><use href="#F"/><path d="M16.1 58.7h0 0 0zm15.6-16H16.2c-.7 0-1.3.6-1.3 1.3v16.5c0 .7.6 1.3 1.3 1.3h15.5c.7 0 1.3-.6 1.3-1.3V44c0-.7-.6-1.3-1.3-1.3zm-15.4.9h15.5c.2 0 .3.1.3.3v15.6c0-.2 0-.3-.1-.5v-.2h0v-.2h0c-.9-2.5-2.4-2.6-2.8-2.7-.7-.2-1.6 0-2.1-.2 0 .5-1.4 2-2.3 2.9l-.4-1.5c.3-.2.3-.5.3-.8h-1.4c0 .3 0 .7.3.8l-.4 1.5c-.9-.9-2.2-2.4-2.3-2.9-.5.1-1.3 0-2.1.2-.3 0-1.8.2-2.8 2.7h0v.2.2.3-15.4c0-.2.1-.3.3-.3z"/><use href="#G"/><rect x="18.8" y="68.6" width="10.4" height="1.7" rx=".9"/><use href="#F" x="24"/><path d="M40.1 58.7h0 0 0zm15.6-16H40.2c-.7 0-1.3.6-1.3 1.3v16.5c0 .7.6 1.3 1.3 1.3h15.5c.7 0 1.3-.6 1.3-1.3V44c0-.7-.6-1.3-1.3-1.3zm-15.4.9h15.5c.2 0 .3.1.3.3v15.6c0-.2 0-.3-.1-.5v-.2h0v-.2h0c-.9-2.5-2.4-2.6-2.8-2.7-.7-.2-1.6 0-2.1-.2 0 .5-1.4 2-2.3 2.9l-.4-1.5c.3-.2.3-.5.3-.8h-1.4c0 .3 0 .7.3.8l-.4 1.5c-.9-.9-2.2-2.4-2.3-2.9-.5.1-1.3 0-2.1.2-.3 0-1.8.2-2.8 2.7h0v.2.2.3-15.4c0-.2.1-.3.3-.3z"/><use href="#G" x="24"/><rect x="42.8" y="68.6" width="10.4" height="1.7" rx=".9"/><use href="#F" x="48"/><path d="M64.1 58.7h0 0 0zm15.6-16H64.2c-.7 0-1.3.6-1.3 1.3v16.5c0 .7.6 1.3 1.3 1.3h15.5c.7 0 1.3-.6 1.3-1.3V44c0-.7-.6-1.3-1.3-1.3zm-15.4.9h15.5c.2 0 .3.1.3.3v15.6c0-.2 0-.3-.1-.5v-.2h0v-.2h0c-.9-2.5-2.4-2.6-2.8-2.7-.7-.2-1.6 0-2.1-.2 0 .5-1.4 2-2.3 2.9l-.4-1.5c.3-.2.3-.5.3-.8h-1.4c0 .3 0 .7.3.8l-.4 1.5c-.9-.9-2.2-2.4-2.3-2.9-.5.1-1.3 0-2.1.2-.3 0-1.8.2-2.8 2.7h0v.2.2.3-15.4c0-.2.1-.3.3-.3z"/><use href="#G" x="48"/><rect x="66.8" y="68.6" width="10.4" height="1.7" rx=".9"/><use href="#F" x="72"/><path d="M88.1 58.7h0 0 0zm15.6-16H88.2c-.7 0-1.3.6-1.3 1.3v16.5c0 .7.6 1.3 1.3 1.3h15.5c.7 0 1.3-.6 1.3-1.3V44c0-.7-.6-1.3-1.3-1.3zm-15.4.9h15.5c.2 0 .3.1.3.3v15.6c0-.2 0-.3-.1-.5v-.2h0v-.2h0c-.9-2.5-2.4-2.6-2.8-2.7-.7-.2-1.6 0-2.1-.2 0 .5-1.4 2-2.3 2.9l-.4-1.5c.3-.2.3-.5.3-.8h-1.4c0 .3 0 .7.3.8l-.4 1.5c-.9-.9-2.2-2.4-2.3-2.9-.5.1-1.3 0-2.1.2-.3 0-1.8.2-2.8 2.7h0v.2.2.3-15.4c0-.2.1-.3.3-.3z"/><use href="#G" x="72"/><rect x="90.8" y="68.6" width="10.4" height="1.7" rx=".9"/></g><defs ><path id="B" d="M20.2 19.7c.3.9.9 1.8 1.5 2.4.4.4.8.7 1.2.8.3.1.6.2 1 .2s.6 0 1-.2c.5-.2.9-.5 1.3-.9.6-.6 1.2-1.5 1.5-2.4.3 0 .5-.6.6-1.2.1-.7 0-1.2-.3-1.3v-.5c0-2.4-1.4-3.8-3.6-4-1.9-.1-3.4.6-4.1 1.9-.2.4-.4 1-.4 1.6 0 .3-.1.6-.1 1h0c-.3 0-.4.7-.3 1.4.1.6.4 1.1.7 1.2zm.1-1.8s0-.1.1-.2h.2 0c0-.2.3-1.8 1.8-1.6 0 0 1.3.5 2.5 0h.4c.5 0 .8.3 1.2.4 0-.2-.1-.3-.1-.4h.2c.3.3.5.7.7 1.5h0 0 .2c.2 0 .2.5.2.9 0 .3-.2.6-.3.7h-.2c-.3 1-.9 1.9-1.6 2.5-.4.3-.9.6-1.5.6s-1-.2-1.4-.5c-.8-.6-1.4-1.5-1.7-2.5h-.2c-.1-.1-.2-.4-.3-.7V18z"/><path id="C" d="M16.1 26.1h0V26v.1z"/><path id="D" d="M32.3,33.1c0-.6-.5-1.1-1.1-1.1h-14.5c-.6,0-1.1.5-1.1,1.1s.5,1.1,1.1,1.1h14.5c.6,0,1.1-.5,1.1-1.1Z"/><path id="E" d="M19.7,35.9c-.5,0-.9.4-.9.9s.4.9.9.9h8.6c.5,0,.9-.4.9-.9s-.4-.9-.9-.9h-8.6Z"/><path id="F" d="M20.2 52.3c.3.9.9 1.8 1.5 2.4.4.4.8.7 1.2.8.3.1.6.2 1 .2s.6 0 1-.2c.5-.2.9-.5 1.3-.9.6-.6 1.2-1.5 1.5-2.4.3 0 .5-.6.6-1.2.1-.7 0-1.2-.3-1.3v-.5c0-2.4-1.4-3.8-3.6-4-1.9-.1-3.4.6-4.1 1.9-.2.4-.4 1-.4 1.6 0 .3-.1.6-.1 1h0c-.3 0-.4.7-.3 1.4.1.6.4 1.1.7 1.2zm.1-1.8s0-.1.1-.2h.2 0c0-.2.3-1.8 1.8-1.6 0 0 1.3.5 2.5 0h.4c.5 0 .8.3 1.2.4 0-.2-.1-.3-.1-.4h.2c.3.3.5.7.7 1.5h0 0 .2c.2 0 .2.5.2.9 0 .3-.2.6-.3.7h-.2c-.3 1-.9 1.9-1.6 2.5-.4.3-.9.6-1.5.6s-1-.2-1.4-.5c-.8-.6-1.4-1.5-1.7-2.5h-.2c-.1-.1-.2-.4-.3-.7v-.6z"/><path id="G" d="M31.3,64.7h-14.5c-.6,0-1.1.5-1.1,1.1s.5,1.1,1.1,1.1h14.5c.6,0,1.1-.5,1.1-1.1s-.5-1.1-1.1-1.1Z"/></defs></svg>