<svg xmlns="http://www.w3.org/2000/svg" viewBox="0 0 120 80" xmlns:v="https://vecta.io/nano"><path d="M117,80H3c-1.7,0-3-1.3-3-3V3C0,1.3,1.3,0,3,0h114C118.7,0,120,1.3,120,3v74c0,1.7-1.3,3-3,3ZM3,1.5c-.8,0-1.5.7-1.5,1.5v74c0,.8.7,1.5,1.5,1.5h114c.8,0,1.5-.7,1.5-1.5V3c0-.8-.7-1.5-1.5-1.5H3Z" fill="#768f9e"/><g fill="#58707f"><use href="#B"/><use href="#C"/><path d="M42.3 28.2c.4 1.2 1.2 2.4 2 3.2.5.5 1 .9 1.6 1.1.4.2.8.2 1.3.2s.9 0 1.3-.2c.6-.2 1.2-.6 1.7-1.2.9-.9 1.5-2 2-3.2.3 0 .7-.7.8-1.5.2-.9 0-1.6-.3-1.8v-.7c0-3.2-1.9-5-4.8-5.2-2.6-.2-4.5.8-5.4 2.5a4.65 4.65 0 0 0-.5 2.1c0 .4-.2.8-.2 1.3h0c-.4 0-.5.9-.4 1.8.2.8.5 1.5.9 1.5zm.1-2.3c0-.1 0-.2.1-.2h.2 0c0-.3.3-2.3 2.4-2.2 0 0 1.8.6 3.4 0h.5c.7 0 1.1.4 1.6.6 0-.2-.2-.4-.2-.6h.2c.3.4.7 1 .9 2h0 0 .2c.2.1.3.6.2 1.2 0 .4-.3.8-.4 1h-.2-.1C50.8 29 50 30.2 49 31c-.6.5-1.2.7-1.9.7s-1.3-.3-1.9-.7c-1-.8-1.8-2-2.2-3.3h-.1s-.2 0-.3-.1c-.2-.2-.3-.5-.4-.9v-.9z"/><use href="#C" x="25.1"/><path d="M67.4 28.2c.4 1.2 1.2 2.4 2 3.2.5.5 1 .9 1.6 1.1.4.2.8.2 1.3.2s.9 0 1.3-.2c.6-.2 1.2-.6 1.7-1.2.9-.9 1.5-2 2-3.2.3 0 .7-.7.8-1.5.2-.9 0-1.6-.3-1.8v-.7c0-3.2-1.9-5-4.8-5.2-2.6-.2-4.5.8-5.4 2.5a4.65 4.65 0 0 0-.5 2.1c0 .4-.2.8-.2 1.3h0c-.4 0-.5.9-.4 1.8.2.8.5 1.5.9 1.5zm.1-2.3c0-.1 0-.2.1-.2h.2 0c0-.3.3-2.3 2.4-2.2 0 0 1.8.6 3.4 0h.5c.7 0 1.1.4 1.6.6 0-.2-.2-.4-.2-.6h.2c.3.4.7 1 .9 2h0 0 .2c.2.1.3.6.2 1.2 0 .4-.3.8-.4 1h-.2-.1c-.4 1.3-1.2 2.5-2.2 3.3-.6.5-1.2.7-1.9.7s-1.3-.3-1.9-.7c-1-.8-1.8-2-2.2-3.3H68s-.2 0-.3-.1c-.2-.2-.3-.5-.4-.9v-.9z"/><use href="#C" x="50.2"/><use href="#B" x="75.3"/><path d="M108.5 39.6c0-.8-.3-1.7-.5-2.5v-.2h0v-.3h0c-1.3-3.3-3.2-3.5-3.7-3.6-.9-.2-2.1-.1-2.7-.3 0 .6-1.8 2.6-3 3.8l-.5-1.9c.4-.2.5-.7.5-1.1h-1.9c0 .4 0 .9.4 1.1l-.5 1.9c-1.1-1.2-2.9-3.2-3-3.8-.6.2-1.8 0-2.7.3-.4.1-2.4.2-3.7 3.6h0v.3.2c-.3 1-.4 1.9-.5 2.8h22v-.3z"/><use href="#D"/><use href="#C" y="24"/><path d="M41.8 48.9c-.4 0-.5.9-.4 1.8.2.8.5 1.5.9 1.5.4 1.2 1.2 2.4 2 3.2.5.5 1 .9 1.6 1.1.4.2.8.2 1.3.2s.9 0 1.3-.2c.6-.2 1.2-.6 1.7-1.2.9-.9 1.5-2 2-3.2.3 0 .7-.7.8-1.5.2-.9 0-1.6-.3-1.8v-.7c0-3.2-1.9-5-4.8-5.2-2.6-.2-4.5.8-5.4 2.5a4.65 4.65 0 0 0-.5 2.1c0 .4-.2.8-.2 1.3h0zm.6 1c0-.1 0-.2.1-.2h.2 0c0-.3.3-2.3 2.4-2.2 0 0 1.8.6 3.4 0h.5c.7 0 1.1.4 1.6.6 0-.2-.2-.4-.2-.6h.2c.3.4.7 1 .9 2h0 0 .2c.2.1.3.6.2 1.2 0 .4-.3.8-.4 1h-.2-.1C50.8 53 50 54.2 49 55c-.6.5-1.2.7-1.9.7s-1.3-.3-1.9-.7c-1-.8-1.8-2-2.2-3.3h-.1s-.2 0-.3-.1c-.2-.2-.3-.5-.4-.9v-.9z"/><use href="#C" x="25.1" y="24"/><path d="M66.9 48.9c-.4 0-.5.9-.4 1.8.2.8.5 1.5.9 1.5.4 1.2 1.2 2.4 2 3.2.5.5 1 .9 1.6 1.1.4.2.8.2 1.3.2s.9 0 1.3-.2c.6-.2 1.2-.6 1.7-1.2.9-.9 1.5-2 2-3.2.3 0 .7-.7.8-1.5.2-.9 0-1.6-.3-1.8v-.7c0-3.2-1.9-5-4.8-5.2-2.6-.2-4.5.8-5.4 2.5a4.65 4.65 0 0 0-.5 2.1c0 .4-.2.8-.2 1.3h0zm.6 1c0-.1 0-.2.1-.2h.2 0c0-.3.3-2.3 2.4-2.2 0 0 1.8.6 3.4 0h.5c.7 0 1.1.4 1.6.6 0-.2-.2-.4-.2-.6h.2c.3.4.7 1 .9 2h0 0 .2c.2.1.3.6.2 1.2 0 .4-.3.8-.4 1h-.2-.1c-.4 1.3-1.2 2.5-2.2 3.3-.6.5-1.2.7-1.9.7s-1.3-.3-1.9-.7c-1-.8-1.8-2-2.2-3.3H68s-.2 0-.3-.1c-.2-.2-.3-.5-.4-.9v-.9z"/><use href="#C" x="50.2" y="24"/><use href="#D" x="75.3"/><use href="#C" x="75.3" y="24"/><path d="M109.1 16H10.9a1.11 1.11 0 0 0-1.1 1.1v45.8a1.11 1.11 0 0 0 1.1 1.1h98.2a1.11 1.11 0 0 0 1.1-1.1V17.1a1.11 1.11 0 0 0-1.1-1.1zm.5 1.1v22.4h-24V16.6h23.5a.47.47 0 0 1 .5.5zM60 40v23.4H35.5V40H60zm-24.5-.5V16.6H60v22.9H35.5zm25.1.5h24.5v23.4H60.6V40zm0-.5V16.6h24.5v22.9H60.6zm-49.7-23h24v22.9H10.4V17a.47.47 0 0 1 .5-.5zm-.5 46.4V40H35v23.4H10.9a.47.47 0 0 1-.5-.5zm98.7.5H85.6V40h24v22.9a.47.47 0 0 1-.5.5z"/></g><defs ><path id="B" d="M17.2 28.2c.4 1.2 1.2 2.4 2 3.2.5.5 1 .9 1.6 1.1.4.2.8.2 1.3.2s.9 0 1.3-.2c.6-.2 1.2-.6 1.7-1.2.9-.9 1.5-2 2-3.2.3 0 .7-.7.8-1.5.2-.9 0-1.6-.3-1.8v-.7c0-3.2-1.9-5-4.8-5.2-2.6-.2-4.5.8-5.4 2.5a4.65 4.65 0 0 0-.5 2.1c0 .4-.2.8-.2 1.3h0c-.4 0-.5.9-.4 1.8.2.8.5 1.5.9 1.5zm.1-2.3c0-.1 0-.2.1-.2h.2 0c0-.3.3-2.3 2.4-2.2 0 0 1.8.6 3.4 0h.5c.7 0 1.1.4 1.6.6 0-.2-.2-.4-.2-.6h.2c.3.4.7 1 .9 2h0 0 .2c.2.1.3.6.2 1.2 0 .4-.3.8-.4 1h-.2-.1c-.4 1.3-1.2 2.5-2.2 3.3-.6.5-1.2.7-1.9.7s-1.3-.3-1.9-.7c-1-.8-1.8-2-2.2-3.3h-.1s-.2 0-.3-.1c-.2-.2-.3-.5-.4-.9v-.9z"/><path id="C" d="M32.7 37.1v-.2h0v-.3h0c-1.3-3.3-3.2-3.5-3.7-3.6-.9-.2-2.1-.1-2.7-.3 0 .6-1.8 2.6-3 3.8l-.5-1.9c.4-.2.5-.7.5-1.1h-1.9c0 .4 0 .9.4 1.1l-.5 1.9c-1.1-1.2-2.9-3.2-3-3.8-.6.2-1.8 0-2.7.3-.4.1-2.4.2-3.7 3.6h0v.3.2c-.3 1-.4 1.9-.5 2.8h22v-.3c0-.8-.3-1.7-.5-2.5z"/><path id="D" d="M16.7 48.9c-.4 0-.5.9-.4 1.8.2.8.5 1.5.9 1.5.4 1.2 1.2 2.4 2 3.2.5.5 1 .9 1.6 1.1.4.2.8.2 1.3.2s.9 0 1.3-.2c.6-.2 1.2-.6 1.7-1.2.9-.9 1.5-2 2-3.2.3 0 .7-.7.8-1.5.2-.9 0-1.6-.3-1.8v-.7c0-3.2-1.9-5-4.8-5.2-2.6-.2-4.5.8-5.4 2.5a4.65 4.65 0 0 0-.5 2.1c0 .4-.2.8-.2 1.3h0zm.6 1c0-.1 0-.2.1-.2h.2 0c0-.3.3-2.3 2.4-2.2 0 0 1.8.6 3.4 0h.5c.7 0 1.1.4 1.6.6 0-.2-.2-.4-.2-.6h.2c.3.4.7 1 .9 2h0 0 .2c.2.1.3.6.2 1.2 0 .4-.3.8-.4 1h-.2-.1c-.4 1.3-1.2 2.5-2.2 3.3-.6.5-1.2.7-1.9.7s-1.3-.3-1.9-.7c-1-.8-1.8-2-2.2-3.3h-.1s-.2 0-.3-.1c-.2-.2-.3-.5-.4-.9v-.9z"/></defs></svg>