<svg xmlns="http://www.w3.org/2000/svg" viewBox="0 0 120 80" xmlns:v="https://vecta.io/nano"><path d="M117,80H3c-1.7,0-3-1.3-3-3V3C0,1.3,1.3,0,3,0h114C118.7,0,120,1.3,120,3v74c0,1.7-1.3,3-3,3ZM3,1.5c-.8,0-1.5.7-1.5,1.5v74c0,.8.7,1.5,1.5,1.5h114c.8,0,1.5-.7,1.5-1.5V3c0-.8-.7-1.5-1.5-1.5H3Z" fill="#768f9e"/><g fill="#58707f"><path d="M27.9 22H15.3c-.7 0-1.3.6-1.3 1.3v13.5c0 .7.6 1.3 1.3 1.3h12.6c.7 0 1.3-.6 1.3-1.3V23.3c0-.7-.6-1.3-1.3-1.3zm-12.6.9h12.6c.2 0 .3.1.3.3v12.4-.2h0c-.8-2.1-2-2.2-2.3-2.3-.6-.1-1.3 0-1.7-.2 0 .4-1.2 1.7-1.9 2.4l-.3-1.2c.2-.1.3-.5.3-.7h-1.2c0 .3 0 .6.3.7l-.3 1.2c-.7-.8-1.9-2.1-1.9-2.4-.4.1-1.1 0-1.7.2-.3 0-1.5.2-2.3 2.3h0 0V23.2c0-.2.1-.3.3-.3z"/><use href="#B"/><use href="#C"/><path d="M37.5 30.2c.3.8.7 1.5 1.3 2.1.3.3.7.6 1 .7s.5.2.8.2.5 0 .8-.2c.4-.2.8-.4 1.1-.7.5-.5 1-1.3 1.3-2 .2 0 .4-.5.5-1 0-.6 0-1-.2-1.1v-.4c0-2-1.2-3.2-3.1-3.3-1.6-.1-2.9.5-3.4 1.6-.2.4-.3.8-.3 1.3v.8h0c-.2 0-.3.6-.2 1.1 0 .5.3 1 .6 1zm.1-1.6v-.2h.1 0c0-.2.2-1.5 1.5-1.4 0 0 1.1.4 2.1 0h.3c.4 0 .7.2 1 .4 0-.1-.1-.3-.1-.4h.1c.2.2.4.6.6 1.3h0 0 .1c.1 0 .2.4.1.8 0 .3-.2.5-.3.6H43c-.3.8-.8 1.6-1.4 2.1-.4.3-.8.5-1.2.5s-.8-.2-1.2-.5c-.6-.5-1.1-1.3-1.4-2.1h-.2c-.1-.1-.2-.3-.3-.6v-.5zM47 22H34.4c-.7 0-1.3.6-1.3 1.3v13.5c0 .7.6 1.3 1.3 1.3H47c.7 0 1.3-.6 1.3-1.3V23.3c0-.7-.6-1.3-1.3-1.3zm-12.6.9H47c.2 0 .3.1.3.3v12.4-.2h0c-.8-2.1-2-2.2-2.3-2.3-.6-.1-1.3 0-1.7-.2 0 .4-1.2 1.7-1.9 2.4l-.3-1.2c.2-.1.3-.5.3-.7h-1.2c0 .3 0 .6.3.7l-.3 1.2c-.7-.8-1.9-2.1-1.9-2.4-.4.1-1.1 0-1.7.2-.3 0-1.5.2-2.3 2.3h0 0V23.2c0-.2.1-.3.3-.3z"/><use href="#C" x="19.2"/><use href="#B" x="38.3"/><path d="M66.2 22H53.6c-.7 0-1.3.6-1.3 1.3v13.5c0 .7.6 1.3 1.3 1.3h12.6c.7 0 1.3-.6 1.3-1.3V23.3c0-.7-.6-1.3-1.3-1.3zm-12.6.9h12.6c.2 0 .3.1.3.3v12.4-.2h0c-.8-2.1-2-2.2-2.3-2.3-.6-.1-1.3 0-1.7-.2 0 .4-1.2 1.7-1.9 2.4l-.3-1.2c.2-.1.3-.5.3-.7h-1.2c0 .3 0 .6.3.7l-.3 1.2c-.7-.8-1.9-2.1-1.9-2.4-.4.1-1.1 0-1.7.2-.3 0-1.5.2-2.3 2.3h0 0V23.2c0-.2.1-.3.3-.3z"/><use href="#C" x="38.3"/><use href="#D"/><path d="M85.4 22H72.8c-.7 0-1.3.6-1.3 1.3v13.5c0 .7.6 1.3 1.3 1.3h12.6c.7 0 1.3-.6 1.3-1.3V23.3c0-.7-.6-1.3-1.3-1.3zm-12.7.9h12.6c.2 0 .3.1.3.3v12.4-.2h0c-.8-2.1-2-2.2-2.3-2.3-.6-.1-1.3 0-1.7-.2 0 .4-1.2 1.7-1.9 2.4l-.3-1.2c.2-.1.3-.5.3-.7h-1.2c0 .3 0 .6.3.7l-.3 1.2c-.7-.8-1.9-2.1-1.9-2.4-.4.1-1.1 0-1.7.2-.3 0-1.5.2-2.3 2.3h0 0V23.2c0-.2.1-.3.3-.3z"/><use href="#C" x="57.5"/><use href="#D" x="19.2"/><path d="M104.5 22H91.9c-.7 0-1.3.6-1.3 1.3v13.5c0 .7.6 1.3 1.3 1.3h12.6c.7 0 1.3-.6 1.3-1.3V23.3c0-.7-.6-1.3-1.3-1.3zm-12.6.9h12.6c.2 0 .3.1.3.3v12.4-.2h0c-.8-2.1-2-2.2-2.3-2.3-.6-.1-1.3 0-1.7-.2 0 .4-1.2 1.7-1.9 2.4l-.3-1.2c.2-.1.3-.5.3-.7h-1.2c0 .3 0 .6.3.7l-.3 1.2c-.7-.8-1.9-2.1-1.9-2.4-.4.1-1.1 0-1.7.2-.3 0-1.5.2-2.3 2.3h0 0V23.2c0-.2.1-.3.3-.3z"/><use href="#C" x="76.6"/><path d="M27.9 49.2H15.3c-.7 0-1.3.6-1.3 1.3V64c0 .7.6 1.3 1.3 1.3h12.6c.7 0 1.3-.6 1.3-1.3V50.5c0-.7-.6-1.3-1.3-1.3zm-12.6.9h12.6c.2 0 .3.1.3.3v12.4-.2h0c-.8-2.1-2-2.2-2.3-2.3-.6-.1-1.3 0-1.7-.2 0 .4-1.2 1.7-1.9 2.4l-.3-1.2c.2-.1.3-.5.3-.7h-1.2c0 .3 0 .6.3.7l-.3 1.2c-.7-.8-1.9-2.1-1.9-2.4-.4.1-1.1 0-1.7.2-.3 0-1.5.2-2.3 2.3h0 0V50.4c0-.2.1-.3.3-.3z"/><use href="#E"/><use href="#F"/><path d="M37.5 57.4c.3.8.7 1.5 1.3 2.1.3.3.7.6 1 .7s.5.2.8.2.5 0 .8-.2c.4-.2.8-.4 1.1-.7.5-.5 1-1.3 1.3-2 .2 0 .4-.5.5-1 0-.6 0-1-.2-1.1V55c0-2-1.2-3.2-3.1-3.3-1.6-.1-2.9.5-3.4 1.6-.2.4-.3.8-.3 1.3v.8h0c-.2 0-.3.6-.2 1.1 0 .5.3 1 .6 1zm.1-1.6v-.2h.1 0c0-.2.2-1.5 1.5-1.4 0 0 1.1.4 2.1 0h.3c.4 0 .7.2 1 .4 0-.1-.1-.3-.1-.4h.1c.2.2.4.6.6 1.3h0 0 .1c.1 0 .2.4.1.8 0 .3-.2.5-.3.6H43c-.3.8-.8 1.6-1.4 2.1-.4.3-.8.5-1.2.5s-.8-.2-1.2-.5c-.6-.5-1.1-1.3-1.4-2.1h-.2c-.1-.1-.2-.3-.3-.6v-.5zm9.4-6.6H34.4c-.7 0-1.3.6-1.3 1.3V64c0 .7.6 1.3 1.3 1.3H47c.7 0 1.3-.6 1.3-1.3V50.5c0-.7-.6-1.3-1.3-1.3zm-12.6.9H47c.2 0 .3.1.3.3v12.4-.2h0c-.8-2.1-2-2.2-2.3-2.3-.6-.1-1.3 0-1.7-.2 0 .4-1.2 1.7-1.9 2.4l-.3-1.2c.2-.1.3-.5.3-.7h-1.2c0 .3 0 .6.3.7l-.3 1.2c-.7-.8-1.9-2.1-1.9-2.4-.4.1-1.1 0-1.7.2-.3 0-1.5.2-2.3 2.3h0 0V50.4c0-.2.1-.3.3-.3z"/><use href="#F" x="19.2"/><use href="#E" x="38.3"/><path d="M66.2 49.2H53.6c-.7 0-1.3.6-1.3 1.3V64c0 .7.6 1.3 1.3 1.3h12.6c.7 0 1.3-.6 1.3-1.3V50.5c0-.7-.6-1.3-1.3-1.3zm-12.6.9h12.6c.2 0 .3.1.3.3v12.4-.2h0c-.8-2.1-2-2.2-2.3-2.3-.6-.1-1.3 0-1.7-.2 0 .4-1.2 1.7-1.9 2.4l-.3-1.2c.2-.1.3-.5.3-.7h-1.2c0 .3 0 .6.3.7l-.3 1.2c-.7-.8-1.9-2.1-1.9-2.4-.4.1-1.1 0-1.7.2-.3 0-1.5.2-2.3 2.3h0 0V50.4c0-.2.1-.3.3-.3z"/><use href="#F" x="38.3"/><use href="#G"/><path d="M85.4 49.2H72.8c-.7 0-1.3.6-1.3 1.3V64c0 .7.6 1.3 1.3 1.3h12.6c.7 0 1.3-.6 1.3-1.3V50.5c0-.7-.6-1.3-1.3-1.3zm-12.7.9h12.6c.2 0 .3.1.3.3v12.4-.2h0c-.8-2.1-2-2.2-2.3-2.3-.6-.1-1.3 0-1.7-.2 0 .4-1.2 1.7-1.9 2.4l-.3-1.2c.2-.1.3-.5.3-.7h-1.2c0 .3 0 .6.3.7l-.3 1.2c-.7-.8-1.9-2.1-1.9-2.4-.4.1-1.1 0-1.7.2-.3 0-1.5.2-2.3 2.3h0 0V50.4c0-.2.1-.3.3-.3z"/><use href="#F" x="57.5"/><use href="#G" x="19.2"/><path d="M104.5 49.2H91.9c-.7 0-1.3.6-1.3 1.3V64c0 .7.6 1.3 1.3 1.3h12.6c.7 0 1.3-.6 1.3-1.3V50.5c0-.7-.6-1.3-1.3-1.3zm-12.6.9h12.6c.2 0 .3.1.3.3v12.4-.2h0c-.8-2.1-2-2.2-2.3-2.3-.6-.1-1.3 0-1.7-.2 0 .4-1.2 1.7-1.9 2.4l-.3-1.2c.2-.1.3-.5.3-.7h-1.2c0 .3 0 .6.3.7l-.3 1.2c-.7-.8-1.9-2.1-1.9-2.4-.4.1-1.1 0-1.7.2-.3 0-1.5.2-2.3 2.3h0 0V50.4c0-.2.1-.3.3-.3z"/><use href="#F" x="76.6"/><path d="M42 14.7V9.3c0-.7-.6-1.3-1.3-1.3h-9.4c-.7 0-1.3.6-1.3 1.3v5.4c0 .7.6 1.3 1.3 1.3h9.4c.7 0 1.3-.6 1.3-1.3zM38 13h-4a1.08 1.08 0 0 1-1-1 1.08 1.08 0 0 1 1-1h4a.94.94 0 0 1 1 1 .94.94 0 0 1-1 1zm28.7-5H47.3c-.7 0-1.3.6-1.3 1.3v5.4c0 .7.6 1.3 1.3 1.3h19.4c.7 0 1.3-.6 1.3-1.3V9.3c0-.7-.6-1.3-1.3-1.3zM63 13H51a1.08 1.08 0 0 1-1-1 1.08 1.08 0 0 1 1-1h12a.94.94 0 0 1 1 1 .94.94 0 0 1-1 1zm25.7-5H73.3c-.7 0-1.3.6-1.3 1.3v5.4c0 .7.6 1.3 1.3 1.3h15.4c.7 0 1.3-.6 1.3-1.3V9.3c0-.7-.6-1.3-1.3-1.3zM86 13H76a1.08 1.08 0 0 1-1-1 1.08 1.08 0 0 1 1-1h10a.94.94 0 0 1 1 1 .94.94 0 0 1-1 1z"/></g><defs ><path id="B" d="M18.4 30.2c.3.8.7 1.5 1.3 2.1.3.3.7.6 1 .7s.5.2.8.2.5 0 .8-.2c.4-.2.8-.4 1.1-.7.5-.5 1-1.3 1.3-2 .2 0 .4-.5.5-1 0-.6 0-1-.2-1.1v-.4c0-2-1.2-3.2-3.1-3.3-1.6-.1-2.9.5-3.4 1.6-.2.4-.3.8-.3 1.3v.8h0c-.2 0-.3.6-.2 1.1 0 .5.3 1 .6 1zm0-1.6v-.2h.1 0c0-.2.2-1.5 1.5-1.4 0 0 1.1.4 2.1 0h.3c.4 0 .7.2 1 .4 0-.1-.1-.3-.1-.4h.1c.2.2.4.6.6 1.3h0 0 .1c.1 0 .2.4.1.8 0 .3-.2.5-.3.6h-.1c-.3.8-.8 1.6-1.4 2.1-.4.3-.8.5-1.2.5s-.8-.2-1.2-.5c-.6-.5-1.1-1.3-1.4-2.1h-.2c-.1-.1-.2-.3-.3-.6v-.5z"/><path id="C" d="M27.5,43.2c.6,0,1.1-.5,1.1-1.1s-.5-1.1-1.1-1.1h-11.8c-.6,0-1.1.5-1.1,1.1s.5,1.1,1.1,1.1h11.8Z"/><path id="D" d="M75.8 30.2c.3.8.7 1.5 1.3 2.1.3.3.7.6 1 .7s.5.2.8.2.5 0 .8-.2c.4-.2.8-.4 1.1-.7.5-.5 1-1.3 1.3-2 .2 0 .4-.5.5-1 0-.6 0-1-.2-1.1v-.4c0-2-1.2-3.2-3.1-3.3-1.6-.1-2.9.5-3.4 1.6-.2.4-.3.8-.3 1.3v.8h0c-.2 0-.3.6-.2 1.1 0 .5.3 1 .6 1zm.1-1.6v-.2h.1 0c0-.2.2-1.5 1.5-1.4 0 0 1.1.4 2.1 0h.3c.4 0 .7.2 1 .4 0-.1-.1-.3-.1-.4h.1c.2.2.4.6.6 1.3h0 0 .1c.1 0 .2.4.1.8 0 .3-.2.5-.3.6h-.1c-.3.8-.8 1.6-1.4 2.1-.4.3-.8.5-1.2.5s-.8-.2-1.2-.5c-.6-.5-1.1-1.3-1.4-2.1h-.2c-.1-.1-.2-.3-.3-.6v-.5z"/><path id="E" d="M18.4 57.4c.3.8.7 1.5 1.3 2.1.3.3.7.6 1 .7s.5.2.8.2.5 0 .8-.2c.4-.2.8-.4 1.1-.7.5-.5 1-1.3 1.3-2 .2 0 .4-.5.5-1 0-.6 0-1-.2-1.1V55c0-2-1.2-3.2-3.1-3.3-1.6-.1-2.9.5-3.4 1.6-.2.4-.3.8-.3 1.3v.8h0c-.2 0-.3.6-.2 1.1 0 .5.3 1 .6 1zm0-1.6v-.2h.1 0c0-.2.2-1.5 1.5-1.4 0 0 1.1.4 2.1 0h.3c.4 0 .7.2 1 .4 0-.1-.1-.3-.1-.4h.1c.2.2.4.6.6 1.3h0 0 .1c.1 0 .2.4.1.8 0 .3-.2.5-.3.6h-.1c-.3.8-.8 1.6-1.4 2.1-.4.3-.8.5-1.2.5s-.8-.2-1.2-.5c-.6-.5-1.1-1.3-1.4-2.1h-.2c-.1-.1-.2-.3-.3-.6v-.5z"/><path id="F" d="M27.5,68.2h-11.8c-.6,0-1.1.5-1.1,1.1s.5,1.1,1.1,1.1h11.8c.6,0,1.1-.5,1.1-1.1s-.5-1.1-1.1-1.1Z"/><path id="G" d="M75.8 57.4c.3.8.7 1.5 1.3 2.1.3.3.7.6 1 .7s.5.2.8.2.5 0 .8-.2c.4-.2.8-.4 1.1-.7.5-.5 1-1.3 1.3-2 .2 0 .4-.5.5-1 0-.6 0-1-.2-1.1V55c0-2-1.2-3.2-3.1-3.3-1.6-.1-2.9.5-3.4 1.6-.2.4-.3.8-.3 1.3v.8h0c-.2 0-.3.6-.2 1.1 0 .5.3 1 .6 1zm.1-1.6v-.2h.1 0c0-.2.2-1.5 1.5-1.4 0 0 1.1.4 2.1 0h.3c.4 0 .7.2 1 .4 0-.1-.1-.3-.1-.4h.1c.2.2.4.6.6 1.3h0 0 .1c.1 0 .2.4.1.8 0 .3-.2.5-.3.6h-.1c-.3.8-.8 1.6-1.4 2.1-.4.3-.8.5-1.2.5s-.8-.2-1.2-.5c-.6-.5-1.1-1.3-1.4-2.1h-.2c-.1-.1-.2-.3-.3-.6v-.5z"/></defs></svg>