<svg xmlns="http://www.w3.org/2000/svg" viewBox="0 0 120 80" xmlns:v="https://vecta.io/nano"><path d="M117,80H3c-1.7,0-3-1.3-3-3V3C0,1.3,1.3,0,3,0h114C118.7,0,120,1.3,120,3v74c0,1.7-1.3,3-3,3ZM3,1.5c-.8,0-1.5.7-1.5,1.5v74c0,.8.7,1.5,1.5,1.5h114c.8,0,1.5-.7,1.5-1.5V3c0-.8-.7-1.5-1.5-1.5H3Z" fill="#768f9e"/><g fill="#58707f"><path d="M36.4,37H12.3c-.7,0-1.3-.6-1.3-1.3V10.3c0-.7.6-1.3,1.3-1.3h24.1c.7,0,1.3.6,1.3,1.3v25.5c0,.7-.6,1.3-1.3,1.3ZM12.3,9.7c-.3,0-.5.2-.5.5v25.5c0,.3.2.5.5.5h24.1c.3,0,.5-.2.5-.5V10.3c0-.3-.2-.5-.5-.5H12.3Z"/><use href="#B"/><use href="#C"/><use href="#D"/><use href="#E"/><path d="M42.5,20.3h65.3c.5,0,.9.4.9.9h0c0,.5-.4.9-.9.9H42.5c-.5,0-.9-.4-.9-.9h0c0-.5.4-.9.9-.9Z"/><use href="#F"/><path d="M47 28.8h-4.7c-.2 0-.3 0-.5.2-.1.1-.2.3-.2.5v4.7c0 .2 0 .3.2.5.1.1.3.2.5.2h1.8v-2h-.8v-1h.8v-.7c0-.8.5-1.3 1.3-1.3h.7v.8h-.4c-.4 0-.5.3-.5.5v.6h.9v1h-.9v2H47c.2 0 .3 0 .5-.2s.2-.3.2-.5v-4.7c0-.2 0-.3-.2-.5-.1-.1-.3-.2-.5-.2z"/><use href="#G"/><path d="M63.2 28.8h-5.1c-.2 0-.4.2-.4.4v5.1c0 .2.2.4.4.4h5.1c.2 0 .4-.2.4-.4v-5.1c0-.2-.2-.4-.4-.4zm-3.7 5.1h-.9V31h.9v2.9h0zm-.5-3.3a.47.47 0 0 1-.5-.5.47.47 0 1 1 1 0 .47.47 0 0 1-.5.5zm3.8 3.3h-.9v-1.4c0-.3 0-.8-.5-.8s-.5.4-.5.7v1.4H60v-2.9h.9v.4h0c.1-.2.4-.5.8-.5.9 0 1.1.6 1.1 1.4v1.6zM36.4 71H12.3c-.7 0-1.3-.6-1.3-1.3V44.2c0-.7.6-1.3 1.3-1.3h24.1c.7 0 1.3.6 1.3 1.3v25.5c0 .7-.6 1.3-1.3 1.3zM12.3 43.7a.47.47 0 0 0-.5.5v25.5a.47.47 0 0 0 .5.5h24.1a.47.47 0 0 0 .5-.5V44.2a.47.47 0 0 0-.5-.5H12.3z"/><use href="#B" y="34"/><use href="#C" y="34"/><use href="#D" y="34"/><use href="#E" y="34"/><path d="M42.5,54.3h65.3c.5,0,.9.4.9.9h0c0,.5-.4.9-.9.9H42.5c-.5,0-.9-.4-.9-.9h0c0-.5.4-.9.9-.9Z"/><use href="#F" y="34"/><path d="M47 62.8h-4.7c-.2 0-.3 0-.5.2-.1.1-.2.3-.2.5v4.7c0 .2 0 .3.2.5.1.1.3.2.5.2h1.8v-2h-.8v-1h.8v-.7c0-.8.5-1.3 1.3-1.3h.7v.8h-.4c-.4 0-.5.3-.5.5v.6h.9v1h-.9v2H47c.2 0 .3 0 .5-.2.1-.1.2-.3.2-.5v-4.7c0-.2 0-.3-.2-.5s-.3-.2-.5-.2z"/><use href="#G" y="34"/><path d="M63.2 62.8h-5.1c-.2 0-.4.2-.4.4v5.1c0 .2.2.4.4.4h5.1c.2 0 .4-.2.4-.4v-5.1c0-.2-.2-.4-.4-.4zm-3.7 5.1h-.9V65h.9v2.9h0zm-.5-3.3a.47.47 0 1 1 0-1 .47.47 0 1 1 0 1zm3.8 3.3h-.9v-1.4c0-.3 0-.8-.5-.8s-.5.4-.5.7v1.4H60v-2.9h.9v.4h0c.1-.2.4-.5.8-.5.9 0 1.1.6 1.1 1.4v1.6z"/></g><defs ><path id="B" d="M30.3 19.6v-.7c0-3.5-2.1-5.6-5.4-5.8-2.9-.2-5 .9-6 2.8-.3.6-.5 1.4-.6 2.3-.1.5-.2.9-.2 1.4h0c-.4 0-.6 1-.4 2 .2.9.6 1.7 1 1.7.5 1.3 1.3 2.7 2.3 3.6.6.5 1.2 1 1.8 1.2.5.2.9.3 1.4.3s1 0 1.4-.3c.7-.3 1.3-.7 1.9-1.3 1-1 1.7-2.2 2.2-3.6.4-.1.8-.8.9-1.7.2-1 0-1.8-.4-2zm-.6 2.1c0 .5-.3.9-.5 1.1 0 0-.2.1-.3 0h-.1c-.5 1.4-1.3 2.8-2.4 3.7-.7.5-1.4.8-2.2.8s-1.5-.3-2.1-.8c-1.1-.8-2-2.3-2.5-3.7h-.1s-.2 0-.3-.1c-.2-.2-.4-.6-.5-1v-1c0-.1 0-.2.2-.3h.2 0c0-.3.4-2.6 2.6-2.4 0 0 2 .7 3.8 0h.6c.7 0 1.3.4 1.8.7 0-.2-.2-.5-.2-.7h.2c.4.4.8 1.1 1.1 2.2h0 0 .2c.2.1.3.7.2 1.3z"/><path id="C" d="M36.7 36.3H12c0-1.1.2-2.1.5-3.2v-.2-.3h0c1.4-3.8 3.6-3.9 4.1-4 1.1-.2 2.4-.1 3-.4 0 .7 2.1 2.9 3.3 4.3l.5-2.2c-.4-.2-.5-.8-.5-1.2H25c0 .5 0 1-.5 1.2l.6 2.1c1.3-1.4 3.3-3.6 3.3-4.3.7.2 2 .1 3 .4.5.1 2.7.3 4.1 4h0c0 .1 0 .2.1.3h0v.2c.3.9.5 1.9.6 2.8v.4z"/><path id="D" d="M42.9 11.3h25.5c.7 0 1.2.6 1.2 1.2h0c0 .7-.6 1.2-1.2 1.2H42.9c-.7 0-1.2-.6-1.2-1.2h0c0-.7.6-1.2 1.2-1.2z"/><path id="E" d="M42.4 15.8h12.5c.4 0 .8.3.8.8h0c0 .4-.3.8-.8.8H42.4c-.4 0-.8-.3-.8-.8h0c0-.4.3-.8.8-.8z"/><path id="F" d="M42.5 24h42.3c.5 0 .9.4.9.9h0c0 .5-.4.9-.9.9H42.5c-.5 0-.9-.4-.9-.9h0c0-.5.4-.9.9-.9z"/><path id="G" d="M55 28.8h-4.7c-.4 0-.6.3-.6.6v4.7c0 .4.3.6.6.6H55c.4 0 .6-.3.6-.6v-4.7c0-.4-.3-.6-.6-.6zm-.6 2.1v.1c0 1.2-.9 2.5-2.5 2.5s-1-.1-1.3-.4h.2c.4 0 .8-.1 1.1-.4-.4 0-.7-.3-.8-.6h.4c-.4 0-.7-.4-.7-.9h0c.1 0 .3 0 .4.1-.1 0-.2-.2-.3-.3 0-.1-.1-.3-.1-.4 0-.2 0-.3.1-.4.4.5 1.1.9 1.8.9-.1-.6.3-1.1.9-1.1s.5.1.6.3c.2 0 .4-.1.6-.2 0 .2-.2.4-.4.5.2 0 .3 0 .5-.1-.1.2-.3.3-.4.5z"/></defs></svg>