<svg xmlns="http://www.w3.org/2000/svg" viewBox="0 0 120 80" xmlns:v="https://vecta.io/nano"><path d="M17.6 27.4c.5 1.4 1.3 2.7 2.2 3.7.5.5 1.1 1 1.8 1.3.4.2.9.3 1.4.3s.9-.1 1.4-.3c.7-.3 1.3-.7 1.8-1.3.9-1 1.7-2.3 2.2-3.6.4-.1.8-.8.9-1.8.2-1 0-1.9-.4-2V23c0-3.6-2.1-5.7-5.3-6-2.8-.2-4.9 1-5.9 2.9-.3.6-.5 1.5-.6 2.3-.1.5-.2.9-.2 1.4h0c-.4 0-.6 1-.4 2s.6 1.7 1 1.8zm.1-2.7c0-.1 0-.2.2-.3h.2 0c0-.3.4-2.7 2.6-2.5 0 0 1.9.7 3.7 0h.5c.7 0 1.2.4 1.8.7 0-.3-.2-.5-.2-.7h.2c.4.4.7 1.1 1 2.3h0 .2 0c.2.1.3.7.2 1.4 0 .5-.3.9-.5 1.1 0 0-.2.1-.3 0h-.1c-.4 1.4-1.3 2.9-2.4 3.7-.6.5-1.4.8-2.1.8s-1.5-.3-2.1-.8c-1.1-.9-2-2.3-2.4-3.8h-.1s-.2 0-.3-.1c-.2-.2-.4-.6-.4-1.1v-1zm17.5 15.6a12.66 12.66 0 0 0-.6-2.8v-.2h0c0-.1 0-.2-.1-.3h0c-1.4-3.8-3.5-4-4-4.1-1-.3-2.3-.1-3-.4 0 .7-2 3-3.3 4.4l-.5-2.2c.4-.3.5-.8.5-1.3h-2.1c0 .5 0 1 .5 1.3l-.5 2.2c-1.3-1.4-3.2-3.7-3.3-4.4-.7.2-1.9.1-3 .4-.5.1-2.6.3-4 4.1h0v.3.2c-.3 1.1-.5 2.1-.5 3.2h24.2v-.4zm31.5-12.8c.5 1.4 1.3 2.8 2.3 3.7a6.78 6.78 0 0 0 1.8 1.3c.5.2.9.3 1.4.3s1 0 1.4-.3c.7-.3 1.3-.8 1.9-1.3 1-1 1.7-2.3 2.2-3.7.4-.1.8-.9.9-1.8.2-1 0-1.9-.4-2v-.8c0-3.7-2.1-5.8-5.4-6-2.9-.2-5 1-6 2.9-.3.7-.5 1.5-.6 2.4-.1.5-.2 1-.2 1.5h0c-.4 0-.6 1-.4 2.1.2 1 .6 1.7 1 1.8zm.1-2.7c0-.1 0-.2.2-.3h.1.2 0c0-.3.4-2.7 2.6-2.5 0 0 2 .8 3.8 0h.5c.7 0 1.2.4 1.8.7 0-.2-.2-.5-.2-.7 0 0 .2 0 .2.1.4.4.8 1.1 1 2.3h0 .2 0c.2.1.3.7.2 1.4 0 .5-.3 1-.5 1.1 0 0-.2.1-.2 0h-.1c-.5 1.5-1.3 2.9-2.4 3.8-.7.5-1.4.9-2.2.9s-1.5-.3-2.1-.8c-1.1-.9-2-2.3-2.5-3.8h-.1c-.1 0-.2 0-.3-.1-.2-.2-.4-.6-.4-1.1v-1zM84 37.7v-.2h0c0-.1 0-.2-.1-.3h0c-1.4-3.9-3.6-4-4.1-4.1-1.1-.3-2.3-.1-3-.4 0 .7-2 3-3.3 4.4l-.6-2.2c.4-.3.5-.8.5-1.3h-2.1c0 .5 0 1 .5 1.3l-.5 2.2c-1.3-1.4-3.2-3.7-3.3-4.4-.7.2-2 .1-3 .4-.5.1-2.7.3-4.1 4.1h0v.3.2c-.3 1.1-.5 2.2-.5 3.3h24.5v-.4c-.1-1-.3-1.9-.6-2.9zM41.9 52.8c.5 1.4 1.3 2.7 2.3 3.7.6.5 1.2 1 1.9 1.3.5.2.9.3 1.4.3s1-.1 1.4-.3c.7-.3 1.3-.7 1.9-1.3 1-1 1.8-2.3 2.3-3.7.4-.1.8-.8 1-1.8s0-1.9-.4-2v-.8c0-3.6-2.1-5.8-5.5-6-2.9-.2-5.1 1-6.1 2.9-.3.6-.5 1.5-.6 2.3-.1.5-.2.9-.2 1.4h0 0c-.4 0-.6 1-.4 2s.6 1.7 1 1.8zm.1-2.7c0-.1 0-.2.2-.3h.2 0c0-.3.4-2.7 2.7-2.5 0 0 2 .7 3.9 0h.6c.8 0 1.3.4 1.8.7 0-.3-.2-.5-.2-.7h.2c.4.4.8 1.1 1.1 2.3h0 .2 0c.2.1.4.7.2 1.4 0 .5-.3.9-.5 1.1 0 0-.2.1-.3 0H52c-.5 1.4-1.3 2.9-2.5 3.8-.7.5-1.4.9-2.2.9s-1.5-.3-2.2-.8c-1.1-.9-2-2.3-2.5-3.8h-.1s-.2 0-.3-.1c-.2-.2-.4-.6-.5-1.1v-1zm18 14.4c0-.4-.2-.9-.3-1.3V63v-.2h0c0-.1 0-.2-.1-.3-1.4-3.8-3.7-4-4.2-4.1-1.1-.3-2.4-.1-3.1-.4 0 .7-2.1 3-3.4 4.4l-.6-2.2c.4-.2.5-.8.5-1.3h-2.2c0 .5 0 1 .5 1.3l-.6 2.2c-1.3-1.4-3.3-3.7-3.4-4.4-.7.2-2 .1-3.1.4-.5.1-2.8.3-4.2 4.1h0v.3.1.1c-.1.5-.3 1-.4 1.5 0 .3 0 .6-.1.9h0 25.1c0-.3 0-.6-.2-1zm31.7-11.7c.5 1.4 1.3 2.7 2.3 3.7.6.6 1.2 1 1.9 1.3.5.2.9.3 1.4.3s1-.1 1.4-.3c.7-.3 1.3-.7 1.9-1.3 1-1 1.8-2.3 2.3-3.7.4-.1.8-.8 1-1.8s0-1.9-.4-2v-.8c0-3.6-2.1-5.8-5.5-6-2.9-.2-5.2 1-6.2 2.9-.3.6-.5 1.5-.6 2.3-.1.5-.2.9-.2 1.4h0c-.4 0-.6 1-.4 2s.6 1.7 1 1.8zm0-2.7c0-.1 0-.2.2-.3h.2 0c0-.3.4-2.7 2.7-2.5 0 0 2 .7 3.9 0h.6c.8 0 1.3.4 1.8.7 0-.3-.2-.5-.2-.7h.2c.4.4.8 1.1 1.1 2.3h0 .2 0c.2.1.4.7.2 1.4 0 .5-.3.9-.5 1.1 0 0-.2.1-.3 0h-.1c-.5 1.4-1.3 2.9-2.5 3.8-.7.5-1.4.9-2.2.9s-1.5-.3-2.2-.8c-1.1-.9-2-2.3-2.5-3.8h-.1s-.2 0-.3-.1c-.2-.2-.4-.6-.5-1.1v-1zm17.7 13v-.2h0c0-.1 0-.2-.1-.3-.2-.6-.5-1.2-.8-1.6-1.4-2.3-3-2.4-3.4-2.5-1.1-.3-2.4-.1-3.1-.4 0 .7-2.1 3-3.4 4.4l-.6-2.2c.4-.2.5-.8.5-1.3h-2.2c0 .5 0 1 .5 1.3l-.6 2.2c-1.3-1.4-3.3-3.7-3.4-4.4-.7.2-2 .1-3.1.4-.5.1-2.8.3-4.2 4.1h0v.3c-.1.5-.3 1-.3 1.5 0 .3-.1.6-.1 1h0 23.6c.5 0 1-.4 1-1v-1.3-.1zM117 80H3c-1.7 0-3-1.3-3-3V3c0-1.7 1.3-3 3-3h114c1.7 0 3 1.3 3 3v74c0 1.7-1.3 3-3 3zM3 1.5A1.54 1.54 0 0 0 1.5 3v74A1.54 1.54 0 0 0 3 78.5h114a1.54 1.54 0 0 0 1.5-1.5V3a1.54 1.54 0 0 0-1.5-1.5H3z" fill="#768f9e"/><path d="M109.7,15c0-.6-.4-1-1-1h-24s-24.7,0-24.7,0h0s-25,0-25,0h0s-23.8,0-23.8,0c-.5,0-1,.4-1,1v25h0v25c0,.5.4,1,1,1h24.2s24.6,0,24.6,0h0s25.1,0,25.1,0h0s23.6,0,23.6,0c.5,0,1-.4,1-1v-25h0V15ZM90.4,28.7c-.5,0-1-.4-1-1s.4-1,1-1h15c.5,0,1,.4,1,1s-.4,1-1,1h-15ZM101.8,31.9c0,.5-.5,1-1,1h-10.5c-.5,0-1-.5-1-1s.4-1,1-1h10.5c.5,0,1,.4,1,1ZM89.4,22.2c0-.6.5-1.1,1.1-1.1h12.4c.6,0,1.1.5,1.1,1.1s-.5,1.1-1.1,1.1h-12.4c-.6,0-1.1-.5-1.1-1.1ZM65.5,52.7h15c.5,0,1,.4,1,1s-.4,1-1,1h-15c-.5,0-1-.4-1-1s.4-1,1-1ZM64.5,48.2c0-.6.5-1.1,1.1-1.1h12.4c.6,0,1.1.5,1.1,1.1s-.5,1.1-1.1,1.1h-12.4c-.6,0-1.1-.5-1.1-1.1ZM65.5,57h10.5c.5,0,1,.4,1,1s-.5,1-1,1h-10.5c-.5,0-1-.5-1-1s.4-1,1-1ZM11.2,15h23.7s.1,0,.1,0v8l-4.2,3.7c-.2.1-.2.4,0,.5l4.2,3.7v9H11.3V15ZM40.6,28.7c-.5,0-1-.4-1-1s.4-1,1-1h15c.5,0,1,.4,1,1s-.4,1-1,1h-15ZM52.1,31.9c0,.5-.5,1-1,1h-10.5c-.5,0-1-.5-1-1s.4-1,1-1h10.5c.5,0,1,.4,1,1ZM39.7,22.2c0-.6.5-1.1,1.1-1.1h12.4c.6,0,1.1.5,1.1,1.1s-.5,1.1-1.1,1.1h-12.4c-.6,0-1.1-.5-1.1-1.1ZM15.8,52.7h15c.5,0,1,.4,1,1s-.4,1-1,1h-15c-.5,0-1-.4-1-1s.4-1,1-1ZM14.8,48.2c0-.6.5-1.1,1.1-1.1h12.4c.6,0,1.1.5,1.1,1.1s-.5,1.1-1.1,1.1h-12.4c-.6,0-1.1-.5-1.1-1.1ZM15.8,57h10.5c.5,0,1,.4,1,1s-.4,1-1,1h-10.5c-.5,0-1-.5-1-1s.4-1,1-1ZM35.4,65v-8.3l3.9-3.4c.2-.1.2-.4,0-.5l-3.9-3.4v-9.3h24.6V15h24.6s.1,0,.1,0v8l-4.2,3.7c-.2.1-.2.4,0,.5l4.2,3.7v9h-24.7v25h-24.6ZM108.7,65h-23.6s0-8.2,0-8.2l4-3.5c.2-.1.2-.4,0-.5l-4-3.5v-9.3h23.6v25Z" fill="#58707f"/></svg>