<svg xmlns="http://www.w3.org/2000/svg" viewBox="0 0 120 80" xmlns:v="https://vecta.io/nano"><path d="M106.4,62.4h-14.5c-.8,0-1.5-.7-1.5-1.5v-15.5c0-.8.7-1.5,1.5-1.5h14.5c.8,0,1.5.7,1.5,1.5v15.5c0,.8-.7,1.5-1.5,1.5ZM91.9,45.1c-.2,0-.4.2-.4.4v15.5c0,.2.2.4.4.4h14.5c.2,0,.4-.2.4-.4v-15.5c0-.2-.2-.4-.4-.4h-14.5Z" fill="#58707f"/><path d="M117,80H3c-1.7,0-3-1.3-3-3V3C0,1.3,1.3,0,3,0h114C118.7,0,120,1.3,120,3v74c0,1.7-1.3,3-3,3ZM3,1.5c-.8,0-1.5.7-1.5,1.5v74c0,.8.7,1.5,1.5,1.5h114c.8,0,1.5-.7,1.5-1.5V3c0-.8-.7-1.5-1.5-1.5H3Z" fill="#768f9e"/><path d="M99 39.5H61V36a.47.47 0 1 0-1 0v3.5H22a.47.47 0 0 0-.5.5v4a.47.47 0 0 0 .5.5.47.47 0 0 0 .5-.5v-3.5H60V44a.47.47 0 1 0 1 0v-3.5h37.5V44a.47.47 0 1 0 1 0v-4a.47.47 0 0 0-.5-.5z" fill="#a2b5c1"/><g fill="#58707f"><path d="M29 44H14.5a1.54 1.54 0 0 0-1.5 1.5V61a1.54 1.54 0 0 0 1.5 1.5H29a1.54 1.54 0 0 0 1.5-1.5V45.5A1.54 1.54 0 0 0 29 44zm-14.5 1.1H29c.2 0 .4.2.4.4v14.3-.2h0c-.9-2.5-2.4-2.6-2.7-2.6-.7-.2-1.5 0-2-.2 0 .4-1.3 1.9-2.2 2.8l-.4-1.4c.3-.2.3-.5.3-.8H21c0 .3 0 .7.3.8l-.4 1.4c-.8-.9-2.1-2.4-2.2-2.8-.5.1-1.3 0-2 .2-.3 0-1.8.2-2.7 2.6h0 0V45.5c0-.2.2-.4.4-.4z"/><use href="#B"/><path d="M28.6 65.9H15c-.7 0-1.2.6-1.2 1.2s.6 1.2 1.2 1.2h13.6c.7 0 1.2-.6 1.2-1.2s-.6-1.2-1.2-1.2zM67.7 44H53.2a1.54 1.54 0 0 0-1.5 1.5V61a1.54 1.54 0 0 0 1.5 1.5h14.5a1.54 1.54 0 0 0 1.5-1.5V45.5a1.54 1.54 0 0 0-1.5-1.5zm-14.5 1.1h14.5c.2 0 .4.2.4.4v14.3-.2h0c-.9-2.5-2.4-2.6-2.7-2.6-.7-.2-1.5 0-2-.2 0 .4-1.3 1.9-2.2 2.8l-.4-1.4c.3-.2.3-.5.3-.8h-1.4c0 .3 0 .7.3.8l-.4 1.4c-.8-.9-2.1-2.4-2.2-2.8-.5.1-1.3 0-2 .2-.3 0-1.8.2-2.7 2.6h0 0V45.5c0-.2.2-.4.4-.4z"/><use href="#C"/><path d="M67.3 65.9H53.7c-.7 0-1.2.6-1.2 1.2s.6 1.2 1.2 1.2h13.6c.7 0 1.2-.6 1.2-1.2s-.6-1.2-1.2-1.2z"/><use href="#C" x="38.7"/><path d="M107.2 61.7c0-.6-.2-1.2-.4-1.8v-.2h0v-.2h0c-.9-2.5-2.4-2.6-2.7-2.6-.7-.2-1.5 0-2-.2 0 .4-1.3 1.9-2.2 2.8l-.4-1.4c.3-.2.3-.5.3-.8h-1.4c0 .3 0 .7.3.8l-.4 1.4c-.8-.9-2.1-2.4-2.2-2.8-.5.1-1.3 0-2 .2-.3 0-1.8.2-2.7 2.6h0v.2.2c-.2.7-.3 1.4-.3 2.1h16.2v-.3zm-1.2 4.2H92.4c-.7 0-1.2.6-1.2 1.2s.6 1.2 1.2 1.2H106c.7 0 1.2-.6 1.2-1.2s-.6-1.2-1.2-1.2zM68 12H53.5a1.54 1.54 0 0 0-1.5 1.5V29a1.54 1.54 0 0 0 1.5 1.5H68a1.54 1.54 0 0 0 1.5-1.5V13.5A1.54 1.54 0 0 0 68 12zm-14.5 1.1H68c.2 0 .4.2.4.4v14.3-.2h0c-.9-2.5-2.4-2.6-2.7-2.6-.7-.2-1.5 0-2-.2 0 .4-1.3 1.9-2.2 2.8l-.4-1.4c.3-.2.3-.5.3-.8H60c0 .3 0 .7.3.8l-.4 1.4c-.8-.9-2.1-2.4-2.2-2.8-.5.1-1.3 0-2 .2-.3 0-1.8.2-2.7 2.6h0 0V13.5c0-.2.2-.4.4-.4z"/><use href="#B" x="39" y="-32"/><rect x="52.7" y="33.9" width="16.1" height="2.5" rx="1.2"/></g><defs ><path id="B" d="M18 53.4a6.08 6.08 0 0 0 1.5 2.4c.4.4.8.6 1.2.8.3.1.6.2.9.2s.6 0 .9-.2c.4-.2.9-.5 1.2-.8.6-.6 1.1-1.5 1.5-2.3.2 0 .5-.5.6-1.1s0-1.2-.2-1.3v-.5c0-2.3-1.4-3.7-3.5-3.8-1.9-.1-3.3.6-3.9 1.9-.2.4-.3.9-.4 1.5 0 .3-.1.6-.1.9h0c-.3 0-.4.6-.3 1.3.1.6.4 1.1.7 1.1zm.1-1.7s0-.1.1-.2h.2 0c0-.2.3-1.7 1.7-1.6 0 0 1.3.5 2.5 0h.4c.5 0 .8.3 1.2.4 0-.2-.1-.3-.1-.4h.2c.3.3.5.7.7 1.5h0 0 .2c.2 0 .2.5.2.9 0 .3-.2.6-.3.7h-.2c-.3.9-.9 1.9-1.6 2.4-.4.3-.9.5-1.4.5s-1-.2-1.4-.5a5.65 5.65 0 0 1-1.6-2.4h-.2c-.1-.1-.2-.4-.3-.7v-.6z"/><path id="C" d="M56.8 53.4a6.08 6.08 0 0 0 1.5 2.4c.4.4.8.6 1.2.8.3.1.6.2.9.2s.6 0 .9-.2c.4-.2.9-.5 1.2-.8.6-.6 1.1-1.5 1.5-2.3.2 0 .5-.5.6-1.1s0-1.2-.2-1.3v-.5c0-2.3-1.4-3.7-3.5-3.8-1.9-.1-3.3.6-3.9 1.9-.2.4-.3.9-.4 1.5 0 .3-.1.6-.1.9h0c-.3 0-.4.6-.3 1.3.1.6.4 1.1.7 1.1zm0-1.7s0-.1.1-.2h.2 0c0-.2.3-1.7 1.7-1.6 0 0 1.3.5 2.5 0h.4c.5 0 .8.3 1.2.4 0-.2-.1-.3-.1-.4h.2c.3.3.5.7.7 1.5h0 0 .2c.2 0 .2.5.2.9 0 .3-.2.6-.3.7h-.2c-.3.9-.9 1.9-1.6 2.4-.4.3-.9.5-1.4.5s-1-.2-1.4-.5a5.65 5.65 0 0 1-1.6-2.4h-.2c-.1-.1-.2-.4-.3-.7v-.6z"/></defs></svg>