<svg xmlns="http://www.w3.org/2000/svg" viewBox="0 0 120 80" xmlns:v="https://vecta.io/nano"><path d="M117 80H3c-1.7 0-3-1.3-3-3V3c0-1.7 1.3-3 3-3h114c1.7 0 3 1.3 3 3v74c0 1.7-1.3 3-3 3zM3 1.5A1.54 1.54 0 0 0 1.5 3v74A1.54 1.54 0 0 0 3 78.5h114a1.54 1.54 0 0 0 1.5-1.5V3a1.54 1.54 0 0 0-1.5-1.5H3zM104 14H16c-1.1 0-2 .9-2 2v48c0 1.1.9 2 2 2h88c1.1 0 2-.9 2-2V16c0-1.1-.9-2-2-2zm.8 50c0 .4-.4.8-.8.8H16c-.4 0-.8-.4-.8-.8V16c0-.4.4-.8.8-.8h88c.4 0 .8.4.8.8v48z" fill="#768f9e"/><path d="M104 14H16c-1.1 0-2 .9-2 2v5h92v-5c0-1.1-.9-2-2-2zm-77.8 4.5h-6.5c-.4 0-.8-.3-.8-.8s.3-.8.8-.8h6.5c.4 0 .8.3.8.8s-.3.8-.8.8zm16 0h-4.5c-.4 0-.8-.3-.8-.8s.3-.8.8-.8h4.5c.4 0 .8.3.8.8s-.3.8-.8.8zm17 0h-4.5c-.4 0-.8-.3-.8-.8s.3-.8.8-.8h4.5c.4 0 .8.3.8.8s-.3.8-.8.8zm16 0h-6.5c-.4 0-.8-.3-.8-.8s.3-.8.8-.8h6.5c.4 0 .8.3.8.8s-.3.8-.8.8zm19 0h-4.5c-.4 0-.8-.3-.8-.8s.3-.8.8-.8h4.5c.4 0 .8.3.8.8s-.3.8-.8.8zm2 23.7h-.3c.1 0 .2-.2.2-.3 0 0-.2.1-.3.1 0 0-.2-.2-.4-.2-.3 0-.6.3-.5.6-.4 0-.8-.2-1-.5v.3.2l.2.2h-.2c0 .2.2.5.4.5h-.2c0 .2.2.3.5.3-.2.1-.4.2-.6.2h-.1c.2.1.5.2.8.2.9 0 1.4-.8 1.4-1.4s0 0 0 0 .2-.2.2-.3zm2.6-.4c-.2 0-.3.1-.3.3s.1.3.3.3.3-.1.3-.3-.1-.3-.3-.3zm-.2.8v1.6h.5v-1.6h-.5zm1.8-.1a.55.55 0 0 0-.5.3v-.2h-.5v1.6h.5v-.8c0-.2 0-.4.3-.4s.3.2.3.4v.8h.5v-.9c0-.4 0-.8-.6-.8zm0 0a.55.55 0 0 0-.5.3v-.2h-.5v1.6h.5v-.8c0-.2 0-.4.3-.4s.3.2.3.4v.8h.5v-.9c0-.4 0-.8-.6-.8zm-1.8 1.7h.5v-1.6h-.5v1.6zm.2-2.4c-.2 0-.3.1-.3.3s.1.3.3.3.3-.1.3-.3-.1-.3-.3-.3zm-2.6.4h-.3c.1 0 .2-.2.2-.3 0 0-.2.1-.3.1 0 0-.2-.2-.4-.2-.3 0-.6.3-.5.6-.4 0-.8-.2-1-.5v.3.2l.2.2h-.2c0 .2.2.5.4.5h-.2c0 .2.2.3.5.3-.2.1-.4.2-.6.2h-.1c.2.1.5.2.8.2.9 0 1.4-.8 1.4-1.4s0 0 0 0 .2-.2.2-.3zM14 36v14h92V36H14zm13.4 11c0 .2-.2.5-.5.5h-8c-.2 0-.5-.2-.5-.5v-8c0-.2.2-.5.5-.5h8c.2 0 .5.2.5.5v8zm17.1-3h-8a1.08 1.08 0 0 1-1-1 1.08 1.08 0 0 1 1-1h8a1.08 1.08 0 0 1 1 1 1.08 1.08 0 0 1-1 1zm14.3-.3h-4.5c-.4 0-.8-.3-.8-.8s.3-.8.8-.8h4.5c.4 0 .8.3.8.8s-.3.8-.8.8zm18 1.8h-8.5c-.4 0-.8-.3-.8-.8s.3-.8.8-.8h8.5c.4 0 .8.3.8.8s-.3.8-.8.8zm5-3.5H68.3c-.4 0-.8-.3-.8-.8s.3-.8.8-.8h13.5c.4 0 .8.3.8.8s-.3.8-.8.8zm10.1 2.3s0 .2-.1.3c0 0-.2.1-.3.1h-1v-1.2h.4V43h-.4v-.3c0-.2 0-.3.3-.3h.2v-.5h-.4a.68.68 0 0 0-.7.7v.4h-.5v.5h.5v1.2h-1s-.2 0-.3-.1c0 0-.1-.2-.1-.3v-2.7s0-.2.1-.3c0 0 .2-.1.3-.1h2.7c.1 0 .2 0 .3.1 0 0 .1.2.1.3v2.7zm4.8 0c0 .2-.2.4-.4.4h-2.7c-.2 0-.4-.2-.4-.4v-2.7c0-.2.2-.4.4-.4h2.7c.2 0 .4.2.4.4v2.7zm4.8.2c0 .1-.1.2-.2.2h-2.9c-.1 0-.2-.1-.2-.2v-2.9c0-.1.1-.2.2-.2h2.9c.1 0 .2.1.2.2v2.9zm-1.1-2a.55.55 0 0 0-.5.3v-.2h-.5v1.6h.5v-.8c0-.2 0-.4.3-.4s.3.2.3.4v.8h.5v-.9c0-.4 0-.8-.6-.8zm-1.8 1.7h.5v-1.6h-.5v1.6zm.2-2.4c-.2 0-.3.1-.3.3s.1.3.3.3.3-.1.3-.3-.1-.3-.3-.3zm-2.9.5c.1 0 .2-.2.2-.3 0 0-.2.1-.3.1 0 0-.2-.2-.4-.2-.3 0-.6.3-.5.6-.4 0-.8-.2-1-.5v.3.2l.2.2h-.2c0 .2.2.5.4.5h-.2c0 .2.2.3.5.3-.2.1-.4.2-.6.2h-.1c.2.1.5.2.8.2.9 0 1.4-.8 1.4-1.4s0 0 0 0 .2-.2.2-.3H96zm.3-.1h-.3c.1 0 .2-.2.2-.3 0 0-.2.1-.3.1 0 0-.2-.2-.4-.2-.3 0-.6.3-.5.6-.4 0-.8-.2-1-.5v.3.2l.2.2h-.2c0 .2.2.5.4.5h-.2c0 .2.2.3.5.3-.2.1-.4.2-.6.2h-.1c.2.1.5.2.8.2.9 0 1.4-.8 1.4-1.4s0 0 0 0 .2-.2.2-.3zm0 0h-.3c.1 0 .2-.2.2-.3 0 0-.2.1-.3.1 0 0-.2-.2-.4-.2-.3 0-.6.3-.5.6-.4 0-.8-.2-1-.5v.3.2l.2.2h-.2c0 .2.2.5.4.5h-.2c0 .2.2.3.5.3-.2.1-.4.2-.6.2h-.1c.2.1.5.2.8.2.9 0 1.4-.8 1.4-1.4s0 0 0 0 .2-.2.2-.3z" fill="#7c93a2"/><g fill="#58707f"><path d="M25.2 41.8v-.3c0-1.3-.8-2-2-2.1-1 0-1.8.4-2.2 1-.1.2-.2.5-.2.8v.5c-.1 0-.2.4-.2.7 0 .4.2.6.4.6.2.5.5 1 .8 1.3.2.2.4.4.7.5h.5.5a3.04 3.04 0 0 0 .7-.5c.3-.3.6-.8.8-1.3.1 0 .3-.3.3-.6 0-.4 0-.7-.1-.7zm-.3.7c0 .2-.1.3-.2.4-.2.5-.5 1-.9 1.3-.2.2-.5.3-.8.3s-.5-.1-.8-.3c-.4-.3-.7-.8-.9-1.3l-.2-.4v-.3-.1s.1-.9.9-.9h0s.7.3 1.4 0h.2c.3 0 .5.2.6.2v-.2c.1.2.3.4.4.8h0s.1.2 0 .5zM21 28.6c.2.5.5 1 .8 1.3.2.2.4.4.7.5h.5.5a3.04 3.04 0 0 0 .7-.5c.3-.3.6-.8.8-1.3.1 0 .3-.3.3-.6 0-.4 0-.7-.1-.7V27c0-1.3-.8-2-2-2.1-1 0-1.8.4-2.2 1-.1.2-.2.5-.2.8v.5c-.1 0-.2.4-.2.7 0 .4.2.6.4.6zm0-.9v-.1s.1-.9.9-.9h0s.7.3 1.4 0h.2c.3 0 .5.2.6.2v-.2c.1.2.3.4.4.8h0s.1.2 0 .5c0 .2-.1.3-.2.4-.2.5-.5 1-.9 1.3-.2.2-.5.3-.8.3s-.5-.1-.8-.3c-.4-.3-.7-.8-.9-1.3l-.2-.4v-.3z"/><use href="#B"/><path d="M44.5 27.5h-8a.94.94 0 0 0-1 1 .94.94 0 0 0 1 1h8a.94.94 0 0 0 1-1 .94.94 0 0 0-1-1zm14.3.3h-4.5c-.4 0-.8.3-.8.8s.3.8.8.8h4.5c.4 0 .8-.3.8-.8s-.3-.8-.8-.8z"/><use href="#C"/><path d="M68.2 30.5h8.5c.4 0 .8-.3.8-.8s-.3-.8-.8-.8h-8.5c-.4 0-.8.3-.8.8s.3.8.8.8zm23.3-3.7h-2.7s-.2 0-.3.1c0 0-.1.2-.1.3v2.7s0 .2.1.3.2.1.3.1h1v-1.2h-.5v-.5h.5v-.4c0-.5.3-.7.7-.7h.4v.5h-.2c-.2 0-.3.1-.3.3v.4h.5v.5h-.5v1.2h1s.2 0 .3-.1c0 0 .1-.2.1-.3v-2.7s0-.2-.1-.3c0 0-.2-.1-.3-.1z"/><use href="#D"/><path d="M101.2 26.8h-2.9c-.1 0-.2.1-.2.2v2.9c0 .1.1.2.2.2h2.9c.1 0 .2-.1.2-.2V27c0-.1-.1-.2-.2-.2zm-2.1 2.9h-.5v-1.6h.5v1.6zm-.3-1.8c-.2 0-.3-.1-.3-.3s.1-.3.3-.3.3.1.3.3-.1.3-.3.3zm2.2 1.8h-.5v-.8c0-.2 0-.4-.3-.4s-.3.2-.3.4v.8h-.5v-1.6h.5v.2c0-.1.2-.3.5-.3.5 0 .6.3.6.8v.9zM21 57.6c.2.5.5 1 .8 1.3.2.2.4.4.7.5h.5.5a3.04 3.04 0 0 0 .7-.5c.3-.3.6-.8.8-1.3.1 0 .3-.3.3-.6 0-.4 0-.7-.1-.7V56c0-1.3-.8-2-2-2.1-1 0-1.8.4-2.2 1-.1.2-.2.5-.2.8v.5c-.1 0-.2.4-.2.7 0 .4.2.6.4.6zm0-.9v-.1s.1-.9.9-.9h0s.7.3 1.4 0h.2c.3 0 .5.2.6.2v-.2c.1.2.3.4.4.8h0s.1.2 0 .5c0 .2-.1.3-.2.4-.2.5-.5 1-.9 1.3-.2.2-.5.3-.8.3s-.5-.1-.8-.3c-.4-.3-.7-.8-.9-1.3l-.2-.4v-.3z"/><use href="#B" y="29"/><path d="M44.5 56.5h-8a.94.94 0 0 0-1 1 .94.94 0 0 0 1 1h8a.94.94 0 0 0 1-1 .94.94 0 0 0-1-1zm14.3.3h-4.5c-.4 0-.8.3-.8.8s.3.8.8.8h4.5c.4 0 .8-.3.8-.8s-.3-.8-.8-.8z"/><use href="#C" y="29"/><path d="M76.8 58h-8.5c-.4 0-.8.3-.8.8s.3.8.8.8h8.5c.4 0 .8-.3.8-.8s-.3-.8-.8-.8zm14.7-2.2h-2.7s-.2 0-.3.1c0 0-.1.2-.1.3v2.7s0 .2.1.3.2.1.3.1h1v-1.2h-.5v-.5h.5v-.4c0-.5.3-.7.7-.7h.4v.5h-.2c-.2 0-.3.1-.3.3v.4h.5v.5h-.5v1.2h1s.2 0 .3-.1c0 0 .1-.2.1-.3v-2.7s0-.2-.1-.3-.2-.1-.3-.1z"/><use href="#D" y="29"/><path d="M101.2 55.8h-2.9c-.1 0-.2.1-.2.2v2.9c0 .1.1.2.2.2h2.9c.1 0 .2-.1.2-.2V56c0-.1-.1-.2-.2-.2zm-2.1 2.9h-.5v-1.6h.5v1.6zm-.3-1.8c-.2 0-.3-.1-.3-.3s.1-.3.3-.3.3.1.3.3-.1.3-.3.3zm2.2 1.8h-.5v-.8c0-.2 0-.4-.3-.4s-.3.2-.3.4v.8h-.5v-1.6h.5v.2c0-.1.2-.3.5-.3.5 0 .6.3.6.8v.9zM27 38h-8c-.6 0-1 .5-1 1v8c0 .4.2.7.5.9h0c.1 0 .3.1.4.1h8c.2 0 .3 0 .4-.1h0c.3-.2.5-.5.5-.9v-8c0-.6-.5-1-1-1zm-8.4 9v-8c0-.2.2-.5.5-.5h8c.2 0 .5.2.5.5v8 .2-.5h0v-.1h0c-.5-1.4-1.3-1.4-1.5-1.5-.4 0-.9 0-1.1-.1 0 .2-.7 1.1-1.2 1.6l-.2-.8c.2 0 .2-.3.2-.5H23c0 .2 0 .4.2.5l-.2.8c-.5-.5-1.2-1.3-1.2-1.6-.3 0-.7 0-1.1.1-.2 0-1 0-1.5 1.5h0q0 0 0 0v.1.4-.2z"/></g><defs ><path id="B" d="M27 23.5h-8c-.6 0-1 .5-1 1v8c0 .4.2.7.5.9h0c.1 0 .3.1.4.1h8c.2 0 .3 0 .4-.1h0c.3-.2.5-.5.5-.9v-8c0-.6-.5-1-1-1zm-8.4 9v-8a.47.47 0 0 1 .5-.5h8a.47.47 0 0 1 .5.5v8 .2-.5h0v-.1h0c-.5-1.4-1.3-1.4-1.5-1.5-.4 0-.9 0-1.1-.1 0 .2-.7 1.1-1.2 1.6l-.2-.8c.2 0 .2-.3.2-.5H23c0 .2 0 .4.2.5l-.2.8c-.5-.5-1.2-1.3-1.2-1.6-.3 0-.7 0-1.1.1-.2 0-1 0-1.5 1.5h0q0 0 0 0v.1.4-.2z"/><path id="C" d="M81.8 26.5H68.3c-.4 0-.8.3-.8.8s.3.8.8.8h13.5c.4 0 .8-.3.8-.8s-.3-.8-.8-.8z"/><path id="D" d="M96.3 26.8h-2.7c-.2 0-.4.2-.4.4v2.7c0 .2.2.4.4.4h2.7c.2 0 .4-.2.4-.4v-2.7c0-.2-.2-.4-.4-.4zm-.3 1.3c0 .7-.5 1.4-1.4 1.4s-.6 0-.8-.2h.1c.2 0 .5 0 .6-.2a.55.55 0 0 1-.5-.3h.2c-.2 0-.4-.2-.4-.5h.2l-.2-.2v-.2-.3c.2.3.6.5 1 .5 0-.3.2-.6.5-.6s.3 0 .4.2c.1 0 .2 0 .3-.1 0 .1-.1.2-.2.3h.3s-.2.2-.2.3z"/></defs></svg>