<svg xmlns="http://www.w3.org/2000/svg" viewBox="0 0 120 80" xmlns:v="https://vecta.io/nano"><path d="M117,80H3c-1.7,0-3-1.3-3-3V3C0,1.3,1.3,0,3,0h114C118.7,0,120,1.3,120,3v74c0,1.7-1.3,3-3,3ZM3,1.5c-.8,0-1.5.7-1.5,1.5v74c0,.8.7,1.5,1.5,1.5h114c.8,0,1.5-.7,1.5-1.5V3c0-.8-.7-1.5-1.5-1.5H3Z" fill="#768f9e"/><g fill="#58707f"><use href="#B"/><use href="#C"/><path d="M26.4 29H13.8c-.7 0-1.3-.6-1.3-1.3V14.2c0-.7.6-1.3 1.3-1.3h12.6c.7 0 1.3.6 1.3 1.3v13.5c0 .7-.6 1.3-1.3 1.3zM13.8 13.9c-.2 0-.3.1-.3.3v13.5c0 .2.1.3.3.3h12.6c.2 0 .3-.1.3-.3V14.2c0-.2-.1-.3-.3-.3H13.8z"/><use href="#D"/><use href="#C" x="19.2"/><path d="M45.5 29H32.9c-.7 0-1.3-.6-1.3-1.3V14.2c0-.7.6-1.3 1.3-1.3h12.6c.7 0 1.3.6 1.3 1.3v13.5c0 .7-.6 1.3-1.3 1.3zM32.9 13.9c-.2 0-.3.1-.3.3v13.5c0 .2.1.3.3.3h12.6c.2 0 .3-.1.3-.3V14.2c0-.2-.1-.3-.3-.3H32.9z"/><use href="#E"/><use href="#C" x="38.3"/><path d="M64.7 29H52.1c-.7 0-1.3-.6-1.3-1.3V14.2c0-.7.6-1.3 1.3-1.3h12.6c.7 0 1.3.6 1.3 1.3v13.5c0 .7-.6 1.3-1.3 1.3zM52.1 13.9c-.2 0-.3.1-.3.3v13.5c0 .2.1.3.3.3h12.6c.2 0 .3-.1.3-.3V14.2c0-.2-.1-.3-.3-.3H52.1z"/><use href="#B" y="19"/><use href="#C" y="19"/><path d="M26.4 48H13.8c-.7 0-1.3-.6-1.3-1.3V33.2c0-.7.6-1.3 1.3-1.3h12.6c.7 0 1.3.6 1.3 1.3v13.5c0 .7-.6 1.3-1.3 1.3zM13.8 32.9c-.2 0-.3.1-.3.3v13.5c0 .2.1.3.3.3h12.6c.2 0 .3-.1.3-.3V33.2c0-.2-.1-.3-.3-.3H13.8z"/><use href="#D" y="19"/><use href="#C" x="19.2" y="19"/><path d="M45.5 48H32.9c-.7 0-1.3-.6-1.3-1.3V33.2c0-.7.6-1.3 1.3-1.3h12.6c.7 0 1.3.6 1.3 1.3v13.5c0 .7-.6 1.3-1.3 1.3zM32.9 32.9c-.2 0-.3.1-.3.3v13.5c0 .2.1.3.3.3h12.6c.2 0 .3-.1.3-.3V33.2c0-.2-.1-.3-.3-.3H32.9z"/><use href="#E" y="19"/><use href="#C" x="38.3" y="19"/><path d="M64.7 48H52.1c-.7 0-1.3-.6-1.3-1.3V33.2c0-.7.6-1.3 1.3-1.3h12.6c.7 0 1.3.6 1.3 1.3v13.5c0 .7-.6 1.3-1.3 1.3zM52.1 32.9c-.2 0-.3.1-.3.3v13.5c0 .2.1.3.3.3h12.6c.2 0 .3-.1.3-.3V33.2c0-.2-.1-.3-.3-.3H52.1z"/><use href="#B" y="38"/><use href="#C" y="38"/><path d="M26.4 67H13.8c-.7 0-1.3-.6-1.3-1.3V52.2c0-.7.6-1.3 1.3-1.3h12.6c.7 0 1.3.6 1.3 1.3v13.5c0 .7-.6 1.3-1.3 1.3zM13.8 51.9c-.2 0-.3.1-.3.3v13.5c0 .2.1.3.3.3h12.6c.2 0 .3-.1.3-.3V52.2c0-.2-.1-.3-.3-.3H13.8z"/><use href="#D" y="38"/><use href="#C" x="19.2" y="38"/><path d="M45.5 67H32.9c-.7 0-1.3-.6-1.3-1.3V52.2c0-.7.6-1.3 1.3-1.3h12.6c.7 0 1.3.6 1.3 1.3v13.5c0 .7-.6 1.3-1.3 1.3zM32.9 51.9c-.2 0-.3.1-.3.3v13.5c0 .2.1.3.3.3h12.6c.2 0 .3-.1.3-.3V52.2c0-.2-.1-.3-.3-.3H32.9z"/><use href="#E" y="38"/><use href="#C" x="38.3" y="38"/><path d="M64.7 67H52.1c-.7 0-1.3-.6-1.3-1.3V52.2c0-.7.6-1.3 1.3-1.3h12.6c.7 0 1.3.6 1.3 1.3v13.5c0 .7-.6 1.3-1.3 1.3zM52.1 51.9c-.2 0-.3.1-.3.3v13.5c0 .2.1.3.3.3h12.6c.2 0 .3-.1.3-.3V52.2c0-.2-.1-.3-.3-.3H52.1zm53.1-4.1H75c-1.4 0-2.5-1.1-2.5-2.5V13.2c0-1.4 1.1-2.5 2.5-2.5h30.2c1.4 0 2.5 1.1 2.5 2.5v32.2c0 1.4-1.1 2.5-2.5 2.5zM75 12.6a.65.65 0 0 0-.6.6v32.2a.65.65 0 0 0 .6.6h30.2a.65.65 0 0 0 .6-.6V13.2a.65.65 0 0 0-.6-.6H75zm22.9 12.1v-1c0-4.7-2.8-7.4-7.1-7.7-3.8-.3-6.6 1.2-7.9 3.8-.4.8-.7 1.9-.8 3-.1.6-.2 1.2-.2 1.9h0c-.6 0-.8 1.3-.6 2.6.2 1.2.8 2.2 1.3 2.3.7 1.8 1.7 3.5 3 4.8.7.7 1.5 1.3 2.4 1.6.6.2 1.2.4 1.9.4s1.3-.1 1.9-.4c.9-.4 1.7-1 2.5-1.7 1.3-1.3 2.3-3 2.9-4.7.5-.1 1-1.1 1.2-2.3.2-1.3 0-2.4-.5-2.6zm-.8 2.8c-.1.7-.4 1.2-.6 1.4-.1 0-.2.1-.3.1H96c-.6 1.9-1.7 3.7-3.2 4.9-.9.7-1.8 1.1-2.9 1.1s-2-.4-2.8-1c-1.5-1.1-2.6-3-3.2-4.9h-.2c-.1 0-.3 0-.4-.2-.3-.3-.5-.8-.6-1.4v-.1-1.3c0-.2.1-.3.2-.4h.1c.1 0 .2 0 .3.1h0c0-.4.5-3.5 3.5-3.2 0 0 2.6 1 5 .1h.7c1 0 1.7.5 2.4.9 0-.3-.3-.7-.3-.9.1 0 .2 0 .3.1.5.5 1 1.4 1.4 2.9h0 0c.1 0 .2-.1.3-.1.3.2.5.9.3 1.8z"/><path d="M106.4 46.9H73.8c0-1.4.3-2.8.7-4.2v-.3c0-.2.1-.3.1-.4h0c1.9-5 4.8-5.2 5.4-5.3 1.4-.3 3.1-.2 4-.5.1.9 2.7 3.8 4.4 5.7l.7-2.8c-.5-.3-.7-1-.7-1.6h2.8c0 .6-.1 1.3-.7 1.6l.7 2.8c1.7-1.8 4.3-4.8 4.4-5.7.9.3 2.6.1 4 .5.7.2 3.6.3 5.4 5.3h0c0 .1 0 .3.1.4h0v.3c.3 1.2.6 2.5.7 3.7v.5zm-31.1 4.9h29.6a1.54 1.54 0 0 1 1.5 1.5h0a1.54 1.54 0 0 1-1.5 1.5H75.3a1.54 1.54 0 0 1-1.5-1.5h0a1.54 1.54 0 0 1 1.5-1.5zm5.9 5h17.7c.7 0 1.2.6 1.2 1.2h0c0 .7-.6 1.2-1.2 1.2H81.2c-.7 0-1.2-.6-1.2-1.2h0c0-.7.6-1.2 1.2-1.2zm3.2 6.5h-4.7c-.2 0-.3 0-.5.2-.1.1-.2.3-.2.5v4.7c0 .2 0 .3.2.5s.3.2.5.2h1.8v-2h-.8v-1h.8v-.7c0-.8.5-1.3 1.3-1.3h.7v.8h-.4c-.4 0-.5.3-.5.5v.6h.9v1h-.9v2h1.8c.2 0 .3 0 .5-.2s.2-.3.2-.5v-4.7c0-.2 0-.3-.2-.5-.1-.1-.3-.2-.5-.2zm8 0h-4.7c-.4 0-.6.3-.6.6v4.7c0 .4.3.6.6.6h4.7c.4 0 .6-.3.6-.6v-4.7c0-.4-.3-.6-.6-.6zm-.6 2.1v.1c0 1.2-.9 2.5-2.5 2.5s-1-.1-1.3-.4h.2c.4 0 .8-.1 1.1-.4-.4 0-.7-.3-.8-.6h.4c-.4 0-.7-.4-.7-.9h0c.1 0 .3 0 .4.1-.1 0-.2-.2-.3-.3 0-.1-.1-.3-.1-.4 0-.2 0-.3.1-.4.4.5 1.1.9 1.8.9-.1-.6.3-1.1.9-1.1s.5.1.6.3c.2 0 .4-.1.6-.2 0 .2-.2.4-.4.5.2 0 .3 0 .5-.1-.1.2-.3.3-.4.5zm8.8-2.1h-5.1c-.2 0-.4.2-.4.4v5.1c0 .2.2.4.4.4h5.1c.2 0 .4-.2.4-.4v-5.1c0-.2-.2-.4-.4-.4zm-3.7 5.1H96v-2.9h.9v2.9h0zm-.5-3.2a.5.5 0 1 1 0-1 .5.5 0 1 1 0 1zm3.8 3.2h-.9V67c0-.3 0-.8-.5-.8s-.5.4-.5.7v1.4h-.9v-2.9h.9v.4h0c.1-.2.4-.5.8-.5.9 0 1.1.6 1.1 1.4v1.6z"/></g><defs ><path id="B" d="M23.5 19v-.4c0-2-1.2-3.2-3.1-3.3-1.6-.1-2.9.5-3.4 1.6-.2.4-.3.8-.3 1.3v.8h0c-.2 0-.3.6-.2 1.1 0 .5.3 1 .6 1 .3.8.7 1.5 1.3 2.1.3.3.7.6 1 .7s.5.2.8.2.5 0 .8-.2c.4-.2.8-.4 1.1-.7.5-.5 1-1.3 1.3-2 .2 0 .4-.5.5-1 0-.6 0-1-.2-1.1zm-.4 1.2c0 .3-.2.5-.3.6h-.1c-.3.8-.8 1.6-1.4 2.1-.4.3-.8.5-1.2.5s-.8-.2-1.2-.5c-.6-.5-1.1-1.3-1.4-2.1h-.2c-.1-.1-.2-.3-.3-.6v-.5-.2h.1 0c0-.2.2-1.5 1.5-1.4 0 0 1.1.4 2.1 0h.3c.4 0 .7.2 1 .4 0-.1-.1-.3-.1-.4h.1c.2.2.4.6.6 1.3h0 0 .1c.1 0 .2.4.1.8z"/><path id="C" d="M27.1 28.6h-14c0-.6.1-1.2.3-1.8v-.1-.2h0c.8-2.1 2.1-2.2 2.3-2.3.6-.1 1.3 0 1.7-.2 0 .4 1.2 1.7 1.9 2.4l.3-1.2c-.2-.1-.3-.4-.3-.7h1.2c0 .3 0 .6-.3.7l.3 1.2c.7-.8 1.9-2.1 1.9-2.4.4.1 1.1 0 1.7.2.3 0 1.5.1 2.3 2.3h0v.2h0v.1c.1.5.3 1.1.3 1.6v.2z"/><path id="D" d="M42.6 19v-.4c0-2-1.2-3.2-3.1-3.3-1.6-.1-2.9.5-3.4 1.6-.2.4-.3.8-.3 1.3v.8h0c-.2 0-.3.6-.2 1.1 0 .5.3 1 .6 1 .3.8.7 1.5 1.3 2.1.3.3.7.6 1 .7s.5.2.8.2.5 0 .8-.2c.4-.2.8-.4 1.1-.7.5-.5 1-1.3 1.3-2 .2 0 .4-.5.5-1 0-.6 0-1-.2-1.1zm-.3 1.2c0 .3-.2.5-.3.6h-.1c-.3.8-.8 1.6-1.4 2.1-.4.3-.8.5-1.2.5s-.8-.2-1.2-.5c-.6-.5-1.1-1.3-1.4-2.1h-.2c-.1-.1-.2-.3-.3-.6v-.5-.2h.1 0c0-.2.2-1.5 1.5-1.4 0 0 1.1.4 2.1 0h.3c.4 0 .7.2 1 .4 0-.1-.1-.3-.1-.4h.1c.2.2.4.6.6 1.3h0 0 .1c.1 0 .2.4.1.8z"/><path id="E" d="M61.8 19v-.4c0-2-1.2-3.2-3.1-3.3-1.6-.1-2.9.5-3.4 1.6-.2.4-.3.8-.3 1.3v.8h0c-.2 0-.3.6-.2 1.1 0 .5.3 1 .6 1 .3.8.7 1.5 1.3 2.1.3.3.7.6 1 .7s.5.2.8.2.5 0 .8-.2c.4-.2.8-.4 1.1-.7.5-.5 1-1.3 1.3-2 .2 0 .4-.5.5-1 0-.6 0-1-.2-1.1zm-.4 1.2c0 .3-.2.5-.3.6H61c-.3.8-.8 1.6-1.4 2.1-.4.3-.8.5-1.2.5s-.8-.2-1.2-.5c-.6-.5-1.1-1.3-1.4-2.1h-.2c-.1-.1-.2-.3-.3-.6v-.5-.2h.1 0c0-.2.2-1.5 1.5-1.4 0 0 1.1.4 2.1 0h.3c.4 0 .7.2 1 .4 0-.1-.1-.3-.1-.4h.1c.2.2.4.6.6 1.3h0 0 .1c.1 0 .2.4.1.8z"/></defs></svg>